<?xml version="1.0" encoding="UTF-8"?>
<svg width="24px" height="24px" viewBox="0 0 24 24" version="1.1" xmlns="http://www.w3.org/2000/svg" xmlns:xlink="http://www.w3.org/1999/xlink">
    <!-- Generator: Sketch 46.2 (44496) - http://www.bohemiancoding.com/sketch -->
    <title>Page 1 Copy</title>
    <desc>Created with Sketch.</desc>
    <defs></defs>
    <g id="Page-1" stroke="none" stroke-width="1" fill="none" fill-rule="evenodd">
        <path d="M19.195314,22.921875 C19.195314,22.2343716 19.042971,21.6328152 18.738282,21.1171875 C18.433593,20.601561 18.039066,20.140626 17.554686,19.734375 C17.070309,19.328124 16.519533,18.964845 15.902343,18.644532 C15.285153,18.324216 14.656254,18.023439 14.015625,17.742189 C12.73437,17.19531 11.851566,16.640628 11.367186,16.078125 C10.882809,15.515622 10.640625,14.73438 10.640625,13.734375 C10.640625,13.140621 10.785156,12.769533 11.074218,12.621093 C11.363283,12.472656 11.593749,11.851569 11.765625,10.757811 C11.843751,10.304685 12.007812,10.105467 12.257814,10.160157 C12.507813,10.214844 12.664062,9.726567 12.726564,8.695311 C12.726564,8.28906 12.664062,8.015625 12.539064,7.875 C12.414063,7.734375 12.351564,7.664061 12.351564,7.664061 C12.351564,7.664061 12.386718,7.421877 12.457032,6.9375 C12.527343,6.453123 12.578124,5.976564 12.609375,5.507811 C12.65625,5.023434 12.496095,4.363284 12.128907,3.527343 C11.761716,2.691402 11.000007,2.11719 9.84375,1.804689 C9.65625,1.601562 9.550782,1.347657 9.527343,1.042968 C9.503907,0.738279 9.796872,0.421878 10.40625,0.09375 C9.062493,0.031251 8.11719,0.273435 7.570314,0.820311 C7.023435,1.36719 6.39063,1.898436 5.671875,2.414061 C5.062497,2.86719 4.656252,3.402342 4.453125,4.019532 C4.249998,4.636722 4.156251,5.132811 4.171875,5.507811 C4.21875,5.976564 4.277343,6.453123 4.347657,6.9375 C4.417968,7.421877 4.453125,7.664061 4.453125,7.664061 C4.453125,7.664061 4.390626,7.734375 4.265625,7.875 C4.140624,8.015625 4.078125,8.28906 4.078125,8.695311 C4.140624,9.726567 4.296873,10.21875 4.546875,10.171875 C4.796877,10.125 4.960938,10.320309 5.039064,10.757811 C5.210937,11.851569 5.441406,12.472656 5.730468,12.621093 C6.019533,12.769533 6.164064,13.140621 6.164064,13.734375 C6.164064,14.73438 6.015627,15.472653 5.71875,15.949218 C5.421873,16.425783 4.632819,16.937496 3.351564,17.484375 C2.070306,18.046878 1.1914086,18.773433 0.7148436,19.664061 C0.23827887,20.554692 0.007812423,21.6406185 0.0234375,22.921875 C0.0234375,23.2968768 0.01953129,23.5624992 0.01171875,23.71875 C0.00390621,23.8750008 0,23.953125 0,23.953125 L19.195314,23.953125 C19.195314,23.953125 19.195314,23.8750008 19.195314,23.71875 C19.195314,23.5624992 19.195314,23.2968768 19.195314,22.921875 Z M22.242186,15.984375 C21.554685,15.718749 21.058596,15.402345 20.753907,15.035157 C20.449218,14.667966 20.296875,14.164065 20.296875,13.523439 C20.296875,13.132812 20.390625,12.890625 20.578125,12.796875 C20.765625,12.703125 20.914062,12.304692 21.023436,11.601561 C21.070314,11.304687 21.175779,11.171874 21.339843,11.203125 C21.503907,11.234376 21.609375,10.921878 21.65625,10.265625 C21.65625,9.999999 21.613281,9.820314 21.527343,9.726561 C21.441405,9.632811 21.398436,9.585939 21.398436,9.585939 C21.398436,9.585939 21.421875,9.42969 21.46875,9.117189 C21.515625,8.804685 21.554688,8.500002 21.585936,8.203125 C21.617187,7.828122 21.457032,7.285161 21.105468,6.574218 C20.753904,5.863278 20.007819,5.507811 18.867186,5.507811 C17.726556,5.507811 16.980471,5.863278 16.628907,6.574218 C16.277343,7.285161 16.109376,7.828122 16.125,8.203125 C16.156251,8.500002 16.195311,8.804685 16.242186,9.117189 C16.289064,9.42969 16.3125,9.585939 16.3125,9.585939 C16.3125,9.585939 16.273437,9.632811 16.195314,9.726561 C16.117188,9.820314 16.078125,9.999999 16.078125,10.265625 C16.109376,10.921878 16.207029,11.234376 16.371093,11.203125 C16.535157,11.171874 16.640625,11.304687 16.6875,11.601561 C16.796877,12.304692 16.945311,12.703125 17.132814,12.796875 C17.320314,12.890625 17.414064,13.132812 17.414064,13.523439 C17.414064,14.164065 17.257815,14.66406 16.945314,15.023439 C16.63281,15.382815 16.062504,15.742185 15.234375,16.101561 C15.203124,16.117188 15.16797,16.136718 15.128907,16.160157 C15.089844,16.183593 15.054687,16.203126 15.023436,16.21875 C15.507816,16.437501 16.050777,16.695312 16.652343,16.992189 C17.253909,17.289063 17.832027,17.652342 18.386718,18.082032 C18.941409,18.511722 19.441404,19.011717 19.886718,19.582032 C20.332032,20.152347 20.648436,20.812497 20.835936,21.5625 L24,21.5625 C24,21.5625 24,21.1601604 24,20.355468 C24,19.550778 24,19.023438 24,18.773439 C24,18.179685 23.88672,17.640627 23.660157,17.15625 C23.433594,16.671873 22.960941,16.281252 22.242186,15.984375 Z" id="Page-1-Copy" fill="#000000"></path>
    </g>
</svg>