<?xml version="1.0" encoding="UTF-8"?>
<svg width="347px" height="253px" viewBox="0 0 347 253" version="1.1" xmlns="http://www.w3.org/2000/svg" xmlns:xlink="http://www.w3.org/1999/xlink">
    <!-- Generator: Sketch 46.2 (44496) - http://www.bohemiancoding.com/sketch -->
    <title>Group 9</title>
    <desc>Created with Sketch.</desc>
    <defs></defs>
    <g id="Page-1" stroke="none" stroke-width="1" fill="none" fill-rule="evenodd">
        <g id="Group-9">
            <g id="sb-0">
                <path d="M41.9621,121.9996 C41.9621,121.9996 50.6501,122.1866 54.4621,124.1876 C58.2741,126.1866 62.0871,129.1866 64.0241,129.8746 C65.9621,130.5626 74.0251,130.9376 74.0251,130.9376 C74.0251,130.9376 74.0871,105.2496 87.0871,83.6246 C100.0871,61.9996 121.2121,48.7496 130.8371,42.7496 C140.4621,36.7496 161.8371,30.4996 163.3371,27.1246 C164.8371,23.7496 168.8521,11.9996 175.5321,6.6246 C182.2121,1.2496 192.8371,-0.0004 196.7121,-0.0004 C200.5871,-0.0004 203.3371,1.4996 209.5871,1.8746 C215.8371,2.2496 222.2121,3.6246 225.5871,10.6246 C228.9621,17.6246 228.3371,21.6246 227.5871,23.9996 C226.8371,26.3746 225.7121,28.8746 230.9621,30.4996 C236.2121,32.1246 247.0871,34.2496 262.8371,46.3746 C278.5871,58.4996 290.5871,74.4996 295.2121,84.7496 C299.8371,94.9996 300.2121,99.7496 303.9621,100.4996 C307.7121,101.2496 306.9621,98.9996 309.2121,97.3746 C311.4621,95.7496 314.8371,92.7496 321.2121,90.4996 C327.5871,88.2496 336.9621,87.2496 339.2121,92.6246 C341.4621,97.9996 337.7121,99.2496 338.0871,104.8746 C338.0871,104.8746 337.7551,106.9166 342.5881,108.9996 C347.4211,111.0826 347.4221,117.6666 346.5881,120.0826 C345.7541,122.4996 343.0871,126.2496 341.4211,129.3326 C339.7551,132.4166 340.0881,135.4996 342.0881,138.7496 C344.0881,141.9996 343.5051,146.4986 341.2551,148.5826 C339.0051,150.6666 336.6711,152.6666 327.6711,153.1666 C318.6711,153.6666 314.3391,148.0826 308.5051,146.4996 C302.6711,144.9166 302.3381,145.9986 299.8381,149.8326 C299.8381,149.8326 295.5881,161.1666 291.8381,167.6666 C291.8381,167.6666 285.7121,179.2496 271.2121,190.3746 C256.7121,201.4996 232.8371,212.2496 216.8371,215.2496 C200.8371,218.2496 168.7121,216.7496 155.9621,215.2496 C143.2121,213.7496 131.9621,207.9996 122.9621,204.1246 C113.9621,200.2496 103.4621,191.8746 103.4621,191.8746 C103.4621,191.8746 93.2541,180.1666 83.5451,166.8336 C83.5451,166.8336 78.5461,161.3346 77.2541,153.4176 C77.2541,153.4176 67.3161,155.3766 58.9201,155.1256 C50.5251,154.8746 51.6451,150.5956 49.0871,146.4996 C46.5291,142.4036 46.0871,138.4176 41.3791,136.6676 C36.6701,134.9176 39.5041,131.8336 39.9621,131.6666 C40.4201,131.5006 40.5871,130.8336 43.4201,130.4166 C43.4201,130.4166 42.6701,125.1656 41.9621,121.9996" id="Fill-1" fill="#2E6CAD"></path>
                <path d="M120.2321,106.8433 C120.2321,110.9853 116.8741,114.3433 112.7321,114.3433 C108.5901,114.3433 105.2321,110.9853 105.2321,106.8433 C105.2321,102.7013 108.5901,99.3433 112.7321,99.3433 C116.8741,99.3433 120.2321,102.7013 120.2321,106.8433" id="Fill-12" fill="#5391C6"></path>
                <path d="M118.1696,106.8433 C118.1696,109.8463 115.7346,112.2803 112.7326,112.2803 C109.7296,112.2803 107.2946,109.8463 107.2946,106.8433 C107.2946,103.8403 109.7296,101.4063 112.7326,101.4063 C115.7346,101.4063 118.1696,103.8403 118.1696,106.8433" id="Fill-14" fill="#231916"></path>
                <path d="M76.2956,148.9586 C76.2956,148.9586 75.8376,147.5416 75.5876,145.6666 C75.3376,143.7916 75.0036,141.7076 74.7536,140.2496 C74.5036,138.7916 74.4626,137.8756 74.4626,137.4586 C74.4626,137.0416 74.2126,136.8756 73.9206,137.4586 C73.6286,138.0416 73.1706,141.4176 73.2126,143.2086 C73.2536,144.9996 74.1686,147.0416 74.7526,148.2916 C75.3376,149.5416 76.8786,150.3336 76.2956,148.9586" id="Fill-16" fill="#93BCE0"></path>
                <path d="M47.0246,130.1246 C47.0246,130.1246 48.2746,130.4166 47.4206,129.6246 C46.7296,128.9826 43.6706,128.9576 42.5036,129.2496 C41.3376,129.5416 41.5866,129.7916 42.1286,129.9576 C42.6706,130.1246 42.8376,130.4166 43.4206,130.4166 C44.0036,130.4166 45.5666,130.0826 47.0246,130.1246" id="Fill-18" fill="#93BCE0"></path>
                <path d="M45.1028,138.5464 C45.1028,138.5464 46.8998,138.5624 47.3838,138.5464 C47.8688,138.5304 48.9308,138.4054 49.4618,138.3904 C49.9938,138.3744 50.6648,138.7654 50.6498,139.0624 C50.6338,139.3584 48.8688,139.9994 47.7118,140.0154 C46.5558,140.0304 43.3528,138.5394 45.1028,138.5464" id="Fill-20" fill="#93BCE0"></path>
                <path d="M55.8684,145.8746 C55.8684,145.8746 58.0714,145.7966 58.8994,145.5466 C59.7274,145.2966 61.2124,144.6716 61.3214,145.0466 C61.4304,145.4216 59.9774,147.5156 56.9304,147.5936 C53.8844,147.6716 55.3054,145.8806 55.8684,145.8746" id="Fill-22" fill="#93BCE0"></path>
                <path d="M41.9621,121.9976 C42.5501,125.1876 43.4201,130.4146 43.4201,130.4146 C40.5871,130.8316 40.4201,131.4986 39.9621,131.6646 C39.5041,131.8316 36.6701,134.9146 41.3791,136.6646 C41.3791,136.6646 46.0241,138.4996 49.2741,140.4996 C52.5251,142.4996 55.4001,144.1246 56.5251,145.7496 C57.6501,147.3746 58.5041,150.9166 61.1701,161.0836 C63.8371,171.2506 73.9201,200.5006 75.7541,207.5836 C77.5871,214.6666 76.7541,228.3346 74.4201,228.0006 C72.0871,227.6666 67.9201,225.7506 62.2541,222.8336 C56.5871,219.9166 48.8371,217.8336 42.0041,216.5836 C35.1701,215.3336 26.8371,216.5846 24.9201,215.1676 C23.0041,213.7506 23.0041,208.6666 19.9201,195.8336 C16.8371,183.0006 12.5041,170.1666 9.0041,161.1666 C5.5041,152.1666 1.8371,142.8326 0.5041,138.1666 C-0.8299,133.5006 0.3371,135.4166 5.7541,126.9996 C11.1701,118.5836 19.1701,107.4996 22.1701,103.4996 C25.1701,99.4996 29.6701,95.0836 30.3371,94.4166 C31.0041,93.7496 32.4201,93.4166 33.4201,95.2496 C34.4201,97.0836 38.3371,102.3286 41.9621,121.9976" id="Fill-24" fill="#D02527"></path>
                <path d="M83.6052,166.8834 C73.1882,168.1744 63.1882,170.3834 59.7302,171.4254 C56.2722,172.4674 53.5222,175.6334 55.1052,179.5924 C56.6882,183.5514 61.3132,184.8424 61.3132,184.8424 C59.7722,185.1344 57.2722,187.4254 57.1882,190.3834 C57.3592,192.0124 58.5632,193.7174 61.0222,194.9254 C63.4802,196.1334 69.1882,195.4254 69.1882,195.4254 C69.1882,195.4254 67.5222,195.9674 67.8552,198.3004 C68.1882,200.6334 71.3972,200.5504 71.3972,200.5504 C73.7302,200.7174 83.4802,200.8004 89.8972,199.2164 C96.3132,197.6324 103.5222,191.9244 103.5222,191.9244 C103.5222,191.9244 108.4612,188.0584 106.7112,184.8084 C104.9612,181.5584 92.5172,165.5614 83.6052,166.8834" id="Fill-27" fill="#2E6CAD"></path>
                <path d="M313.4621,115.6871 C313.4621,115.6871 312.5871,116.2491 311.5871,115.2501 C310.5871,114.2501 311.7121,113.5621 312.2121,112.9371 C312.7121,112.3121 314.7121,110.8121 316.9621,110.3751 C319.2121,109.9371 321.5871,110.2501 321.5251,111.4371 C321.4621,112.6241 320.5241,112.6561 319.0241,113.0151 C317.5241,113.3741 314.1491,115.1251 313.4621,115.6871" id="Fill-29" fill="#93BCE0"></path>
                <path d="M313.0246,132.4839 C313.0246,132.4839 311.5246,132.2499 311.4626,131.4999 C311.3996,130.7499 312.8376,129.8119 314.3366,129.6249 C315.8376,129.4369 318.2116,129.2959 320.0246,131.0539 C321.8376,132.8119 321.5246,132.9609 320.8996,133.7609 C320.2746,134.5619 318.5866,133.2499 317.2116,132.9369 C315.8376,132.6249 314.3996,132.2179 313.0246,132.4839" id="Fill-31" fill="#93BCE0"></path>
                <path d="M189.5246,24.5621 C189.5246,24.5621 188.2126,25.3121 187.3996,23.9371 C186.5866,22.5621 187.8996,21.1241 188.4626,20.1251 C189.0246,19.1251 191.4936,16.4991 192.8526,15.1871 C194.2116,13.8741 198.0246,11.4991 198.5876,13.1241 C199.1496,14.7491 197.0866,14.9371 195.9616,15.8741 C194.8366,16.8121 191.8376,19.8751 191.0246,21.2491 C190.2116,22.6251 190.2746,23.8121 189.5246,24.5621" id="Fill-33" fill="#93BCE0"></path>
                <path d="M202.2746,21.7496 C202.2746,21.7496 201.6496,22.5616 200.3376,22.1246 C199.0246,21.6876 199.9616,20.6876 200.3376,19.9376 C200.7126,19.1866 204.4626,15.7496 206.3366,15.8126 C208.2116,15.8746 207.2116,17.3126 206.3366,17.9366 C205.4626,18.5616 202.7116,20.8746 202.2746,21.7496" id="Fill-35" fill="#93BCE0"></path>
                <path d="M75.7746,179.8121 C75.7746,179.8121 73.7436,180.3741 73.5866,179.5621 C73.4306,178.7501 74.5246,178.1251 74.9306,177.8431 C75.3376,177.5621 77.7436,176.5311 79.4936,176.5311 C81.2436,176.5311 81.7436,177.5621 81.4616,178.0311 C81.1806,178.5001 79.6806,178.6871 78.4936,179.0311 C77.3056,179.3751 76.6186,179.4061 75.7746,179.8121" id="Fill-37" fill="#93BCE0"></path>
                <path d="M78.2121,188.9996 C78.2121,188.9996 77.4581,188.9376 77.5541,187.9376 C77.6501,186.9366 79.1491,187.0626 79.8061,187.0626 C80.4621,187.0626 81.5251,186.9056 82.3061,186.4056 C83.0871,185.9056 84.0241,185.5306 84.4931,185.8746 C84.9621,186.2186 85.1181,187.4686 84.1811,188.3436 C83.2431,189.2186 79.4931,189.4056 78.2121,188.9996" id="Fill-39" fill="#93BCE0"></path>
                <path d="M12.4206,129.7437 C12.4206,129.7437 18.8376,120.9997 20.7536,118.5827 C22.6706,116.1657 25.5036,111.8327 27.3376,109.4997 C29.1706,107.1657 30.0876,104.9987 30.6706,105.4157 C31.2536,105.8327 34.1706,114.1657 35.5036,120.4157 C36.8376,126.6657 37.9206,135.4987 37.2536,135.8327 C36.5876,136.1667 29.8376,133.4987 25.5876,133.0827 C21.3376,132.6667 16.4206,131.7497 13.6706,131.7497 C10.9206,131.7497 11.7626,130.6397 12.4206,129.7437" id="Fill-41" fill="#FEFEFE"></path>
                <path d="M14.0871,136.4996 C14.0871,136.4996 11.6701,135.2486 14.0871,134.8326 C16.5041,134.4166 27.8371,136.5006 31.5041,137.4166 C35.1701,138.3326 40.8371,139.9166 42.3371,140.4166 C43.8371,140.9166 49.4201,143.7756 49.4201,144.9296 C49.4201,146.0826 44.1701,144.8336 42.3371,144.4166 C40.5041,143.9996 35.2541,141.9166 28.3371,140.6666 C21.4201,139.4166 14.9401,137.1166 14.0871,136.4996" id="Fill-43" fill="#FEFEFE"></path>
            </g>
            <g id="sb-1" transform="translate(100.000000, 123.000000)">
                <path d="M8.8791,42.7505 C8.8791,42.7505 3.7541,44.1675 1.6291,41.1675 C-0.4959,38.1675 1.2951,31.5835 1.6291,30.3755 C1.9621,29.1675 4.4211,19.2095 15.1711,13.0425 C25.9211,6.8755 33.1711,9.4545 34.8791,7.6445 C36.5871,5.8335 35.6081,2.2925 42.2431,1.1675 C48.8791,0.0425 49.8541,2.1855 50.7681,4.0795 C51.7961,6.2085 50.5871,8.7925 51.5041,9.7925 C51.5041,9.7925 52.2121,11.0835 54.1711,11.6255 C56.1291,12.1675 59.5041,13.3765 64.0871,16.9595 C68.6711,20.5425 71.5871,24.0415 72.7541,24.5005 C73.9211,24.9595 75.1291,23.5425 75.7541,22.5005 C76.3791,21.4585 79.0041,18.4155 81.8371,18.5625 C84.6701,18.7085 84.7111,20.7095 84.7951,22.1675 C84.8791,23.6255 83.1291,26.1665 84.3371,29.4585 C85.5451,32.7505 86.5871,33.1255 87.2121,33.6255 C87.8371,34.1255 90.4201,36.2085 87.5451,38.3335 C84.6701,40.4585 80.3781,39.2085 78.3371,38.5835 C76.2961,37.9585 74.5041,37.2085 74.1291,37.5005 C73.7541,37.7925 72.5041,40.4175 68.0871,45.1255 C63.6711,49.8335 55.7121,54.1675 47.5871,56.5005 C39.4621,58.8335 28.2961,58.3755 23.7961,57.7085 C19.2961,57.0415 14.5921,54.0065 14.4211,52.7505 C14.2961,51.8335 15.5461,51.5415 16.1711,51.3335 C16.7961,51.1255 19.2541,49.5005 21.5041,47.6255 C23.7541,45.7505 27.9621,38.4995 26.2541,36.5415 C25.7121,35.5835 23.4211,37.5415 20.7541,38.6665 C18.0871,39.7915 11.3811,42.4195 8.8791,42.7505" id="Fill-6" fill="#EAA5BC"></path>
                <path d="M46.4465,4.9214 C46.4465,4.9214 47.0245,4.6874 47.3525,5.0154 C47.6805,5.3434 47.6495,5.6404 47.3525,5.8584 C47.0555,6.0774 47.0875,5.9054 46.2595,6.5304 C45.4305,7.1554 45.2595,7.3124 44.9625,7.0624 C44.6655,6.8124 44.9625,6.2814 45.2125,6.0074 C45.4625,5.7334 46.1965,5.0774 46.4465,4.9214" id="Fill-45" fill="#B55E4B"></path>
                <path d="M40.3059,7.5308 C40.3059,7.5308 40.0559,7.3748 40.3059,6.8438 C40.5559,6.3118 41.1969,5.2648 41.6029,5.5148 C42.0089,5.7648 41.9619,6.1488 41.6649,6.5038 C41.3679,6.8588 40.9309,7.6548 40.6179,7.6398 C40.3059,7.6248 40.5089,7.7028 40.3059,7.5308" id="Fill-47" fill="#B55E4B"></path>
                <path d="M32.7434,38.4683 C32.7434,38.4683 33.5554,37.4373 33.4624,35.8123 C33.3684,34.1873 33.3374,33.9993 32.9624,33.1243 C32.5874,32.2493 32.9454,32.0623 33.4694,32.0933 C33.9934,32.1243 35.6494,31.4993 36.5244,30.6243 C37.3994,29.7493 38.2124,29.0933 39.2744,29.5933 C40.3374,30.0933 39.3054,31.9373 39.5874,32.3433 C39.8684,32.7493 42.1814,32.4373 42.2434,34.4373 C42.1814,36.2183 40.5554,35.2803 40.4934,36.9993 C40.4934,36.9993 40.3684,37.4683 41.0244,38.3123 C41.6814,39.4373 41.2744,41.1713 40.1494,41.4683 C39.0244,41.7653 38.1144,41.4143 36.3524,40.8373 C33.6964,39.6093 34.0094,39.4373 32.7434,39.0623 C32.0244,38.9213 32.5774,38.7263 32.7434,38.4683" id="Fill-49" fill="#B55E4B"></path>
                <path d="M76.4778,28.2652 C76.4778,28.2652 76.1808,28.2652 76.0248,27.8122 C75.8688,27.3592 76.3838,27.3592 76.6338,27.2652 C76.8838,27.1712 77.6808,26.7342 78.0868,26.4682 C78.4938,26.2022 79.1658,25.4522 79.4468,25.5622 C79.7278,25.6712 80.4308,26.0772 79.8528,26.7492 C79.2748,27.4212 78.9618,27.9992 76.4778,28.2652" id="Fill-51" fill="#B55E4B"></path>
                <path d="M77.9153,31.5621 C77.5563,31.5621 77.5243,31.3751 77.5093,31.0781 C77.4933,30.7811 78.2123,30.6561 78.8373,30.6711 C79.4623,30.6871 80.3533,31.0781 80.1963,31.6711 C80.0403,32.2651 79.5713,32.2491 79.3523,32.0781 C79.1343,31.9061 78.2743,31.5621 77.9153,31.5621" id="Fill-53" fill="#B55E4B"></path>
                <path d="M78.384,35.7964 C78.384,35.7964 77.915,35.4054 77.9,35.0774 C77.884,34.7494 78.306,34.9684 78.493,35.0774 C78.681,35.1874 79.259,35.6244 79.884,35.8904 C80.509,36.1554 81.54,36.2964 81.478,36.5774 C81.415,36.8584 81.259,37.3584 80.618,37.2654 C79.978,37.1714 78.708,36.1434 78.384,35.7964" id="Fill-55" fill="#B55E4B"></path>
                <path d="M11.8996,29.563 C11.8996,30.279 11.3186,30.86 10.6026,30.86 C9.8866,30.86 9.3056,30.279 9.3056,29.563 C9.3056,28.847 9.8866,28.266 10.6026,28.266 C11.3186,28.266 11.8996,28.847 11.8996,29.563" id="Fill-81" fill="#231916"></path>
            </g>
            <g id="sb-2" transform="translate(161.000000, 81.000000)">
                <path d="M5.5456,27.2032 C4.6806,27.6872 3.2126,27.8432 2.5036,27.4912 C0.9626,27.1662 0.5456,23.6242 0.5876,21.4992 C0.6286,19.3742 2.4626,15.9582 5.0456,13.2492 C7.6286,10.5412 11.9206,8.8742 13.2126,7.7912 C14.5036,6.7082 15.1286,5.4582 15.1706,4.8332 C15.2126,4.2082 16.7536,1.3332 20.5876,0.7492 C24.4206,0.1662 24.1286,2.1662 24.2956,3.2082 C24.4626,4.2502 25.5456,4.2492 26.0876,4.5412 C26.0876,4.5412 29.0876,4.7912 32.1286,6.3332 C35.1706,7.8742 36.8376,10.6252 37.6286,10.3332 C38.4206,10.0412 39.7536,8.7082 41.3376,8.1242 C42.9206,7.5412 44.0036,7.9582 44.6286,8.5832 C45.2536,9.2082 45.1286,10.8332 44.2956,12.2492 C43.4626,13.6662 44.0036,14.3742 44.3376,14.9162 C44.6706,15.4582 46.0036,16.6242 45.7956,18.4162 C45.5876,20.2082 43.8366,20.3302 43.0456,20.3102 C42.2536,20.2912 40.7756,19.8122 40.2336,19.4372 C39.6916,19.0622 39.3376,18.8542 38.7956,19.2702 C38.7956,19.2702 38.3056,19.8742 37.3996,21.5312 C36.4936,23.1872 33.9626,27.1872 29.0246,29.5932 C24.0876,31.9992 17.2436,32.3122 13.6806,32.2812 C10.1186,32.2492 10.8686,30.9372 10.8686,30.6562 C10.8686,30.3742 12.7746,28.5932 13.4936,26.9062 C14.2126,25.2182 13.3056,23.1242 12.2126,22.8742 C11.1186,22.6242 6.4106,26.7192 5.5456,27.2032" id="Fill-4" fill="#A5C53E"></path>
                <path d="M17.0041,20.7706 C17.8161,20.5206 18.7121,20.5836 19.0251,20.4056 C19.3371,20.2286 19.7131,20.2706 20.0041,20.7706 C20.2951,21.2706 20.3581,21.7496 20.6501,22.0416 C20.9421,22.3326 21.6911,22.9996 21.7121,23.3956 C21.7331,23.7916 21.5251,23.9996 21.4621,24.4586 C21.4001,24.9166 20.7131,26.3956 19.3581,26.9376 C18.0041,27.4786 16.8581,27.0826 16.5041,26.7286 C16.1501,26.3746 16.1071,25.9996 15.7331,25.8746 C15.3581,25.7496 15.1291,24.9376 15.1291,24.4376 C15.1291,23.9376 14.4001,23.8956 14.8371,22.8126 C15.2751,21.7286 16.1921,21.0206 17.0041,20.7706" id="Fill-79" fill="#597F4B"></path>
                <path d="M9.112,19.0464 C9.112,19.7974 8.504,20.4054 7.753,20.4054 C7.002,20.4054 6.393,19.7974 6.393,19.0464 C6.393,18.2954 7.002,17.6874 7.753,17.6874 C8.504,17.6874 9.112,18.2954 9.112,19.0464" id="Fill-83" fill="#231916"></path>
            </g>
            <g id="sb-3" transform="translate(207.000000, 117.000000)">
                <path d="M5.7131,32.7496 C5.7131,32.7496 3.5451,33.5846 2.6291,32.4586 C1.7131,31.3326 0.7131,29.0416 0.9631,24.7496 C1.2131,20.4576 5.5871,16.4996 7.0041,15.2076 C8.4211,13.9166 11.9201,11.4576 13.5041,10.5416 C15.0881,9.6246 17.6291,9.1316 18.5041,6.8366 C19.3791,4.5416 20.5051,2.1246 24.2131,0.9576 C27.9211,-0.2084 32.0051,2.3326 31.4631,5.4576 C31.4631,5.4576 31.2541,6.1736 32.2961,6.8366 C33.3381,7.4996 37.3391,7.9576 40.5051,9.4996 C43.6711,11.0416 47.3791,15.3436 48.1711,15.4836 C48.9631,15.6246 49.3381,14.2076 52.9631,12.3326 C56.5881,10.4576 58.9221,11.7496 59.5051,12.8746 C60.0881,13.9996 60.1301,15.5426 58.3801,17.4586 C56.6301,19.3746 58.6721,20.9166 59.0051,21.2916 C59.3381,21.6666 62.4641,24.1656 61.1301,26.4996 C59.7961,28.8336 55.6301,28.1656 54.3381,27.9996 C53.0461,27.8336 50.3371,25.9996 49.6711,26.4996 C49.0051,26.9996 48.7971,27.4166 47.6301,29.0416 C46.4631,30.6666 39.9621,37.2076 34.1711,39.4166 C28.3801,41.6256 24.8371,41.6256 22.1711,41.7506 C19.5051,41.8756 15.6721,41.0416 13.8381,40.4586 C12.0041,39.8756 11.7541,38.9176 12.5461,38.1256 C13.3381,37.3336 15.2131,35.0426 15.8381,33.8756 C16.4631,32.7086 17.6721,29.5846 17.7131,28.2926 C17.7541,27.0006 17.2541,26.4176 16.6291,26.7506 C16.0041,27.0836 12.2541,30.0006 10.7961,30.6256 C9.3381,31.2506 6.7961,32.4886 5.7131,32.7496" id="Fill-10" fill="#93CAD8"></path>
                <path d="M25.0041,26.7291 C25.0041,26.7291 24.6501,25.7291 24.8171,25.3541 C24.9831,24.9791 26.4011,23.7911 27.2551,23.3541 C28.1081,22.9161 29.9631,22.1671 30.7131,23.0001 C31.4631,23.8331 31.1091,24.6041 31.0051,25.1671 C30.9001,25.7291 31.1911,26.1881 31.5461,26.4791 C31.9001,26.7701 32.5871,28.0201 31.5461,28.7501 C30.5051,29.4791 30.9001,29.7291 30.9831,29.8541 C31.0671,29.9791 31.9421,31.3541 30.0251,32.1871 C28.1081,33.0201 26.4421,31.7081 25.9631,31.2701 C25.4831,30.8331 25.1501,30.5421 25.4001,29.6251 C25.6501,28.7081 25.1371,27.1811 25.0041,26.7291" id="Fill-57" fill="#4FABC3"></path>
                <path d="M22.6506,6.5826 C22.6506,6.5826 22.7336,6.8746 23.0256,6.8326 C23.3176,6.7906 23.5246,6.3956 23.4836,6.0206 C23.4426,5.6456 23.3836,4.6246 23.0696,4.6246 C22.7546,4.6246 22.5886,4.9366 22.6506,5.3746 C22.7126,5.8116 22.4636,6.0616 22.6506,6.5826" id="Fill-59" fill="#4FABC3"></path>
                <path d="M25.9631,5.8951 C25.9631,5.8951 26.0051,6.2491 26.2131,6.3121 C26.4211,6.3741 26.6921,6.3161 26.9631,5.7301 C27.2341,5.1451 27.4211,4.7491 27.5251,4.5201 C27.6301,4.2911 27.6511,3.8121 27.1921,3.6871 C26.7341,3.5621 26.6511,3.8741 26.4421,4.0831 C26.2341,4.2911 26.0461,5.3951 25.9631,5.8951" id="Fill-61" fill="#4FABC3"></path>
                <path d="M53.0871,16.6871 C53.0871,16.6871 52.6911,16.8531 52.4621,16.6871 C52.2331,16.5211 52.6081,16.1871 52.7751,15.9161 C52.9411,15.6461 53.7751,14.4581 54.1291,14.3121 C54.4831,14.1661 54.9631,14.1041 55.1291,14.5831 C55.2951,15.0621 54.9831,15.2711 54.6701,15.3961 C54.3581,15.5211 53.3581,16.5201 53.0871,16.6871" id="Fill-63" fill="#4FABC3"></path>
                <path d="M51.5871,19.3541 C51.5871,19.3541 51.1501,19.8751 51.5871,19.9161 C52.0241,19.9581 52.8991,19.7911 53.2121,19.7291 C53.5241,19.6661 55.4621,19.2921 55.4621,18.7711 C55.4621,18.2501 55.0241,18.3751 54.5451,18.3751 C54.0661,18.3751 51.9411,19.0421 51.5871,19.3541" id="Fill-65" fill="#4FABC3"></path>
                <path d="M53.2951,23.7086 C53.2951,23.7086 53.1081,23.4166 53.2951,23.0416 C53.4821,22.6666 53.8791,23.0206 54.0041,23.1666 C54.1291,23.3126 54.9201,23.6466 55.2741,23.7086 C55.6291,23.7706 56.9411,23.9596 56.8371,24.7506 C56.7331,25.5416 55.7331,25.3956 54.8161,25.0416 C53.8991,24.6876 53.5861,24.0206 53.2951,23.7086" id="Fill-67" fill="#4FABC3"></path>
                <path d="M10.0871,23.3277 C10.0871,24.0097 9.5341,24.5617 8.8531,24.5617 C8.1711,24.5617 7.6181,24.0097 7.6181,23.3277 C7.6181,22.6457 8.1711,22.0937 8.8531,22.0937 C9.5341,22.0937 10.0871,22.6457 10.0871,23.3277" id="Fill-85" fill="#231916"></path>
            </g>
            <g id="sb-4" transform="translate(168.000000, 166.000000)">
                <path d="M3.2541,29.0836 C3.2541,29.0836 1.1291,29.7916 0.6711,28.0836 C0.2121,26.3756 -0.2879,24.2916 0.4621,21.9586 C1.2121,19.6256 3.7541,15.8336 6.3371,13.5836 C8.9201,11.3336 12.9201,9.5426 15.2951,8.6256 C17.6701,7.7086 17.9621,8.5836 19.2121,5.4586 C20.4621,2.3336 23.9621,-0.2504 27.9621,0.8336 C31.9621,1.9176 31.0881,5.4966 31.5461,5.9366 C32.0041,6.3756 36.0461,7.5836 38.2541,9.2086 C40.4621,10.8336 42.7951,14.1666 43.7121,14.2086 C44.6291,14.2506 44.5031,13.8766 45.0871,12.9176 C45.6711,11.9586 48.3371,9.9586 50.2121,10.3756 C52.0871,10.7926 52.6291,12.0426 52.3791,13.4176 C52.1291,14.7926 51.3371,16.2096 51.3371,17.2926 C51.3371,18.3756 51.8801,18.5426 53.0461,20.2506 C54.2121,21.9586 54.5051,23.8746 52.7961,24.4586 C51.0871,25.0426 49.1701,25.0836 47.2121,24.1256 C45.2541,23.1676 45.2531,24.7506 44.9621,25.3756 C44.6711,26.0006 43.3791,30.0836 40.0041,32.7086 C36.6291,35.3336 32.1301,37.3336 24.0461,38.7086 C15.9621,40.0836 11.2551,37.5426 9.4211,37.0006 C7.5871,36.4586 6.8371,35.5836 7.9211,34.5836 C9.0041,33.5836 11.7951,30.6666 12.4621,27.5836 C13.1291,24.5006 12.0861,25.7926 11.6701,25.9176 C11.2541,26.0426 4.7121,28.7086 3.2541,29.0836" id="Fill-8" fill="#E9CA2B"></path>
                <path d="M19.7541,28.2496 C19.7541,28.2496 18.5241,28.4996 18.5451,29.8116 C18.5671,31.1246 19.9621,31.0206 19.9001,31.2076 C19.8371,31.3956 19.5911,32.2286 19.9011,32.6866 C20.2121,33.1456 20.7131,33.0416 21.5041,33.3746 C22.2951,33.7076 21.5861,34.3326 22.8581,34.3116 C24.1291,34.2916 25.6291,32.5626 25.9001,32.1666 C26.1701,31.7706 26.4621,30.4166 26.2751,30.0416 C26.0871,29.6666 25.1291,28.0826 24.4621,27.3956 C23.7951,26.7076 23.3371,25.9786 23.0251,26.1036 C22.7121,26.2286 22.2541,26.7906 21.7541,27.0826 C21.2541,27.3746 20.2851,28.0146 19.7541,28.2496" id="Fill-69" fill="#E37832"></path>
                <path d="M24.2746,5.9166 C24.2746,5.9166 23.8996,5.8546 24.2746,5.3746 C24.6496,4.8956 24.6916,4.3736 25.2116,4.6456 C25.7326,4.9166 25.1086,5.2706 25.0246,5.4796 C24.9406,5.6876 24.6496,6.0206 24.2746,5.9166" id="Fill-71" fill="#E37832"></path>
                <path d="M27.5031,5.8326 C27.5031,5.8326 27.1491,5.3756 27.5031,4.9786 C27.8571,4.5826 28.1491,4.3956 28.3371,4.1666 C28.5241,3.9366 29.3991,4.2676 29.1901,4.5706 C28.9821,4.8746 28.7321,5.2916 28.4821,5.4996 C28.2321,5.7076 27.8991,6.0406 27.5031,5.8326" id="Fill-73" fill="#E37832"></path>
                <path d="M47.0451,16.9996 C47.0451,16.9996 46.7111,17.1866 46.3581,16.9996 C46.0041,16.8126 46.3791,16.4366 46.5661,16.2706 C46.7541,16.1036 48.1081,14.8126 48.5661,15.0416 C49.0241,15.2706 49.2541,15.5626 48.9411,15.9166 C48.6291,16.2706 47.4411,16.7496 47.0451,16.9996" id="Fill-75" fill="#E37832"></path>
                <path d="M47.2326,19.5826 C47.2326,19.5826 46.9406,19.3116 46.9826,18.9996 C47.0246,18.6866 47.5246,18.8956 47.8366,18.9996 C48.1496,19.1036 49.4616,19.8116 49.4206,20.3946 C49.3786,20.9786 48.8586,21.2286 48.5666,21.1866 C48.2746,21.1446 47.7116,19.9366 47.2326,19.5826" id="Fill-77" fill="#E37832"></path>
                <path d="M8.1154,21.3814 C8.1154,22.1374 7.5034,22.7494 6.7474,22.7494 C5.9914,22.7494 5.3794,22.1374 5.3794,21.3814 C5.3794,20.6254 5.9914,20.0134 6.7474,20.0134 C7.5034,20.0134 8.1154,20.6254 8.1154,21.3814" id="Fill-87" fill="#231916"></path>
            </g>
            <g id="sb-bs" transform="translate(94.000000, 186.000000)" fill="#844C32">
                <path d="M83.6945,36.7349 C83.6945,36.7349 82.4445,34.7349 82.6945,33.4849 C82.9445,32.2349 84.1315,32.1099 85.0065,31.9229 C85.8825,31.7349 86.7575,32.5479 87.0695,34.3289 C87.3825,36.1099 87.9445,39.1729 88.6945,40.6729 C89.4445,42.1719 89.8815,45.1729 90.0695,46.1729 C90.2565,47.1729 91.2565,48.8599 91.9445,49.2349 C92.6325,49.6099 93.1945,49.4229 93.8195,48.5479 C94.4445,47.6729 95.4445,46.7979 95.8195,45.9849 C96.1945,45.1729 96.7575,44.4219 97.6945,43.5469 C98.6325,42.6719 100.8195,40.1099 101.5065,40.0479 C102.1945,39.9849 102.9445,41.1099 103.0065,41.7349 C103.0695,42.3599 101.8815,43.8599 101.5695,44.6099 C101.2565,45.3599 99.1325,47.1099 98.3825,47.9229 C97.6325,48.7349 97.2575,49.7349 97.3825,50.3599 C97.5075,50.9849 98.6945,52.7349 100.1945,54.2969 C101.6945,55.8599 104.1945,58.2969 105.1945,59.1719 C106.1945,60.0469 107.0065,60.9219 106.1945,62.1099 C105.3815,63.2969 104.0065,61.9849 102.8195,60.9219 C101.6315,59.8599 98.2575,56.6719 97.7575,56.1099 C97.2575,55.5469 95.3195,53.2599 94.8195,53.7159 C94.3195,54.1719 93.7575,55.0999 93.8825,56.9179 C94.0075,58.7349 94.7575,60.2969 95.1945,61.1099 C95.6325,61.9219 96.6325,63.0469 96.6325,63.9849 C96.6325,64.9219 96.1185,66.1719 94.5945,66.6719 C93.0695,67.1719 91.3815,66.4219 90.6945,64.6099 C90.0065,62.7969 89.5065,59.0589 89.1945,57.9909 C88.8815,56.9219 88.6945,54.4279 88.5065,53.6439 C88.3195,52.8599 87.8195,51.7979 87.5695,50.7979 C87.3195,49.7979 86.4445,48.2979 86.4445,47.8599 C86.4445,47.4229 86.1945,44.9849 86.0695,44.4849 C85.9445,43.9849 85.0695,41.6719 84.7565,40.9219 C84.4445,40.1729 84.0695,37.4189 83.6945,36.7349" id="Fill-89"></path>
                <path d="M142.6945,16.9849 C142.6945,16.9849 144.5065,17.8599 145.0695,18.9219 C145.6325,19.9849 147.0695,22.0469 147.6315,23.4219 C148.1945,24.7969 149.7565,24.5469 150.6315,24.2969 C151.5075,24.0469 152.6325,22.6099 151.8825,19.7349 C151.1325,16.8599 148.1315,14.1719 146.8195,13.2349 C145.5075,12.2979 141.6945,10.1729 138.8195,9.9229 C135.9445,9.6729 132.3815,11.1099 130.6315,12.6729 C128.8815,14.2349 126.4445,16.9229 125.8825,20.4229 C125.3195,23.9219 125.6325,27.4229 128.0695,31.4229 C130.5065,35.4219 132.8195,37.1719 135.0075,37.9219 C137.1945,38.6719 138.6325,39.6099 141.0075,39.5469 C143.3815,39.4849 145.5075,41.7349 146.1325,42.6719 C146.7565,43.6099 147.3815,46.4849 147.5065,48.4849 C147.6315,50.4849 147.2565,53.6729 144.7575,55.4849 C142.2575,57.2979 140.8195,58.0439 138.1945,58.1079 C135.5695,58.1729 134.6945,57.3599 132.8815,56.6729 C131.0695,55.9849 129.5695,56.1099 128.0065,54.5479 C126.4445,52.9849 124.6325,49.7979 124.0695,48.2969 C123.5075,46.7969 123.2575,45.9219 121.3825,46.1719 C119.5075,46.4219 119.1325,48.7509 119.1325,49.9619 C119.1325,51.1729 119.6945,53.7979 121.0075,55.4229 C122.3195,57.0479 124.0075,58.5479 125.3195,59.4229 C126.6325,60.2979 129.4445,61.8599 130.7565,62.1099 C132.0695,62.3599 134.6905,63.3599 135.6305,63.7349 C136.5695,64.1099 139.7565,64.4849 143.6945,64.4229 C147.6315,64.3599 149.4445,62.6729 150.1315,62.2349 C150.8195,61.7979 153.1325,59.3599 153.4445,58.3599 C153.7575,57.3599 155.1945,54.2979 155.3195,52.4229 C155.4445,50.5479 155.0695,46.4849 154.0695,42.9219 C153.0695,39.3599 151.0075,36.4219 148.5695,34.9849 C146.1325,33.5469 143.0695,33.9219 140.0695,33.5469 C137.0695,33.1719 135.4445,31.6729 135.5075,30.2979 C135.5695,28.9229 134.3195,29.2979 134.8825,25.1099 C135.4445,20.9229 134.5065,18.8599 136.8195,17.4849 C139.1315,16.1099 142.0015,16.5949 142.6945,16.9849" id="Fill-91"></path>
                <path d="M159.6945,31.3599 C159.6945,31.3599 158.7575,30.3599 158.7575,28.7969 C158.7575,27.2349 160.3195,27.7969 160.9445,28.1099 C161.5695,28.4219 162.6325,30.1729 163.0695,31.3599 C163.5075,32.5469 163.5075,34.1099 164.8195,34.2979 C166.1315,34.4849 167.3195,33.6099 168.2575,33.4229 C169.1945,33.2349 170.1945,32.9219 170.4445,33.7979 C170.6945,34.6729 169.5695,36.2349 168.6945,36.7349 C167.8195,37.2349 167.3195,36.2349 165.5065,37.7969 C163.6945,39.3599 165.1315,40.5479 165.2565,41.1099 C165.3815,41.6729 165.8195,43.5479 166.8195,43.6099 C167.8195,43.6729 168.4445,42.9229 169.5075,42.0479 C170.5695,41.1729 172.0075,40.6099 172.8195,39.5479 C173.6325,38.4849 174.6945,38.0469 175.6945,38.9219 C176.6945,39.7979 175.5695,41.2349 175.1325,41.6729 C175.1325,41.6729 174.4135,42.4539 174.1635,42.5479 C173.9135,42.6409 173.3195,43.0869 172.6945,43.6139 C172.0695,44.1409 170.3505,45.5479 168.4135,46.5789 C166.4755,47.6099 165.5385,47.6409 164.3815,46.5789 C163.2255,45.5159 162.1945,43.7659 162.1945,43.3289 C162.1945,42.8909 162.1945,41.6409 161.9755,41.1099 C161.7575,40.5789 160.9755,39.6409 160.3505,39.5479 C159.7255,39.4539 157.8505,39.5159 157.1635,39.5159 C156.4755,39.5159 155.8815,38.6099 155.7885,38.2349 C155.6945,37.8599 156.5065,37.1099 156.9755,36.7969 C157.4445,36.4849 158.4445,36.7969 158.8505,36.7659 C159.2575,36.7349 160.2565,35.7969 160.4135,35.0479 C160.5695,34.2979 160.3505,33.1099 160.2255,32.6409 C160.1005,32.1719 160.0185,31.8029 159.6945,31.3599" id="Fill-93"></path>
                <path d="M196.132,28.8912 C196.132,28.8912 193.913,26.3912 193.382,25.4532 C192.851,24.5162 192.288,23.1412 192.163,22.6722 C192.038,22.2042 190.851,20.7972 190.382,19.9222 C189.913,19.0472 189.882,18.6722 189.476,17.6102 C189.07,16.5472 188.913,15.6722 189.288,15.0782 C189.663,14.4852 190.632,14.3282 191.163,15.0782 C191.695,15.8282 192.694,17.8282 193.101,18.2352 C193.507,18.6412 194.538,18.7972 195.132,18.5162 C195.726,18.2352 197.351,16.6722 198.038,16.1412 C198.726,15.6102 199.601,15.0472 200.663,15.2032 C201.726,15.3602 202.976,16.5472 202.976,17.0162 C202.976,17.4852 202.226,18.2972 201.476,18.3282 C200.726,18.3602 199.32,18.7352 198.695,19.6102 C198.069,20.4852 197.882,20.6102 197.819,21.1102 C197.757,21.6102 197.726,22.9542 198.195,23.9852 C198.663,25.0162 199.226,26.1412 199.476,26.7662 C199.726,27.3912 200.382,28.2662 200.476,28.7042 C200.569,29.1412 200.382,30.3282 199.976,30.6412 C199.57,30.9542 198.726,30.9852 198.038,30.4532 C197.351,29.9222 196.591,29.4162 196.132,28.8912" id="Fill-95"></path>
                <path d="M208.7268,3.7037 C208.7268,3.7037 208.6328,4.1727 207.5078,4.1727 C206.3828,4.1727 205.8828,3.2347 205.5708,2.9847 C205.2578,2.7347 205.0708,1.9227 204.5398,1.3287 C204.0068,0.7347 203.6638,0.3597 202.6638,0.9227 C201.6638,1.4847 202.0698,2.2347 202.1638,3.0167 C202.2568,3.7977 203.2568,4.7347 203.4758,5.0787 C203.6948,5.4227 203.8508,5.8597 203.5068,6.4227 C203.1638,6.9847 201.6948,8.2347 200.9758,9.0787 C200.2568,9.9227 200.7258,10.6097 201.3198,10.6727 C201.9138,10.7347 202.3198,10.8907 202.9758,10.6727 C203.6318,10.4537 204.0188,10.0477 204.6688,10.3287 C205.3208,10.6097 206.0708,12.2037 206.4768,12.9847 C206.8828,13.7667 208.5398,16.6097 209.1958,17.4537 C209.8518,18.2977 210.7898,19.1417 212.0398,19.1417 C213.2888,19.1417 214.5708,19.1727 215.6958,18.6417 C216.8208,18.1097 217.9458,17.4227 218.4768,16.8287 C219.0078,16.2347 219.9768,15.2237 220.4768,14.5727 C220.9768,13.9227 221.5708,13.5167 221.6958,12.9847 C221.8208,12.4537 222.0078,12.2347 221.8828,11.6097 C221.7578,10.9847 221.3208,10.3597 220.6958,10.2977 C220.0708,10.2347 218.9768,11.2657 218.5708,11.7667 C218.1648,12.2667 218.2898,12.6417 218.0078,13.0167 C217.7268,13.3917 217.0398,13.9227 216.1958,14.7977 C215.3518,15.6727 214.7578,15.9537 213.6638,15.9847 C212.5708,16.0167 211.6648,15.6607 210.8208,14.5727 C209.9768,13.4847 208.4768,8.5157 208.5708,8.2347 C208.6648,7.9537 210.1638,6.5787 210.9148,5.8287 C211.6648,5.0787 213.3518,3.6727 213.3828,3.2347 C213.4138,2.7977 213.3518,2.2037 213.1018,1.6407 C212.8518,1.0787 212.1328,0.9537 211.5398,1.1727 C210.9458,1.3907 209.3828,3.0787 208.7268,3.7037" id="Fill-97"></path>
                <path d="M45.5075,25.1724 C44.6955,28.1724 43.6955,28.2974 42.6325,29.2344 C41.5695,30.1724 38.3825,32.9844 36.5695,33.1094 C34.7575,33.2354 32.1945,33.1724 29.0705,31.1094 C25.9455,29.0474 23.5705,26.7344 23.6325,25.6094 C23.6955,24.4854 24.5425,23.0924 24.9455,22.2974 C24.9455,22.2974 27.2575,17.4854 29.2575,15.9844 C31.2575,14.4844 33.3195,13.5474 35.6325,13.8594 C37.9455,14.1724 41.1325,15.7994 42.8825,18.0484 C44.6325,20.2974 46.3195,22.1724 45.5075,25.1724 M33.7575,48.2974 C33.2575,49.2974 31.3195,52.6724 29.9445,53.6724 C28.5705,54.6724 22.4455,57.9224 17.7575,56.6094 C13.0695,55.2974 10.5695,50.3594 10.3825,47.5474 C10.1945,44.7344 12.5075,43.9844 13.0075,42.4224 C13.5075,40.8604 14.2575,39.7974 14.8205,39.3604 C15.3825,38.9224 17.0705,38.0474 17.7575,35.4854 C17.7575,35.4854 18.3205,33.2504 19.5075,33.1494 C20.6955,33.0474 24.0075,33.7744 25.2575,34.3174 C26.5075,34.8604 30.3195,36.6724 32.1945,38.1104 C34.0695,39.5474 35.8195,40.6724 35.6945,43.6724 C35.5695,46.6724 34.2575,47.2974 33.7575,48.2974 M51.3195,18.5474 C50.4445,15.4224 47.0075,13.4224 45.6325,12.6094 C44.2575,11.7974 41.6945,9.9844 41.0075,9.2974 C40.3205,8.6104 37.7575,7.1724 36.6325,6.6104 C35.5075,6.0474 34.0695,4.6104 32.1945,4.6724 C30.3195,4.7354 28.8825,6.7354 28.1955,7.8604 C27.5075,8.9854 26.8205,10.1724 25.8825,10.9224 C24.9455,11.6724 23.8825,12.9844 23.3825,13.7974 C22.8825,14.6094 22.4455,15.6724 21.3825,17.1094 C20.3205,18.5474 18.7575,21.1724 18.7575,21.1724 C17.6495,22.9724 17.3205,24.6104 16.0705,27.1724 C14.8205,29.7344 11.6945,33.8604 10.3825,35.2974 C9.0695,36.7354 7.0695,39.1104 6.4445,40.8604 C5.8195,42.6094 4.0075,44.3594 2.8195,45.6094 C1.6325,46.8594 1.1325,48.4224 0.3825,49.6094 C-0.3675,50.7974 0.7575,53.3594 5.1325,56.5474 C9.5075,59.7354 13.5705,62.1104 18.0075,63.0474 C22.4455,63.9854 25.4455,63.2974 30.1325,60.9224 C34.8195,58.5474 37.0075,54.7974 37.8825,53.6094 C38.7575,52.4224 40.1325,49.6094 41.0075,47.9224 C41.8825,46.2344 42.1945,43.1724 41.9445,41.7974 C41.6945,40.4224 40.4455,38.0474 40.4455,37.2974 C40.4455,36.5474 41.8825,36.1724 43.0695,35.5474 C44.2575,34.9224 46.1945,33.6724 47.1325,32.6094 C48.0705,31.5474 51.3825,28.4224 52.0695,26.0474 C52.7575,23.6724 52.1945,21.6724 51.3195,18.5474" id="Fill-99"></path>
                <path d="M55.8825,57.4224 C54.1955,58.6094 51.6955,58.9844 50.1325,57.7344 C48.5705,56.4854 49.0575,55.2374 49.2575,54.4844 C49.2575,54.4844 49.7575,52.1104 50.8825,50.9224 C52.0075,49.7354 52.9445,48.9224 55.0705,48.9224 C57.1945,48.9224 59.5705,49.5474 59.6325,51.7034 C59.6955,53.8594 57.5695,56.2354 55.8825,57.4224 M62.8825,51.3604 C62.6325,48.3594 59.9445,46.4224 58.3205,45.6724 C56.6945,44.9224 52.7575,44.8594 50.8205,45.2974 C48.8825,45.7344 46.8195,47.6094 46.8195,47.6094 C45.9445,48.7974 44.8195,50.6724 44.8825,53.2594 C44.9445,55.8464 45.3825,57.4844 46.2575,58.5474 C47.1325,59.6104 48.7575,61.3604 51.9445,61.4224 C55.1325,61.4844 56.6945,61.9224 59.8825,59.5474 C63.0695,57.1724 63.1325,54.3594 62.8825,51.3604" id="Fill-101"></path>
                <path d="M81.1325,57.3599 C80.9455,59.9229 80.8825,60.0649 79.0695,61.4939 C77.2575,62.9219 75.3205,62.9399 74.4455,61.4939 C73.5705,60.0479 73.6955,58.5099 73.6955,58.5099 C73.6955,58.5099 73.3205,56.9849 74.3205,55.7979 C75.3205,54.6099 76.0075,53.3229 78.1325,53.7159 C80.2575,54.1099 81.3195,54.7969 81.1325,57.3599 M84.1945,54.6099 C84.0695,53.8599 82.8195,52.7349 81.1945,51.7349 C79.5705,50.7349 77.5695,50.2979 76.3205,50.0479 C75.0705,49.7979 73.7575,50.1099 72.3195,50.7979 C70.8825,51.4849 69.9445,52.9229 68.6945,54.2969 C67.4445,55.6729 68.0075,57.3599 68.0075,57.3599 C68.5075,61.0479 70.4445,63.9219 71.6945,64.8599 C72.9445,65.7979 75.3205,66.2979 77.5075,65.8599 C79.6955,65.4229 82.5075,63.1719 83.5695,61.8599 C84.6325,60.5479 84.3195,55.3599 84.1945,54.6099" id="Fill-103"></path>
                <path d="M184.132,33.1099 C183.695,33.7659 182.538,34.8909 181.569,34.6409 C180.601,34.3909 179.601,33.0789 179.288,32.6409 C178.976,32.2039 178.678,31.1389 178.601,30.5789 C178.601,30.5789 178.413,30.2349 178.601,29.6409 C178.788,29.0479 179.57,28.2349 180.132,28.2039 C180.694,28.1729 181.944,28.2979 182.851,29.5789 C183.757,30.8599 184.569,32.4539 184.132,33.1099 M194.382,32.3289 C194.101,31.9849 193.32,30.6099 192.101,30.4539 C190.882,30.2969 189.882,30.6719 188.351,29.9219 C186.82,29.1719 185.944,28.2349 185.476,27.1409 C185.476,27.1409 184.07,25.2979 183.726,25.1409 C183.382,24.9849 182.257,24.8599 181.819,24.7349 C181.382,24.6099 179.507,24.2349 178.195,25.2039 C176.882,26.1729 175.632,27.4849 175.319,29.0789 C175.007,30.6719 175.319,32.6409 175.944,33.6409 C176.57,34.6409 177.601,36.1729 179.195,37.0479 C180.788,37.9219 182.82,38.1719 183.695,37.7349 C184.569,37.2969 186.132,35.8909 186.257,35.5479 C186.382,35.2039 187.507,34.0789 187.913,33.7659 C188.319,33.4539 189.882,33.3599 190.632,33.3909 C191.382,33.4219 192.382,34.0469 193.226,33.8289 C194.07,33.6099 194.663,32.6729 194.382,32.3289" id="Fill-105"></path>
            </g>
        </g>
    </g>
</svg>