<?xml version="1.0" encoding="UTF-8"?>
<svg width="24px" height="24px" viewBox="0 0 24 24" version="1.1" xmlns="http://www.w3.org/2000/svg" xmlns:xlink="http://www.w3.org/1999/xlink">
    <!-- Generator: Sketch 46.2 (44496) - http://www.bohemiancoding.com/sketch -->
    <title>Fill 1 Copy</title>
    <desc>Created with Sketch.</desc>
    <defs></defs>
    <g id="Page-1" stroke="none" stroke-width="1" fill="none" fill-rule="evenodd">
        <path d="M22.1050615,7.35844156 L22.1050615,7.25236364 L22.1050615,6.21163636 C22.1048537,5.67148052 22.109529,5.13111688 22.1029836,4.59096104 C22.0968537,4.07355844 21.7041264,3.68623377 21.1886979,3.67916883 C20.9462044,3.67584416 20.7037109,3.67823377 20.4611135,3.67812987 C20.397529,3.67802597 20.3340485,3.67812987 20.2608018,3.67812987 L20.2608018,5.51293506 L18.417581,5.51293506 L18.417581,3.68363636 L5.52313943,3.68363636 L5.52313943,5.51563636 L3.68313943,5.51563636 L3.68313943,3.68238961 C3.33612644,3.68238961 2.99898359,3.68135065 2.66204852,3.68353247 C2.61685372,3.68384416 2.57113943,3.69714286 2.52698359,3.70909091 C2.10641216,3.8238961 1.84376281,4.17142857 1.84282774,4.62285714 C1.84085372,5.51303896 1.84220437,6.40332468 1.84241216,7.29350649 C1.84241216,7.31407792 1.84490567,7.33464935 1.84646411,7.35844156 L22.1050615,7.35844156 Z M1.84220437,9.20748052 L1.84220437,9.3172987 L1.84220437,10.5972987 C1.84220437,14.1060779 1.84199657,17.6148571 1.84241216,21.1235325 C1.84251605,21.6981818 2.23004852,22.0962078 2.79212644,22.0962078 C8.91316541,22.0967273 15.0343083,22.0966234 21.1554511,22.0953766 C21.2374251,22.0953766 21.3216849,22.0868571 21.4012693,22.0672208 C21.8433472,21.9581299 22.1048537,21.6021818 22.1049576,21.1138701 C22.1051654,17.1784935 22.1050615,13.243013 22.1050615,9.30753247 L22.1050615,9.20748052 L1.84220437,9.20748052 Z M3.68355502,1.83605195 L3.68355502,0.00145454545 L5.5238667,0.00145454545 L5.5238667,1.83085714 L18.4164381,1.83085714 L18.4164381,0 L20.2599706,0 L20.2599706,1.83605195 C20.2989316,1.83605195 20.3312433,1.83563636 20.3634511,1.83605195 C20.725529,1.84083117 21.0894771,1.82327273 21.4492693,1.85454545 C22.6211135,1.95636364 23.6188277,2.83948052 23.8707758,3.98888312 C23.9177368,4.20301299 23.9438148,4.42618182 23.9440225,4.6452987 C23.9479706,10.1406753 23.9476589,15.6361558 23.9467238,21.1315325 C23.9465161,22.4597403 23.0511394,23.5847273 21.7627238,23.8708571 C21.5696849,23.9136623 21.3677109,23.9357922 21.1698927,23.936 C15.0389836,23.9392208 8.9080745,23.9392208 2.77706151,23.9381818 C1.34630826,23.937974 0.150775795,22.8444675 0.0145680029,21.4165195 C0.00532124966,21.3188571 0.00074982109,21.2204675 0.00074982109,21.1224935 C2.25483624e-05,15.630026 -0.000289139949,10.1376623 0.000334236674,4.6454026 C0.000542028882,3.37787013 0.798048522,2.30088312 2.01103554,1.9465974 C2.23223034,1.88207792 2.46828229,1.85527273 2.69934722,1.84103896 C2.98994463,1.82327273 3.28241216,1.83625974 3.57404852,1.83605195 C3.60719138,1.83594805 3.64033424,1.83605195 3.68355502,1.83605195 Z M10.1286979,18.0462442 C9.03290567,16.9499325 7.94874982,15.8654649 6.87290567,14.7889974 C6.442568,15.2196468 6.01378878,15.6487377 5.59290567,16.0700364 C7.10521735,17.5815169 8.6239706,19.0995429 10.1345161,20.6092571 C12.8723862,17.8714909 15.6177368,15.1262442 18.349581,12.3945039 C17.9248537,11.9697766 17.4945161,11.539439 17.0632433,11.1081662 C14.7639187,13.4087377 12.4550355,15.7188675 10.1286979,18.0462442 Z" id="Fill-1-Copy" fill="#000000"></path>
    </g>
</svg>