<?xml version="1.0" encoding="UTF-8"?>
<svg width="256px" height="81px" viewBox="0 0 256 81" version="1.1" xmlns="http://www.w3.org/2000/svg" xmlns:xlink="http://www.w3.org/1999/xlink">
    <!-- Generator: Sketch 47 (45396) - http://www.bohemiancoding.com/sketch -->
    <title>Group Copy 2 + Book Start Copy Mask</title>
    <desc>Created with Sketch.</desc>
    <defs>
        <rect id="path-1" x="0" y="0" width="256" height="97"></rect>
        <polygon id="path-3" points="256.934172 29.8951784 256.934172 0.0286504647 0.000172647609 0.0286504647 0.000172647609 29.8951784"></polygon>
        <polygon id="path-5" points="256.934172 0.0379908541 256.934172 19.034478 0.000172647609 19.034478 0.000172647609 0.0379908541 256.934172 0.0379908541"></polygon>
        <polygon id="path-7" points="0.148688369 0.0374173228 65.7080864 0.0374173228 65.7080864 46.1673746 0.148688369 46.1673746"></polygon>
        <polygon id="path-9" points="1.30171564e-15 28.5270117 1.30171564e-15 0.0131773616 16.3210284 0.0131773616 16.3210284 28.5270117"></polygon>
    </defs>
    <g id="Page-1" stroke="none" stroke-width="1" fill="none" fill-rule="evenodd">
        <g id="Group-Copy-2-+-Book-Start-Copy-Mask" transform="translate(0.000000, -16.000000)">
            <mask id="mask-2" fill="white">
                <use xlink:href="#path-1"></use>
            </mask>
            <g id="Mask"></g>
            <g id="Group-Copy-2" mask="url(#mask-2)">
                <g transform="translate(-1.003922, 51.000000)">
                    <path d="M0.941176471,19.8846154 L43.2445251,25.636472 C52.8300637,28.72226 65.0455948,30.0663553 79.8911183,29.668758 C86.0742884,29.5031585 99.3795038,25.616346 121.011022,24.4571694 C130.905319,23.9269598 157.79174,32.1756031 179.900048,31.4335885 C189.397761,31.1148196 203.100193,32.0721944 220.768087,29.2025928 C228.033867,28.0224921 240.447119,24.9164996 258.007843,19.8846154 L258.007843,47 L0.941176471,47 L0.941176471,19.8846154 Z" id="Rectangle-4" stroke="none" fill="#129895"></path>
                    <g id="Page-1" stroke="none" stroke-width="1" fill="none" transform="translate(0.941176, 0.000000)">
                        <path d="M239.074768,21.3685298 C230.636825,25.6035251 221.003079,28.3012233 210.115271,29.3761322 C204.717542,29.908895 199.300394,29.9333958 193.899644,29.7723159 C184.859268,29.5022854 176.125719,28.2626475 167.701585,26.2397648 C164.936263,25.5758965 162.12304,24.98527 159.330962,24.3612806 C159.324921,24.3688394 159.318016,24.3750949 159.311543,24.3823931 C152.406437,22.9347587 147.502824,22.0696707 144.822085,21.6500288 C144.841504,21.6388209 144.861355,21.6278738 144.880774,21.6164053 C137.716312,20.6788574 130.457342,20.3825016 123.150471,20.5143891 C115.409036,20.6538353 107.813895,21.3646201 100.398707,22.7551728 C95.06873,23.754494 89.7611934,24.8265358 84.3453397,25.622031 C80.2206601,26.2280357 75.962634,26.3643541 71.6558436,26.143586 C66.015588,25.8545283 60.8452818,24.7321816 55.8475925,23.2657806 C52.7443731,22.35534 49.7593962,21.2924209 46.76622,20.2506141 C40.6378903,18.1185203 34.3378068,16.2418606 27.2993548,15.4878084 C22.5890725,14.9831954 17.861097,14.8192484 13.066664,15.1742498 C8.76591517,15.4930213 4.61577456,16.1230055 0.508356622,16.9098993 C0.350843747,16.9401344 0.170027597,16.927102 0,16.9341395 L0,22.3647233 C3.16881382,21.8762705 6.31691362,21.3283902 9.51334613,20.9183922 C9.82923496,20.8779919 10.1459869,20.840198 10.4636019,20.8044894 C12.6856123,20.5547894 14.9451668,20.4114334 17.1844389,20.2104744 L17.1844389,20.2104744 L28.7644403,20.1948356 C33.9671121,20.3668628 38.9915571,21.0661791 43.8278497,22.2018188 C49.3990585,23.5097463 54.8472778,25.0168083 60.4637986,26.2447171 C67.3697672,27.7543855 74.5717737,27.8646393 81.8402377,27.5349206 C87.2077586,27.2914761 92.2481707,26.1704326 97.4840713,25.6079561 C101.840057,25.1400944 106.252144,24.8484302 110.653011,24.5552021 C112.812448,24.4113249 115.003387,24.4353044 117.180517,24.3943828 C124.461927,24.2572824 131.299281,25.3655542 137.919568,27.0912991 C145.359355,29.0302534 152.729662,31.0794615 160.680826,32.1916429 C166.308998,32.9785367 171.998018,33.397918 177.77162,33.5863659 C185.5342,33.8399756 193.214355,33.3976574 200.892353,32.8753205 C201.620796,32.8257975 202.347081,32.7648061 203.072072,32.6967771 C203.498436,32.6568981 203.923505,32.6138913 204.348574,32.569842 C206.094593,32.3886922 207.835434,32.1801745 209.582317,32.0008492 L209.581885,32.0011099 L217.325908,30.9017001 C219.101273,30.6196798 220.867143,30.3212388 222.622225,30.0061164 C223.435682,29.860154 224.247844,29.7115851 225.056554,29.557282 C225.907555,29.3951594 226.755535,29.2283453 227.600495,29.0565788 C228.727251,28.8274699 229.848398,28.5892384 230.963503,28.3411023 C235.42349,27.3498611 239.785087,26.2014497 244.01161,24.8411321 C248.130248,23.5154806 252.106477,22.0472551 255.339591,19.961817 C255.859168,19.6266248 256.372271,19.2883048 256.888396,18.951288 L256.888396,10.0715602 L256.888396,8.71072129 C255.52947,9.8888465 254.173996,11.0682749 252.810323,12.244315 C248.874227,15.6384624 244.344329,18.7240036 239.074768,21.3685298" id="Fill-1" fill="#E3A2B8"></path>
                        <g id="Group-5">
                            <mask id="mask-4" fill="white">
                                <use xlink:href="#path-3"></use>
                            </mask>
                            <g id="Clip-4"></g>
                            <path d="M255.574313,1.28092227 C255.513886,1.32866712 255.45346,1.37641198 255.393033,1.42441773 L255.390012,1.42650494 C255.041695,1.78889619 254.692947,2.15154835 254.34463,2.5142005 C254.27255,2.57133778 254.20047,2.62847506 254.128821,2.68535145 L254.143928,2.68769955 C253.711445,3.14897222 253.278531,3.61050579 252.845618,4.07177846 C252.434716,4.48713258 252.023383,4.90248671 251.61205,5.31810173 C245.659592,10.8147604 235.327496,19.1695877 223.801973,23.2508594 C221.587336,23.878065 219.318315,24.4366537 217.073465,25.0255069 L217.109289,25.0195062 C216.889595,25.0750781 216.669038,25.1309108 216.448912,25.1862218 L216.451933,25.1653497 C216.289644,25.196136 216.127356,25.2266614 215.965067,25.2571868 C213.212201,25.6433201 198.762459,27.4216201 179.210981,25.3138023 C179.191126,25.3109324 179.17084,25.3080625 179.150986,25.3051926 C178.79749,25.2467508 175.689401,24.7317326 171.24502,23.9498128 C167.581006,23.2365099 163.955838,22.4441541 160.306499,21.6969341 C154.944928,20.5988025 149.506096,19.6381656 144.103089,18.6143908 C143.941232,18.5836045 143.791892,18.5298589 143.636509,18.4868103 C143.558386,18.4782005 143.479831,18.4693299 143.401708,18.4607202 C129.953323,15.530543 110.561112,16.8856619 103.286173,18.171903 C99.951053,18.7615388 96.6159328,19.3511747 93.2808126,19.9408106 C93.0188199,20.0031659 92.7568271,20.0655212 92.495266,20.1278765 C91.9022215,20.2510217 91.3096085,20.3741669 90.7169956,20.4970512 C90.6246292,20.5040955 90.5326943,20.5111398 90.4403278,20.5181841 L90.4286741,20.5322728 C90.3380341,20.5708861 90.2473941,20.6092385 90.1567541,20.6478519 L90.0518707,20.6682021 L89.9443976,20.6522872 C89.6759305,20.7104681 89.4070319,20.768388 89.1381332,20.8265689 C88.7919748,20.9202323 88.4462479,21.0138957 88.1000895,21.1075591 L87.998659,21.1299966 L87.8916175,21.1224305 C87.5463223,21.1884384 87.2010271,21.2547072 86.8557318,21.320976 L85.8198462,21.5508296 C85.3101041,21.6400577 84.8003621,21.7295467 84.2910516,21.8187748 C84.1145194,21.8553009 83.9388505,21.8920879 83.7627499,21.9288749 C83.7631815,21.9314839 83.7618867,21.9343538 83.7623183,21.9372238 C80.8903253,22.4185858 78.1249422,22.8104588 75.7221191,23.0155269 C75.4027211,23.0134397 75.0837546,23.0116134 74.7643565,23.0097871 C73.6576854,23.0551838 72.5505826,23.1008415 71.4439114,23.1462382 L70.6613861,23.1065813 C63.8625233,22.7611486 58.8617853,22.4467631 50.1953069,19.2796879 C50.0766117,19.2329866 49.9579164,19.1862854 49.8392212,19.1395841 C49.7131885,19.0957528 49.5871557,19.0516606 49.4611229,19.0075683 C49.3148041,18.9527792 49.171075,18.8998163 49.0230296,18.8432008 C47.8365089,18.3712312 46.6504199,17.8992616 45.4643308,17.427292 C44.9368923,17.2230066 44.4094539,17.0189822 43.8824471,16.8149577 C43.4702509,16.6576345 43.0580547,16.5000504 42.6462902,16.3427272 C42.3782548,16.2417586 42.1102194,16.14079 41.842184,16.0398214 C41.6760106,15.9858149 41.5094057,15.9318084 41.3428007,15.8780629 C41.1028206,15.8000535 40.8624088,15.722566 40.6224286,15.6448175 C40.29224,15.5271512 39.9611883,15.4107895 39.6292732,15.2972976 C39.5127361,15.2432911 39.3957673,15.1892847 39.2792302,15.1350173 C39.1972226,15.1222332 39.115215,15.109449 39.0327757,15.0969258 C36.9066204,14.3875364 34.7243547,13.7655488 32.3392279,13.2687937 C32.3245529,13.2648801 32.3098778,13.2609666 32.2952028,13.2570531 C32.2753483,13.2541832 32.2563571,13.2507915 32.2369342,13.2479216 C28.2772613,12.4315629 23.7543256,11.9614196 17.9835792,12.0216877 C17.2947153,12.0138607 16.6058513,12.0057727 15.9169874,11.9979457 C15.482347,12.0196005 15.047275,12.0412552 14.6126347,12.0626491 C3.44967188,12.2217986 3.95337128,12.5020061 0.000172647609,13.3851554 L0.000172647609,16.1757507 L0.000172647609,16.9571487 C0.170230543,16.9501044 0.350647294,16.9631494 0.508619856,16.9328849 C4.6163381,16.1452253 8.76721824,15.514628 13.069165,15.1955463 C17.8640208,14.8401994 22.5928388,15.0045669 27.304392,15.5096709 C34.3436667,16.2641961 40.6453044,18.1426821 46.7747261,20.2771118 C49.7684357,21.3196715 52.7535129,22.3836251 55.8577169,23.2949517 C60.8562968,24.7627798 66.0275243,25.8864796 71.6687849,26.1755578 C75.9759111,26.3965408 80.234696,26.2600896 84.3605423,25.6534952 C89.777361,24.8572259 95.0854118,23.7841407 100.41677,22.783847 C107.83328,21.391941 115.429343,20.6804645 123.172156,20.5408825 C130.480761,20.4088667 137.741025,20.7055109 144.906332,21.6439712 C144.887341,21.6554509 144.867487,21.6664087 144.848064,21.6776274 C147.529281,22.0976778 152.433768,22.9636076 159.340104,24.4126508 C159.346147,24.4053456 159.353484,24.399084 159.359527,24.3915179 C162.15167,25.0161145 164.965826,25.6073157 167.731209,26.2720911 C176.157276,28.2966815 184.89195,29.5375259 193.933937,29.8078191 C199.335649,29.9690558 204.753763,29.9445312 210.152454,29.4112499 C221.042201,28.3352948 230.678096,25.6349712 239.117543,21.3958545 C244.388043,18.7487547 248.918748,15.6602107 252.855545,12.26276 C254.219461,11.0855755 255.574745,9.90499924 256.934345,8.72598838 L256.934345,0.0285982846 L255.574313,1.28092227 Z" id="Fill-3" fill="#DDE075" mask="url(#mask-4)"></path>
                        </g>
                        <path d="M89.13546,20.7636113 C89.1384725,20.7630088 89.141485,20.7624062 89.1444975,20.7618036 L89.1675933,20.7551754 L89.13546,20.7636113 Z" id="Fill-6" fill="#DBE075"></path>
                        <g id="Group-10" transform="translate(0.000000, 18.926999)">
                            <mask id="mask-6" fill="white">
                                <use xlink:href="#path-5"></use>
                            </mask>
                            <g id="Clip-9"></g>
                            <path d="M244.055265,5.93009333 C239.827556,7.2909325 235.465183,8.43978427 231.0044,9.43166628 C229.889528,9.67963678 228.768182,9.91795964 227.641225,10.1471564 C226.796115,10.3189887 225.947552,10.4861276 225.096399,10.6483123 C224.287977,10.8026746 223.47567,10.9510397 222.662068,11.0970581 C220.906241,11.4123013 219.140056,11.7108568 217.364376,11.9929852 L209.619404,13.0930772 L209.619404,13.0928165 C207.872642,13.2719497 206.131491,13.4805474 204.38516,13.6617667 C203.959584,13.7058329 203.534439,13.7488562 203.108431,13.7890113 C202.383311,13.8568055 201.656896,13.9178203 200.928323,13.9673623 C193.248526,14.4898995 185.567002,14.9323873 177.803039,14.6789411 C172.02884,14.4901602 166.338375,14.0708789 160.709631,13.2834226 C152.757051,12.1710754 145.385429,10.1208209 137.944317,8.18112314 C131.322418,6.45497726 124.483847,5.34628054 117.20157,5.48317278 C115.023621,5.52411007 112.832723,5.50038209 110.672901,5.64405374 C106.270819,5.93739424 101.858377,6.22917026 97.501615,6.69721133 C92.2643498,7.25990359 87.2234713,8.38137692 81.8545622,8.62491472 C74.584803,8.95502056 67.3815132,8.84472453 60.4747456,7.33421652 C54.8567923,6.10583688 49.4080338,4.59845783 43.8358322,3.28976808 C38.9982462,2.15395366 33.9733376,1.45410841 28.7697386,1.28201532 L17.1872421,1.29766015 L17.1872421,1.29766015 C14.947571,1.49869617 12.6880454,1.64210708 10.4652075,1.89190281 C10.1479675,1.92762517 9.83115913,1.9654335 9.51521401,2.00611005 C6.3182119,2.41600451 3.16955113,2.96409494 0.000172647609,3.45273502 L0.000172647609,6.4020456 C2.09913596,6.18223578 4.18558231,5.88498407 6.29965229,5.75800023 C12.1049281,5.40938134 17.9002768,5.50690076 23.6839717,6.0090997 C32.1730546,6.74649253 39.927522,8.7526808 47.5732213,10.9638163 C52.4388626,12.3708077 57.3856482,13.6719358 62.6889511,14.3365802 C64.9113575,14.6153189 67.2222457,14.6838953 69.5003309,14.7428242 C74.6115634,14.875023 79.7327231,14.7788073 84.6980683,13.9981304 C87.8631306,13.500625 90.9798516,12.8909982 94.0974358,12.2839789 L94.098299,12.2839789 C94.705587,12.1655997 95.312875,12.0480028 95.9205946,11.9306666 C98.725255,11.4402013 105.048905,10.5007294 116.811387,9.50884743 C118.304357,9.48277271 119.800349,9.48459794 121.298067,9.51614835 C124.381121,9.58107438 127.448206,9.91900263 130.522197,10.1338583 C130.522197,10.1338583 137.351705,11.1721532 146.875378,13.1045501 C146.992779,13.1413154 147.110179,13.1786023 147.227579,13.2153676 C149.369273,13.6515975 151.505787,14.0985181 153.645754,14.5381377 C153.662156,14.5415274 153.678557,14.5451779 153.694959,14.5488283 C153.694959,14.5488283 153.692369,14.5477853 153.691938,14.5475246 C155.538404,14.9266509 157.387891,15.3003015 159.247306,15.6541353 C167.866738,17.2944954 176.638963,18.4728116 185.689582,18.8568921 C190.74082,19.0712262 195.77954,19.0819169 200.817829,18.9405919 L200.817829,18.9416349 C200.817829,18.9416349 216.346618,18.8853135 236.444958,15.5422748 C242.551072,14.5321405 248.552735,13.3332253 254.011852,11.3304267 C255.018388,10.9614696 255.961907,10.5299331 256.934345,10.1273396 L256.934345,0.0379908541 C256.418128,0.375136869 255.904933,0.713847366 255.385264,1.0489074 C252.151574,3.13540579 248.174636,4.60419426 244.055265,5.93009333" id="Fill-8" fill="#E2C432" mask="url(#mask-6)"></path>
                        </g>
                    </g>
                    <ellipse id="Oval-4" stroke="#E0ECF4" stroke-width="1" fill-opacity="0.5" fill="#C4D9E7" cx="190.101961" cy="33.1410256" rx="2.44705882" ry="2.41025641"></ellipse>
                    <ellipse id="Oval-4-Copy-5" stroke="#E0ECF4" stroke-width="1" fill-opacity="0.5" fill="#C4D9E7" cx="120.360784" cy="25.9102564" rx="3.05882353" ry="3.01282051"></ellipse>
                    <ellipse id="Oval-4-Copy-8" stroke="#E0ECF4" stroke-width="1" fill-opacity="0.5" fill="#C4D9E7" cx="160.737255" cy="31.3333333" rx="3.05882353" ry="3.01282051"></ellipse>
                    <ellipse id="Oval-4-Copy-9" stroke="#E0ECF4" stroke-width="1" fill-opacity="0.5" fill="#C4D9E7" cx="155.231373" cy="38.5641026" rx="1.83529412" ry="1.80769231"></ellipse>
                    <ellipse id="Oval-4-Copy" stroke="#FFFFFF" stroke-width="1" fill-opacity="0.479999989" fill="#E0ECF4" cx="214.572549" cy="39.7692308" rx="3.05882353" ry="3.01282051"></ellipse>
                    <ellipse id="Oval-4-Copy-6" stroke="#FFFFFF" stroke-width="1" fill-opacity="0.540000021" fill="#FFFFFF" cx="242.713725" cy="36.1538462" rx="1.83529412" ry="1.80769231"></ellipse>
                    <ellipse id="Oval-4-Copy-7" stroke="#FFFFFF" stroke-width="1" fill-opacity="0.540000021" fill="#FFFFFF" cx="218.243137" cy="38.5641026" rx="1.83529412" ry="1.80769231"></ellipse>
                    <ellipse id="Oval-4-Copy-2" stroke="#FFFFFF" stroke-width="1" fill-opacity="0.479999989" fill="#E0ECF4" cx="246.690196" cy="26.8141026" rx="2.14117647" ry="2.10897436"></ellipse>
                    <ellipse id="Oval-4-Copy-3" stroke="#FFFFFF" stroke-width="1" fill-opacity="0.479999989" fill="#E0ECF4" cx="139.019608" cy="40.0705128" rx="2.14117647" ry="2.10897436"></ellipse>
                    <ellipse id="Oval-4-Copy-4" stroke="#FFFFFF" stroke-width="1" fill-opacity="0.479999989" fill="#E0ECF4" cx="141.466667" cy="37.6602564" rx="2.14117647" ry="2.10897436"></ellipse>
                </g>
            </g>
            <g id="Book-Start" mask="url(#mask-2)">
                <g transform="translate(160.627451, 16.000000)" id="Page-1">
                    <g>
                        <g id="Group-3" transform="translate(8.080460, 0.175181)">
                            <mask id="mask-8" fill="white">
                                <use xlink:href="#path-7"></use>
                            </mask>
                            <g id="Clip-2"></g>
                            <path d="M0.842515517,25.9743402 C0.842515517,25.9743402 2.68996379,26.0140961 3.50056149,26.4395055 C4.3111592,26.8644898 5.12196954,27.502285 5.53386034,27.6485528 C5.94596379,27.7948205 7.66050977,27.8745449 7.66050977,27.8745449 C7.66050977,27.8745449 7.67369368,22.4133165 10.4380615,17.8158756 C13.2024293,13.2184346 17.694527,10.4015055 19.7412224,9.12591496 C21.7879178,7.85032441 26.3331764,6.52158425 26.652142,5.80406457 C26.9711075,5.08654488 27.8248718,2.58851339 29.2453316,1.44579685 C30.6657914,0.303080315 32.9251305,0.0373322835 33.7491247,0.0373322835 C34.573119,0.0373322835 35.1578891,0.356229921 36.4869121,0.435954331 C37.8159351,0.51567874 39.1715385,0.808001575 39.8892109,2.29619055 C40.6068833,3.78437953 40.473981,4.63477323 40.3144983,5.13969449 C40.1550155,5.64461575 39.9157914,6.17611181 41.0321707,6.52158425 C42.14855,6.86705669 44.46105,7.31882835 47.8101879,9.89658425 C51.1593259,12.4743402 53.71105,15.875915 54.694527,18.0550488 C55.678004,20.2341827 55.7577454,21.2440252 56.5551592,21.403474 C57.352573,21.5629228 57.1930902,21.0845764 57.6715385,20.7391039 C58.1499868,20.3936315 58.8676592,19.7558362 60.2232626,19.2774898 C61.5788661,18.7991433 63.5724006,18.5865449 64.0508489,19.7292614 C64.5292971,20.871978 63.7318833,21.137726 63.8116247,22.3335921 C63.8116247,22.3335921 63.741027,22.7677181 64.7687339,23.2105606 C65.7964408,23.6534031 65.7966534,25.0531512 65.6193086,25.566789 C65.4419638,26.0806394 64.8748431,26.8778835 64.5205787,27.5333244 C64.1663144,28.188978 64.2371247,28.8444189 64.6624121,29.5353638 C65.0876994,30.2263087 64.9637282,31.182789 64.4852799,31.6258441 C64.0068316,32.0688992 63.5105213,32.4940961 61.5967282,32.6003953 C59.6829351,32.7066945 58.7617626,31.5195449 57.5211994,31.1830016 C56.2806362,30.8464583 56.2098259,31.0764898 55.6782167,31.8915921 C55.6782167,31.8915921 54.774481,34.3011827 53.9770672,35.6830724 C53.9770672,35.6830724 52.6744121,38.1456 49.5910787,40.5107575 C46.5077454,42.875915 41.4308776,45.161348 38.0285787,45.7991433 C34.6262799,46.4369386 27.7951017,46.1180409 25.0838948,45.7991433 C22.3726879,45.4802457 19.9804466,44.2578047 18.0666534,43.4339858 C16.1528603,42.6101669 13.9201017,40.8296551 13.9201017,40.8296551 C13.9201017,40.8296551 11.7494351,38.3405528 9.68487759,35.505978 C9.68487759,35.505978 8.62187184,34.3368992 8.34713621,32.6537575 C8.34713621,32.6537575 6.23388333,33.0702378 4.44852701,33.0168756 C2.66338333,32.9635134 2.90154425,32.0538047 2.35760172,31.1830016 C1.8136592,30.3121984 1.71967069,29.4647811 0.718544253,29.0927339 C-0.282794828,28.7206866 0.319837356,28.0650331 0.417228161,28.0295291 C0.514618966,27.9942378 0.55013046,27.8524346 1.15255,27.7637811 C1.15255,27.7637811 0.993067241,26.6474268 0.842515517,25.9743402" id="Fill-1" fill="#2E6CAD" mask="url(#mask-8)"></path>
                        </g>
                        <path d="M35.414869,23.2164283 C35.2309322,23.319326 34.9187713,23.3524913 34.7680069,23.2776567 C34.440323,23.2085622 34.3516506,22.4555386 34.3605816,22.0037669 C34.3693,21.5519953 34.7592885,20.8257591 35.3085471,20.2498299 C35.8578057,19.6741134 36.7704724,19.3197118 37.045208,19.0894677 C37.319731,18.8592236 37.4526333,18.5934756 37.4615644,18.4606016 C37.4704954,18.3277276 37.7981793,17.7165071 38.6134552,17.5923496 C39.4285184,17.4684047 39.3664264,17.8936016 39.4019379,18.1151291 C39.4374494,18.3366567 39.6677425,18.3364441 39.7829954,18.3985228 C39.7829954,18.3985228 40.4209264,18.4516724 41.0675759,18.7794992 C41.7144379,19.1071134 42.0689149,19.6919717 42.2371161,19.6298929 C42.4055299,19.5678142 42.6889839,19.2844205 43.0258115,19.160263 C43.3624264,19.0363181 43.5927195,19.1249717 43.7256218,19.2578457 C43.8585241,19.3907197 43.8319437,19.7361921 43.6548115,20.0372315 C43.4776793,20.3384835 43.5927195,20.4890031 43.6637425,20.6042315 C43.7345529,20.7194598 44.0180069,20.9673496 43.973777,21.348326 C43.9295471,21.7293024 43.557208,21.7552394 43.3890069,21.7509874 C43.2205931,21.746948 42.9063057,21.6451134 42.7910529,21.565389 C42.6758,21.4856646 42.6005241,21.4414441 42.4852713,21.529885 C42.4852713,21.529885 42.3810759,21.6582945 42.1884207,22.0105701 C41.9957655,22.3626331 41.4575644,23.2130268 40.4075299,23.7245386 C39.357708,24.2360504 37.9023747,24.3025937 37.1447253,24.2960031 C36.3872885,24.2892 36.5467713,24.0102709 36.5467713,23.9505307 C36.5467713,23.890578 36.9520701,23.5119402 37.1049609,23.1532866 C37.2578517,22.7944205 37.0649839,22.3492394 36.8325644,22.2960898 C36.5999322,22.2429402 35.5988057,23.1135307 35.414869,23.2164283" id="Fill-4" fill="#A5C53E"></path>
                        <path d="M23.1524523,35.4508937 C23.1524523,35.4508937 22.0626534,35.7521457 21.6107856,35.1143504 C21.1589178,34.4765551 21.5397626,33.0768071 21.6107856,32.8199882 C21.681596,32.5631693 22.2044868,30.4461142 24.4904063,29.1350197 C26.7763259,27.8239252 28.3179925,28.3722165 28.6811879,27.9874134 C29.0443833,27.6023976 28.8362052,26.8495866 30.247096,26.6104134 C31.6581994,26.3712402 31.865527,26.8268386 32.0598833,27.2295 C32.278481,27.682122 32.0213948,28.2314764 32.2163891,28.4440748 C32.2163891,28.4440748 32.3669408,28.7185394 32.7835098,28.8337677 C33.1998661,28.9489961 33.9175385,29.2060276 34.8920845,29.9677677 C35.8668431,30.7295079 36.4869121,31.4733898 36.7350672,31.5709724 C36.9832224,31.6685551 37.240096,31.3673031 37.3729983,31.1457756 C37.5059006,30.924248 38.0640902,30.277311 38.6665098,30.308563 C39.2689293,30.3396024 39.2776477,30.7650118 39.2955098,31.0749803 C39.3133718,31.3849488 38.9412454,31.9251614 39.198119,32.6250354 C39.4549925,33.3249094 39.6765672,33.4046339 39.8094695,33.5109331 C39.9423718,33.6172323 40.4916305,34.0600748 39.8802799,34.5118465 C39.2689293,34.9636181 38.3562626,34.6978701 37.9222569,34.5649961 C37.4882511,34.432122 37.1071937,34.2726732 37.0274523,34.334752 C36.9477109,34.3968307 36.6819063,34.9549016 35.7426592,35.955815 C34.8036247,36.9567283 33.1111937,37.8781299 31.3834638,38.374122 C29.6557339,38.8701142 27.2813546,38.7727441 26.324458,38.6309409 C25.3675615,38.4891378 24.3672856,37.8439016 24.3309236,37.576878 C24.3043431,37.3819252 24.5701477,37.3198465 24.70305,37.275626 C24.8359523,37.2314055 25.3586305,36.8859331 25.8370787,36.487311 C26.315527,36.088689 27.2103316,34.5471378 26.8471362,34.1308701 C26.7318833,33.9272008 26.2447167,34.3434685 25.677596,34.5826417 C25.1104753,34.821815 23.6844868,35.3805236 23.1524523,35.4508937" id="Fill-6" fill="#EAA5BC"></path>
                        <path d="M36.4161017,41.6870646 C36.4161017,41.6870646 35.9642339,41.8375843 35.8668431,41.4744661 C35.7692397,41.111348 35.6629178,40.6682929 35.8224006,40.1723008 C35.9818833,39.6763087 36.5224236,38.8701354 37.0716822,38.391789 C37.6209408,37.9134425 38.4715155,37.5326787 38.9765443,37.337726 C39.481573,37.1427732 39.5436649,37.3287969 39.8094695,36.6644268 C40.0752741,36.0000567 40.819527,35.4507024 41.6701017,35.6811591 C42.5206764,35.9116157 42.3348259,36.6725055 42.4322167,36.7660488 C42.5296075,36.8593795 43.3891132,37.1161984 43.8586305,37.4616709 C44.3281477,37.8071433 44.8242454,38.5157339 45.0192397,38.524663 C45.2142339,38.5335921 45.1874408,38.4540803 45.3116247,38.2501984 C45.4358086,38.0463165 46.0027167,37.6211197 46.4014236,37.7097732 C46.8001305,37.7984268 46.9153833,38.0641748 46.8622224,38.3564976 C46.8090615,38.6488205 46.6406477,38.9500724 46.6406477,39.1803165 C46.6406477,39.4105606 46.7561132,39.4460646 47.0040557,39.8091827 C47.2519983,40.1723008 47.3143029,40.5796394 46.9508948,40.7037969 C46.5874868,40.8279543 46.1798489,40.8366709 45.7634925,40.6330016 C45.3471362,40.4293323 45.3469236,40.7658756 45.2850443,40.8987496 C45.2231649,41.0316236 44.9484293,41.899663 44.2307569,42.4577339 C43.5130845,43.0158047 42.5564006,43.4410016 40.8373891,43.7333244 C39.1183776,44.0256472 38.1174638,43.4854346 37.7274753,43.3702063 C37.3374868,43.254978 37.178004,43.0689543 37.4085098,42.8563559 C37.6388029,42.6437575 38.2322914,42.0236079 38.3741247,41.3681669 C38.515958,40.712726 38.2941707,40.9874031 38.2057109,41.013978 C38.1172511,41.0405528 36.7261362,41.6073402 36.4161017,41.6870646" id="Fill-8" fill="#E9CA2B"></path>
                        <path d="M45.232096,32.0491276 C45.232096,32.0491276 44.7710845,32.2266472 44.5763029,31.9872614 C44.3815213,31.7478756 44.1688776,31.2608126 44.2220385,30.3483402 C44.2751994,29.4358677 45.2053029,28.5944031 45.506619,28.319726 C45.8079351,28.0452614 46.5519753,27.5224819 46.8888029,27.3277417 C47.2256305,27.132789 47.765958,27.027978 47.9520213,26.5400646 C48.1380845,26.0521512 48.3775213,25.5383008 49.166004,25.2901984 C49.9544868,25.0423087 50.8229236,25.5825213 50.7076707,26.2468913 C50.7076707,26.2468913 50.6632282,26.3991118 50.8848029,26.5400646 C51.1063776,26.6810173 51.9571649,26.7783874 52.6303948,27.1062142 C53.3036247,27.4340409 54.0921075,28.3486394 54.2605213,28.3784031 C54.4289351,28.4083795 54.5086764,28.1071276 55.2795098,27.7085055 C56.0503431,27.3098835 56.5466534,27.5845606 56.6706247,27.8237339 C56.794596,28.0629071 56.803527,28.3909465 56.4314006,28.798285 C56.0592741,29.2056236 56.4934925,29.5334504 56.5643029,29.6131748 C56.6351132,29.6928992 57.2998374,30.2241827 57.0161707,30.7203874 C56.732504,31.2165921 55.8466305,31.0745764 55.5718948,31.039285 C55.2971592,31.0039937 54.7211075,30.6140882 54.5794868,30.7203874 C54.4378661,30.8266866 54.3936362,30.9153402 54.145481,31.2608126 C53.8973259,31.606285 52.5149293,32.9968913 51.2835098,33.4665213 C50.0520902,33.9361512 49.2986937,33.9361512 48.7317856,33.962726 C48.1648776,33.9893008 47.3498144,33.8119937 46.9598259,33.6880488 C46.5698374,33.5641039 46.5166764,33.3604346 46.6850902,33.1920567 C46.853504,33.0236787 47.2522109,32.5366157 47.3851132,32.2885134 C47.5180155,32.040411 47.7751017,31.3762535 47.7838201,31.1015764 C47.7925385,30.8268992 47.6862167,30.7029543 47.5533144,30.7737496 C47.4204121,30.8445449 46.6229983,31.4646945 46.3129638,31.5975685 C46.0029293,31.7304425 45.4623891,31.9936394 45.232096,32.0491276" id="Fill-10" fill="#93CAD8"></path>
                        <path d="M25.566596,22.9273157 C25.566596,23.8078984 24.8525385,24.5218039 23.9717684,24.5218039 C23.0909983,24.5218039 22.3769408,23.8078984 22.3769408,22.9273157 C22.3769408,22.0467331 23.0909983,21.3328276 23.9717684,21.3328276 C24.8525385,21.3328276 25.566596,22.0467331 25.566596,22.9273157" id="Fill-12" fill="#5391C6"></path>
                        <path d="M25.1280184,22.9273157 C25.1280184,23.5657488 24.610231,24.0832134 23.9718747,24.0832134 C23.3333057,24.0832134 22.8155184,23.5657488 22.8155184,22.9273157 C22.8155184,22.2888827 23.3333057,21.7714181 23.9718747,21.7714181 C24.610231,21.7714181 25.1280184,22.2888827 25.1280184,22.9273157" id="Fill-14" fill="#231916"></path>
                        <path d="M16.223777,31.8809622 C16.223777,31.8809622 16.1263862,31.5797102 16.0732253,31.1810882 C16.0200644,30.7824661 15.9490414,30.339411 15.8958805,30.0294425 C15.8427195,29.719474 15.8340011,29.5247339 15.8340011,29.4360803 C15.8340011,29.3474268 15.7808402,29.3121354 15.7187483,29.4360803 C15.6566563,29.5600252 15.5592655,30.2777575 15.5681966,30.6585213 C15.5769149,31.039285 15.7714839,31.473411 15.8956678,31.7391591 C16.0200644,32.0049071 16.3477483,32.173285 16.223777,31.8809622" id="Fill-16" fill="#93BCE0"></path>
                        <path d="M11.8800621,31.2253087 C11.8800621,31.2253087 12.3485161,31.208726 12.5245851,31.1555764 C12.700654,31.1024268 13.0164299,30.9695528 13.039608,31.0492772 C13.0627862,31.1290016 12.7538149,31.5741827 12.1058897,31.5907654 C11.458177,31.607348 11.7603437,31.2265843 11.8800621,31.2253087" id="Fill-22" fill="#93BCE0"></path>
                        <g id="Group-26" transform="translate(0.000000, 20.159433)">
                            <mask id="mask-10" fill="white">
                                <use xlink:href="#path-9"></use>
                            </mask>
                            <g id="Clip-25"></g>
                            <path d="M8.92297529,5.98966299 C9.04800977,6.66785197 9.23300977,7.77910394 9.23300977,7.77910394 C8.63059023,7.86775748 8.59507874,8.00956063 8.49768793,8.04485197 C8.40029713,8.08035591 7.79766494,8.73579685 8.79900402,9.10784409 C8.79900402,9.10784409 9.78673391,9.4979622 10.4778259,9.92315906 C11.1691305,10.3483559 11.780481,10.6938283 12.0197052,11.0393008 C12.2589293,11.3847732 12.440527,12.1377969 13.0074351,14.299285 C13.5745557,16.4607732 15.718642,22.6792772 16.1086305,24.1851118 C16.4984063,25.6909465 16.3212741,28.5967417 15.8249638,28.5257339 C15.3288661,28.454726 14.4427799,28.0473874 13.2379408,27.4272378 C12.0328891,26.8070882 10.3849006,26.3642457 8.93190632,26.0984976 C7.47869943,25.8327496 5.70673966,26.0987102 5.29910172,25.7974583 C4.89167644,25.4962063 4.89167644,24.4153559 4.23588333,21.6870803 C3.58030287,18.9588047 2.65891782,16.2303165 1.91466494,14.3169307 C1.17041207,12.4035449 0.390647701,10.4191512 0.107193678,9.42716693 C-0.176472989,8.43518268 0.0716821839,8.84252126 1.22357299,7.05308031 C2.37525115,5.26385197 4.07640057,2.90741102 4.71433161,2.05701732 C5.35226264,1.20662362 6.3091592,0.267788976 6.45099253,0.125985827 C6.59282586,-0.0158173228 6.89392931,-0.0866125984 7.10657299,0.303080315 C7.31921667,0.692985827 8.15214195,1.80806457 8.92297529,5.98966299" id="Fill-24" fill="#D02527" mask="url(#mask-10)"></path>
                        </g>
                        <path d="M17.7781172,35.6917465 C15.563008,35.966211 13.4365713,36.4358409 12.7012494,36.6573685 C11.9659276,36.8788961 11.3811575,37.5519827 11.7177724,38.3936598 C12.0543874,39.235337 13.0378644,39.5098016 13.0378644,39.5098016 C12.7101805,39.5718803 12.1785713,40.0589433 12.1607092,40.6878094 C12.1970713,41.0341323 12.4530943,41.3966126 12.9759851,41.6534315 C13.4986632,41.9102504 14.7124333,41.7597307 14.7124333,41.7597307 C14.7124333,41.7597307 14.358169,41.8749591 14.4289793,42.3709512 C14.4997897,42.8669433 15.1821632,42.8492976 15.1821632,42.8492976 C15.6782609,42.8848016 17.7515368,42.9024472 19.1160713,42.5656913 C20.4803931,42.2289354 22.0133414,41.0154236 22.0133414,41.0154236 C22.0133414,41.0154236 23.0635885,40.1935181 22.6914621,39.5025732 C22.3193356,38.8116283 19.6731977,35.4106913 17.7781172,35.6917465" id="Fill-27" fill="#2E6CAD"></path>
                        <path d="M66.6557339,24.8074937 C66.6557339,24.8074937 66.4696707,24.926974 66.257027,24.7145882 C66.0443833,24.5019898 66.2836075,24.355722 66.3899293,24.222848 C66.4962511,24.089974 66.9215385,23.7710764 67.3999868,23.6781709 C67.8784351,23.5850528 68.3834638,23.6515961 68.3702799,23.9039504 C68.3568833,24.1563047 68.1574236,24.1631079 67.838458,24.2394307 C67.5194925,24.3157535 66.8018201,24.6880134 66.6557339,24.8074937" id="Fill-29" fill="#93BCE0"></path>
                        <path d="M66.5627023,28.3784669 C66.5627023,28.3784669 66.2437368,28.3287189 66.2305529,28.1692701 C66.2171563,28.0098213 66.5229379,27.8104039 66.8416908,27.770648 C67.160869,27.7306795 67.6656851,27.7007031 68.051208,28.0744512 C68.436731,28.4481992 68.3701736,28.4798764 68.2372713,28.6499551 C68.104369,28.8202465 67.7454264,28.5413173 67.4530414,28.474774 C67.160869,28.4084433 66.8550874,28.3219157 66.5627023,28.3784669" id="Fill-31" fill="#93BCE0"></path>
                        <path d="M40.301208,5.4344622 C40.301208,5.4344622 40.0222195,5.59391102 39.8493402,5.30158819 C39.6764609,5.00926535 39.9556621,4.70354882 40.0753805,4.49116299 C40.1948862,4.27856457 40.7199034,3.7202811 41.0088862,3.44135197 C41.297869,3.16221024 42.1086793,2.65728898 42.2283977,3.00276142 C42.3479034,3.34823386 41.9092195,3.38820236 41.6699954,3.58740709 C41.4307713,3.78682441 40.7930529,4.43801339 40.6201736,4.73012362 C40.4472943,5.02265906 40.4606908,5.27501339 40.301208,5.4344622" id="Fill-33" fill="#93BCE0"></path>
                        <path d="M43.0124149,4.83652913 C43.0124149,4.83652913 42.8795126,5.00915906 42.6005241,4.91625354 C42.321323,4.82334803 42.5205701,4.61074961 42.6005241,4.45130079 C42.6802655,4.29163937 43.4776793,3.56093858 43.8761736,3.57433228 C44.2748805,3.58751339 44.0622368,3.89322992 43.8761736,4.02589134 C43.690323,4.15876535 43.1053402,4.65050551 43.0124149,4.83652913" id="Fill-35" fill="#93BCE0"></path>
                        <path d="M16.1129897,38.4403677 C16.1129897,38.4403677 15.6811103,38.559848 15.6477253,38.3872181 C15.6145529,38.2145882 15.8471851,38.0817142 15.9335184,38.0217614 C16.0200644,37.9620213 16.5316851,37.7428323 16.9038115,37.7428323 C17.2759379,37.7428323 17.3822598,37.9620213 17.3222943,38.0617299 C17.2625414,38.1614386 16.9435759,38.2011945 16.6911678,38.2743283 C16.4385471,38.3474622 16.2924609,38.3540528 16.1129897,38.4403677" id="Fill-37" fill="#93BCE0"></path>
                        <path d="M16.6313086,40.3936157 C16.6313086,40.3936157 16.4709753,40.3804346 16.4913891,40.1678362 C16.5118029,39.9550252 16.8305557,39.9818126 16.9702626,39.9818126 C17.1097569,39.9818126 17.3357971,39.9484346 17.5018718,39.8421354 C17.6679466,39.7358362 17.8671937,39.6561118 17.9669236,39.7292457 C18.0666534,39.8023795 18.0998259,40.0681276 17.9005787,40.2541512 C17.701119,40.4401748 16.9037052,40.4799307 16.6313086,40.3936157" id="Fill-39" fill="#93BCE0"></path>
                        <path d="M2.64116207,27.7959047 C2.64116207,27.7959047 4.00569655,25.9369441 4.41312184,25.4230937 C4.82075977,24.9092433 5.42317931,23.9880543 5.81316782,23.4920622 C6.20294368,22.9958575 6.39793793,22.5351567 6.5219092,22.6238102 C6.64588046,22.7124638 7.26616207,24.4840465 7.54961609,25.8127866 C7.83328276,27.1415268 8.06357586,29.0194087 7.92174253,29.0904165 C7.78012184,29.1614244 6.34477701,28.5942118 5.44104138,28.5057709 C4.53730575,28.4173299 3.49173678,28.2223772 2.90696667,28.2223772 C2.32219655,28.2223772 2.50124253,27.9863929 2.64116207,27.7959047" id="Fill-41" fill="#FEFEFE"></path>
                        <path d="M2.99553276,29.2321984 C2.99553276,29.2321984 2.48157299,28.9662378 2.99553276,28.8777969 C3.50949253,28.7893559 5.91938333,29.232411 6.6991477,29.4271512 C7.47869943,29.6218913 8.68375115,29.9586472 9.00271667,30.0649465 C9.32168218,30.1712457 10.5088718,30.7790646 10.5088718,31.0244031 C10.5088718,31.2695291 9.39249253,31.0039937 9.00271667,30.9153402 C8.6129408,30.8266866 7.49656149,30.3838441 6.02570517,30.1180961 C4.55484885,29.852348 3.17691782,29.3633717 2.99553276,29.2321984" id="Fill-43" fill="#FEFEFE"></path>
                        <path d="M28.2270448,34.5405047 C28.2270448,34.5405047 28.3997115,34.3213157 28.3799356,33.9758433 C28.3599471,33.6303709 28.3533552,33.5904024 28.2736138,33.4043787 C28.1938724,33.2183551 28.2699989,33.1785992 28.3814241,33.1851898 C28.4928494,33.1917803 28.8449874,33.0589063 29.0310506,32.8728827 C29.2171138,32.6868591 29.3899931,32.5473945 29.6158207,32.6536937 C29.8418609,32.7599929 29.6224126,33.1520244 29.6823782,33.2383394 C29.742131,33.3246543 30.2339759,33.2583236 30.2471598,33.6835205 C30.2339759,34.0621583 29.8882172,33.8627409 29.8750333,34.2281976 C29.8750333,34.2281976 29.8484529,34.3279063 29.9879471,34.5073394 C30.127654,34.7465126 30.041108,35.1151583 29.8018839,35.1783 C29.5626598,35.2414417 29.369154,35.1668197 28.9944759,35.0441504 C28.4296943,34.7830795 28.4962517,34.7465126 28.2270448,34.6667882 C28.074154,34.6368118 28.191746,34.5953551 28.2270448,34.5405047" id="Fill-49" fill="#B55E4B"></path>
                        <path d="M37.5268885,32.3713417 C37.5268885,32.3713417 37.4637333,32.3713417 37.4305609,32.2750346 C37.3973885,32.1787276 37.5069,32.1787276 37.5600609,32.1587433 C37.6132218,32.1387591 37.7826989,32.0458535 37.8690322,31.9893024 C37.9555782,31.9327512 38.0984747,31.7733024 38.1582276,31.7966882 C38.2179805,31.8198614 38.367469,31.9061764 38.2445609,32.0490425 C38.1216529,32.1919087 38.0550954,32.3147906 37.5268885,32.3713417" id="Fill-51" fill="#B55E4B"></path>
                        <path d="M37.9322299,33.972463 C37.9322299,33.972463 37.8325,33.889337 37.8293103,33.8196047 C37.825908,33.7498724 37.9156437,33.7964315 37.955408,33.8196047 C37.9953851,33.8429906 38.1182931,33.9358961 38.2511954,33.9924472 C38.3840977,34.0487858 38.6033333,34.0787622 38.5901494,34.1385024 C38.5767529,34.1982425 38.5435805,34.3045417 38.4072759,34.2847701 C38.2711839,34.2647858 38.0011264,34.0462346 37.9322299,33.972463" id="Fill-55" fill="#B55E4B"></path>
                        <path d="M49.3342052,30.7691787 C49.3342052,30.7691787 49.2589293,30.5565803 49.2944408,30.4768559 C49.3297397,30.3971315 49.6312684,30.1445646 49.8128661,30.0516591 C49.9942511,29.9585409 50.3887052,29.7993047 50.5481879,29.9763992 C50.7076707,30.1534937 50.6323948,30.3174071 50.6102799,30.4371 C50.5879523,30.5565803 50.6498316,30.654163 50.7253201,30.7160291 C50.800596,30.7778953 50.9466822,31.0436433 50.7253201,31.1988402 C50.503958,31.3538244 50.5879523,31.406974 50.6056017,31.4335488 C50.6234638,31.4601236 50.809527,31.7524465 50.4018891,31.9295409 C49.9942511,32.1066354 49.6399868,31.8277063 49.5381305,31.7345882 C49.4360615,31.6416827 49.3652511,31.5798165 49.4184121,31.3848638 C49.471573,31.189911 49.3624868,30.8652732 49.3342052,30.7691787" id="Fill-57" fill="#4FABC3"></path>
                        <path d="M55.3058776,28.6342654 C55.3058776,28.6342654 55.2216707,28.6695567 55.1729753,28.6342654 C55.1242799,28.598974 55.2040213,28.5279661 55.2395328,28.470352 C55.2748316,28.4129504 55.4521764,28.1603835 55.5274523,28.1293441 C55.6027282,28.0983047 55.7047971,28.0851236 55.740096,28.1869583 C55.7753948,28.2887929 55.70905,28.333226 55.6424925,28.3598008 C55.5761477,28.3863756 55.363504,28.5987614 55.3058776,28.6342654" id="Fill-63" fill="#4FABC3"></path>
                        <path d="M55.3501075,30.1270252 C55.3501075,30.1270252 55.3103431,30.0649465 55.3501075,29.985222 C55.3898718,29.9054976 55.4742914,29.9807575 55.5008718,30.0117969 C55.5274523,30.0428362 55.6956534,30.1138441 55.7709293,30.1270252 C55.8464178,30.1402063 56.1254063,30.1803874 56.1032914,30.3485528 C56.0811764,30.5167181 55.8685328,30.4856787 55.6735385,30.4104189 C55.4785443,30.3351591 55.4119868,30.1933559 55.3501075,30.1270252" id="Fill-67" fill="#4FABC3"></path>
                        <path d="M39.9247224,41.5097575 C39.9247224,41.5097575 39.6631707,41.5629071 39.6676362,41.8418362 C39.6723144,42.120978 39.9689523,42.0988677 39.9557684,42.1386236 C39.9423718,42.1785921 39.8900615,42.3556866 39.955981,42.4530567 C40.0221132,42.5506394 40.1286477,42.5285291 40.2968489,42.5993244 C40.46505,42.6701197 40.3142856,42.8029937 40.5847684,42.7985291 C40.8550385,42.7942772 41.174004,42.4266945 41.2316305,42.3425055 C41.2890443,42.2583165 41.3511362,41.9704583 41.3113718,41.8907339 C41.2713948,41.8110094 41.0676822,41.4742535 40.9258489,41.3281984 C40.7840155,41.1819307 40.6866247,41.0269465 40.6202799,41.0535213 C40.5537224,41.0800961 40.4563316,41.1995764 40.3500098,41.2616551 C40.2436879,41.3237339 40.0376362,41.4597969 39.9247224,41.5097575" id="Fill-69" fill="#E37832"></path>
                        <path d="M45.7678517,39.6671669 C45.7678517,39.6671669 45.7057598,39.6095528 45.7146908,39.543222 C45.7236218,39.4766787 45.8299437,39.5211118 45.8962885,39.543222 C45.962846,39.5653323 46.2418345,39.715852 46.2331161,39.8397969 C46.2241851,39.9639543 46.1136103,40.0171039 46.0515184,40.0081748 C45.9894264,39.9992457 45.869708,39.7424268 45.7678517,39.6671669" id="Fill-77" fill="#E37832"></path>
                        <path d="M37.8514466,21.8488677 C38.0241132,21.7957181 38.214642,21.8091118 38.2811994,21.7712693 C38.3475443,21.7336394 38.4274983,21.7425685 38.4893776,21.8488677 C38.5512569,21.9551669 38.5646534,22.0570016 38.6267454,22.1190803 C38.6888374,22.1809465 38.8481075,22.3227496 38.852573,22.4069386 C38.8570385,22.4911276 38.8128086,22.535348 38.7994121,22.6329307 C38.7862282,22.7303008 38.640142,23.0447339 38.3520098,23.1599622 C38.0640902,23.274978 37.8204006,23.190789 37.7451247,23.1155291 C37.6698489,23.0402693 37.6607052,22.9605449 37.5811764,22.9339701 C37.5014351,22.9073953 37.4527397,22.7347654 37.4527397,22.6284661 C37.4527397,22.5221669 37.2977224,22.5132378 37.3906477,22.2829937 C37.4837856,22.052537 37.6787799,21.9020173 37.8514466,21.8488677" id="Fill-79" fill="#597F4B"></path>
                        <path d="M23.7947425,32.647252 C23.7947425,32.7994724 23.6711966,32.9229921 23.5189437,32.9229921 C23.3666908,32.9229921 23.2431448,32.7994724 23.2431448,32.647252 C23.2431448,32.4950315 23.3666908,32.3715118 23.5189437,32.3715118 C23.6711966,32.3715118 23.7947425,32.4950315 23.7947425,32.647252" id="Fill-81" fill="#231916"></path>
                        <path d="M36.1732414,21.4823055 C36.1732414,21.6419669 36.043954,21.7712268 35.8842586,21.7712268 C35.7245632,21.7712268 35.5950632,21.6419669 35.5950632,21.4823055 C35.5950632,21.3226441 35.7245632,21.1933843 35.8842586,21.1933843 C36.043954,21.1933843 36.1732414,21.3226441 36.1732414,21.4823055" id="Fill-83" fill="#231916"></path>
                        <path d="M46.1621994,30.0460465 C46.1621994,30.1910386 46.0446075,30.3083929 45.8997971,30.3083929 C45.7547741,30.3083929 45.6371822,30.1910386 45.6371822,30.0460465 C45.6371822,29.9010543 45.7547741,29.7837 45.8997971,29.7837 C46.0446075,29.7837 46.1621994,29.9010543 46.1621994,30.0460465" id="Fill-85" fill="#231916"></path>
                        <path d="M37.4498264,40.049589 C37.4498264,40.2103134 37.3196885,40.3404236 37.1589299,40.3404236 C36.9981713,40.3404236 36.8680333,40.2103134 36.8680333,40.049589 C36.8680333,39.8888646 36.9981713,39.7587543 37.1589299,39.7587543 C37.3196885,39.7587543 37.4498264,39.8888646 37.4498264,40.049589" id="Fill-87" fill="#231916"></path>
                        <path d="M37.7856121,47.5656874 C37.7856121,47.5656874 37.5198075,47.1404906 37.5729684,46.8747425 C37.6261293,46.6089945 37.8785374,46.5824197 38.0646006,46.5426638 C38.2508764,46.5026953 38.4369397,46.6755378 38.5032845,47.0541756 C38.569842,47.4328134 38.6893477,48.0840024 38.8488305,48.4029 C39.0083132,48.721585 39.1012385,49.3595929 39.1412155,49.5721913 C39.1809799,49.7847898 39.3936236,50.1434433 39.5399224,50.2231677 C39.6862213,50.3028921 39.805727,50.2631362 39.9386293,50.0771126 C40.0715316,49.891089 40.2841753,49.7050654 40.3639167,49.5322228 C40.443658,49.3595929 40.5633764,49.1999315 40.7626236,49.0139079 C40.9620833,48.8278843 41.4271351,48.2832071 41.5732213,48.270026 C41.7195201,48.2566323 41.8790029,48.4958055 41.8921868,48.6286795 C41.9055833,48.7615535 41.6529626,49.0804512 41.5866178,49.2399 C41.5200603,49.3993488 41.0684052,49.7713961 40.9089224,49.9442386 C40.7494397,50.1168685 40.6696983,50.3294669 40.6962787,50.4623409 C40.7228592,50.595215 40.9752672,50.9672622 41.2942328,51.2993409 C41.6131983,51.6316323 42.1448075,52.1497346 42.3574511,52.3357583 C42.5700948,52.5217819 42.7427615,52.7078055 42.5700948,52.9603724 C42.3972155,53.2127268 42.1048305,52.9337976 41.8524224,52.7078055 C41.5998017,52.482026 40.882342,51.8042622 40.7760201,51.6847819 C40.6696983,51.565089 40.2575948,51.0788764 40.151273,51.1758213 C40.0449511,51.2727661 39.9254454,51.4700575 39.9520259,51.8565614 C39.9786063,52.2428528 40.1380891,52.5749315 40.2310144,52.747774 C40.3241523,52.9204039 40.536796,53.1595772 40.536796,53.3589945 C40.536796,53.5581992 40.4274971,53.8239472 40.1034282,53.9302465 C39.7791466,54.0365457 39.420204,53.8770969 39.2741178,53.4918685 C39.127819,53.1064276 39.0214971,52.3117346 38.9551523,52.0846795 C38.8885948,51.8574118 38.8488305,51.3271913 38.8088534,51.1605142 C38.7690891,50.993837 38.6627672,50.7680575 38.6096063,50.5554591 C38.5564454,50.3428606 38.3703822,50.023963 38.3703822,49.9308449 C38.3703822,49.8379394 38.3172213,49.3196244 38.2906408,49.2133252 C38.2640603,49.107026 38.0779971,48.6152858 38.0114397,48.455837 C37.9450948,48.2966008 37.8653534,47.7111047 37.7856121,47.5656874" id="Fill-89" fill="#844C32"></path>
                        <path d="M50.3315891,43.3668685 C50.3315891,43.3668685 50.7168994,43.5528921 50.8366178,43.7786717 C50.9563362,44.0046638 51.2619052,44.4430417 51.3814109,44.7353646 C51.5011293,45.0276874 51.8332787,44.9745378 52.019342,44.9213882 C52.2056178,44.8682386 52.444842,44.5627346 52.2853592,43.9515142 C52.1258764,43.3402937 51.4877328,42.7688291 51.2087443,42.5696244 C50.9297557,42.3704197 50.1189454,41.918648 49.5075948,41.8654984 C48.8962443,41.8123488 48.1385948,42.1178528 47.7664684,42.4501441 C47.394342,42.7822228 46.8761293,43.3536874 46.7566236,44.0977819 C46.6369052,44.8416638 46.7034626,45.5859709 47.2216753,46.4363646 C47.7398879,47.2865457 48.2317328,47.6585929 48.6969971,47.8180417 C49.1620489,47.9774906 49.4678305,48.1769079 49.9728592,48.1635142 C50.4776753,48.1503331 50.9297557,48.6286795 51.062658,48.8278843 C51.1953477,49.0273016 51.32825,49.638522 51.3548305,50.0637189 C51.3814109,50.4889157 51.3016695,51.1666795 50.770273,51.5519079 C50.2386638,51.9373488 49.9328822,52.0959472 49.3746925,52.1095535 C48.8165029,52.1233724 48.6304397,51.9505299 48.2449167,51.8044748 C47.8596063,51.6582071 47.5406408,51.6847819 47.2082787,51.3527031 C46.8761293,51.0204118 46.490819,50.3428606 46.3711006,50.0237504 C46.2515948,49.7048528 46.1984339,49.5188291 45.799727,49.5719787 C45.4010201,49.6251283 45.3212787,50.1202701 45.3212787,50.3777268 C45.3212787,50.6351835 45.4407845,51.1932543 45.7199856,51.5387268 C45.9989741,51.8841992 46.3579167,52.2030969 46.6369052,52.3891205 C46.9161063,52.5751441 47.5140603,52.9072228 47.7930489,52.9603724 C48.07225,53.013522 48.6295891,53.2261205 48.8294741,53.3058449 C49.0291466,53.3855693 49.706842,53.4652937 50.5442328,53.4521126 C51.3814109,53.4387189 51.7669339,53.0800654 51.9130201,52.9869472 C52.059319,52.8940417 52.5511638,52.3757268 52.6175086,52.1631283 C52.6840661,51.9505299 52.9896351,51.2995535 53.0162155,50.9009315 C53.042796,50.5023094 52.9630546,49.638522 52.7504109,48.8810339 C52.5377672,48.1237583 52.099296,47.4991441 51.5808707,47.1936402 C51.062658,46.8879236 50.4113305,46.967648 49.7733994,46.8879236 C49.1354684,46.8081992 48.7899224,46.4895142 48.803319,46.1971913 C48.8165029,45.9048685 48.5506983,45.9845929 48.6704167,45.0942307 C48.7899224,44.2040811 48.5904626,43.7654906 49.0823075,43.4731677 C49.5739397,43.1808449 50.184227,43.2839551 50.3315891,43.3668685" id="Fill-91" fill="#844C32"></path>
                        <path d="M53.9465316,46.4229709 C53.9465316,46.4229709 53.7472845,46.2103724 53.7472845,45.8780811 C53.7472845,45.5460024 54.0794339,45.6654827 54.2123362,45.732026 C54.3452385,45.7983567 54.5712787,46.1706165 54.664204,46.4229709 C54.757342,46.6753252 54.757342,47.0076165 55.0363305,47.047585 C55.315319,47.0873409 55.5679397,46.9013173 55.7673994,46.8615614 C55.9666466,46.8215929 56.1792902,46.7550496 56.2324511,46.9412858 C56.2856121,47.1273094 56.0463879,47.4593882 55.8603247,47.5656874 C55.6742615,47.6719866 55.5679397,47.4593882 55.1824167,47.7914669 C54.7971063,48.1237583 55.1026753,48.3763252 55.1292557,48.4958055 C55.1558362,48.6154984 55.2489741,49.0141205 55.4616178,49.0273016 C55.6742615,49.0406953 55.8071638,48.8812465 56.033204,48.6952228 C56.2590316,48.5091992 56.5648132,48.3895063 56.7374799,48.1637268 C56.9103592,47.9377346 57.1361868,47.8446165 57.3488305,48.0306402 C57.5614741,48.2168764 57.32225,48.5223803 57.2293247,48.6154984 C57.2293247,48.6154984 57.0764339,48.7815378 57.023273,48.801522 C56.9701121,48.8212937 56.8438017,48.9161126 56.7108994,49.028152 C56.5779971,49.1401913 56.2124626,49.4393173 55.8005718,49.6585063 C55.3884684,49.8776953 55.1892213,49.8842858 54.9431925,49.6585063 C54.6973764,49.4325142 54.4781408,49.0604669 54.4781408,48.9675614 C54.4781408,48.8744433 54.4781408,48.6086953 54.4315718,48.4958055 C54.3852155,48.3829157 54.2189282,48.1834984 54.0860259,48.1637268 C53.9531236,48.1437425 53.5544167,48.1569236 53.4083305,48.1569236 C53.2620316,48.1569236 53.1357213,47.9643094 53.1159454,47.884585 C53.0959569,47.8048606 53.2686236,47.6454118 53.3683534,47.5788685 C53.4680833,47.5125378 53.680727,47.5788685 53.7670603,47.572278 C53.8536063,47.5656874 54.0660374,47.3662701 54.0994224,47.2070339 C54.1325948,47.047585 54.0860259,46.7950181 54.0594454,46.6953094 C54.0328649,46.5956008 54.0154282,46.517152 53.9465316,46.4229709" id="Fill-93" fill="#844C32"></path>
                        <path d="M61.6947356,45.8981291 C61.6947356,45.8981291 61.2228793,45.3666331 61.1099655,45.1672157 C60.9970517,44.968011 60.8773333,44.6756882 60.8507529,44.5759795 C60.8241724,44.4764835 60.5717644,44.1773575 60.4720345,43.9913339 C60.3723046,43.8053102 60.3657126,43.7255858 60.2793793,43.4998063 C60.193046,43.2738142 60.1596609,43.0877906 60.2394023,42.9615071 C60.3191437,42.8354362 60.5251954,42.8020583 60.6381092,42.9615071 C60.7512356,43.1209559 60.9636667,43.5461528 61.0502126,43.6326803 C61.136546,43.7189953 61.3557816,43.7521606 61.482092,43.6924205 C61.6084023,43.6326803 61.9539483,43.300389 62.1000345,43.1874992 C62.2463333,43.0746094 62.4323966,42.9549165 62.6582241,42.9880819 C62.8842644,43.0214598 63.150069,43.2738142 63.150069,43.3735228 C63.150069,43.4732315 62.9905862,43.6458614 62.8311034,43.652452 C62.6716207,43.6592551 62.3726437,43.7389795 62.2397414,43.9250031 C62.1066264,44.1110268 62.0668621,44.1376016 62.0534655,44.2439008 C62.0402816,44.3502 62.0336897,44.6359323 62.1334195,44.8551213 C62.2329368,45.0743102 62.3526552,45.3134835 62.4058161,45.4463575 C62.458977,45.5792315 62.5984713,45.7652551 62.6184598,45.8583732 C62.6382356,45.9512787 62.5984713,46.2036331 62.5121379,46.2701764 C62.4258046,46.3367197 62.2463333,46.3433102 62.1000345,46.2302079 C61.9539483,46.1173181 61.7923391,46.0097433 61.6947356,45.8981291" id="Fill-95" fill="#844C32"></path>
                        <path d="M64.3729402,40.5433063 C64.3729402,40.5433063 64.3529517,40.643015 64.1137276,40.643015 C63.8745034,40.643015 63.7681816,40.4435976 63.7018368,40.390448 C63.6352793,40.3372984 63.5955149,40.1646685 63.4826011,40.038385 C63.3692621,39.9121016 63.2963253,39.8323772 63.0836816,39.9520701 C62.8710379,40.0715504 62.9573713,40.2309992 62.9773598,40.3972512 C62.9971356,40.5632906 63.2097793,40.7624953 63.2563483,40.8356291 C63.3029172,40.908763 63.3360897,41.0016685 63.2629402,41.1213614 C63.1900034,41.2408417 62.8776299,41.5065898 62.7247391,41.6860228 C62.5718483,41.8654559 62.6715782,42.011511 62.7978885,42.0249047 C62.9241989,42.0380858 63.0105322,42.0712512 63.1500264,42.0249047 C63.2895207,41.9783457 63.3718138,41.8920307 63.5100322,41.9517709 C63.6486759,42.011511 63.8081586,42.3503929 63.894492,42.5164323 C63.9808253,42.6826843 64.3331759,43.2871016 64.4726701,43.4665346 C64.6121644,43.6459677 64.8116241,43.8254008 65.0774287,43.8254008 C65.3430207,43.8254008 65.6156299,43.8319913 65.854854,43.7191016 C66.0940782,43.6059992 66.3333023,43.4599441 66.4462161,43.3336606 C66.5591299,43.2073772 66.7651816,42.9924402 66.8715034,42.8540386 C66.9778253,42.7158496 67.1041356,42.6295346 67.1307161,42.5164323 C67.1572966,42.4035425 67.1970609,42.3569835 67.1704805,42.2241094 C67.1439,42.0912354 67.0509747,41.9583614 66.9180724,41.9451803 C66.7851701,41.9317866 66.5525379,42.1509756 66.4662046,42.2574874 C66.3798713,42.3637866 66.4064517,42.443511 66.3464862,42.5232354 C66.2867333,42.6029598 66.1406471,42.7158496 65.9611759,42.9018732 C65.7817046,43.0878969 65.6553943,43.147637 65.4227621,43.1542276 C65.1903425,43.1610307 64.9976874,43.0853457 64.8182161,42.8540386 C64.6387448,42.6227315 64.3197793,41.5663299 64.3397678,41.5065898 C64.3597563,41.4468496 64.6785092,41.1545268 64.8382046,40.995078 C64.9976874,40.8356291 65.3564172,40.5367157 65.3630092,40.4435976 C65.3696011,40.3506921 65.3564172,40.2244087 65.3032563,40.1047157 C65.2500954,39.9852354 65.0972046,39.9586606 64.9711069,40.0052197 C64.8447966,40.0515661 64.5124345,40.4104323 64.3729402,40.5433063" id="Fill-97" fill="#844C32"></path>
                        <path d="M29.6653879,45.1075181 C29.4927213,45.7453134 29.2800776,45.7718882 29.0540374,45.9710929 C28.8279971,46.1705102 28.1503017,46.768337 27.7647787,46.7949118 C27.3794684,46.8216992 26.8344626,46.8083055 26.1701638,46.369715 C25.5056523,45.931337 25.0006236,45.4395969 25.0138075,45.2004236 C25.027204,44.961463 25.2073132,44.6653134 25.2930086,44.4962976 C25.2930086,44.4962976 25.7846408,43.473274 26.2099282,43.1541638 C26.6352155,42.8352661 27.0736868,42.6360614 27.5655316,42.7023921 C28.0573764,42.7689354 28.7350718,43.1148331 29.1071983,43.5929669 C29.4793247,44.0711008 29.8380546,44.4697228 29.6653879,45.1075181 M27.1668247,50.0238567 C27.0605029,50.2364551 26.6483994,50.9539748 26.3560144,51.1665732 C26.063842,51.3791717 24.7613994,52.0701165 23.7645259,51.7909748 C22.7676523,51.5120457 22.2360431,50.4622346 22.1962787,49.8644079 C22.1563017,49.2663685 22.6481466,49.1069197 22.7544684,48.7748409 C22.8607902,48.4427622 23.020273,48.2167701 23.1399914,48.1238646 C23.2594971,48.0307465 23.6184397,47.8447228 23.7645259,47.3000457 C23.7645259,47.3000457 23.8842443,46.8248882 24.1366523,46.8034157 C24.389273,46.7817307 25.0935489,46.9362898 25.3593534,47.0517307 C25.625158,47.1671717 26.4357557,47.5524 26.8344626,47.8581165 C27.2331695,48.1636205 27.605296,48.4027937 27.5787155,49.040589 C27.5521351,49.6783843 27.2731466,49.8112583 27.1668247,50.0238567 M30.901273,43.6990535 C30.7152098,43.0346835 29.9843534,42.6094866 29.6919684,42.4366441 C29.3995833,42.2640142 28.8545776,41.8785732 28.7084914,41.7325181 C28.5624052,41.586463 28.0173994,41.2807465 27.7781753,41.1612661 C27.5389511,41.0415732 27.2331695,40.7360693 26.8344626,40.7492504 C26.4357557,40.7626441 26.1301868,41.1878409 25.9841006,41.4270142 C25.8378017,41.6661874 25.6917155,41.9185417 25.4922557,42.0779906 C25.2930086,42.2374394 25.0669684,42.5163685 24.9606466,42.689211 C24.8543247,42.8618409 24.7613994,43.0878331 24.5353592,43.393337 C24.3095316,43.6990535 23.9771695,44.2571244 23.9771695,44.2571244 C23.7415603,44.6398016 23.6716006,44.9880378 23.405796,45.532715 C23.1399914,46.0773921 22.4752672,46.9545732 22.1962787,47.2600772 C21.9170776,47.5657937 21.4917902,48.070715 21.3588879,48.4427622 C21.2259856,48.8145969 20.8406753,49.1866441 20.5880546,49.4523921 C20.3356466,49.7181402 20.2293247,50.0504315 20.069842,50.3027858 C19.9103592,50.5553528 20.1495833,51.1000299 21.0798994,51.7777937 C22.0102155,52.4555575 22.8741868,52.9604787 23.8176868,53.1596835 C24.7613994,53.3591008 25.3993305,53.2128331 26.3959914,52.7079118 C27.3926523,52.2029906 27.8579167,51.4057465 28.0439799,51.1531795 C28.2300431,50.9008252 28.5224282,50.3027858 28.7084914,49.9441323 C28.8945546,49.5852661 28.9608994,48.9342898 28.9077385,48.6419669 C28.8545776,48.3496441 28.5889856,47.8447228 28.5889856,47.685274 C28.5889856,47.5258252 28.8945546,47.4461008 29.1469626,47.3132268 C29.3995833,47.1803528 29.8114741,46.9146047 30.0109339,46.6886126 C30.2103937,46.4628331 30.9146695,45.798463 31.0607557,45.2935417 C31.2070546,44.7886205 31.0873362,44.3634236 30.901273,43.6990535" id="Fill-99" fill="#844C32"></path>
                        <path d="M31.8715661,51.9638173 C31.5128362,52.2161717 30.981227,52.2958961 30.6488649,52.030148 C30.3167155,51.7646126 30.420273,51.4992898 30.4628017,51.3392031 C30.4628017,51.3392031 30.5691236,50.8344945 30.8083477,50.5819276 C31.0475718,50.3295732 31.246819,50.1567307 31.6988994,50.1567307 C32.1505546,50.1567307 32.655796,50.2896047 32.6689799,50.7479669 C32.6823764,51.2063291 32.230296,51.711463 31.8715661,51.9638173 M33.3600718,50.6750457 C33.3069109,50.0370378 32.7353247,49.6252346 32.3899914,49.4657858 C32.0442328,49.306337 31.2070546,49.2929433 30.7951638,49.3860614 C30.3830603,49.4789669 29.9443764,49.877589 29.9443764,49.877589 C29.7583132,50.1301559 29.5190891,50.528778 29.5324856,51.0787701 C29.5456695,51.6287622 29.6388075,51.9769984 29.8248707,52.2029906 C30.0109339,52.4289827 30.3564799,52.8010299 31.0341753,52.814211 C31.7120833,52.8273921 32.0442328,52.9205102 32.7221408,52.415589 C33.3998362,51.9106677 33.4132328,51.3126283 33.3600718,50.6750457" id="Fill-101" fill="#844C32"></path>
                        <path d="M37.240819,51.9505299 C37.2010546,52.4954197 37.187658,52.5256087 36.8021351,52.8294118 C36.4168247,53.1330024 36.0049339,53.1368291 35.8188707,52.8294118 C35.6328075,52.5219945 35.6593879,52.1950181 35.6593879,52.1950181 C35.6593879,52.1950181 35.5796466,51.8708055 35.7922902,51.6184512 C36.0049339,51.3658843 36.1510201,51.0922701 36.6028879,51.1758213 C37.0547557,51.259585 37.2805833,51.4056402 37.240819,51.9505299 M37.8919339,51.3658843 C37.8653534,51.2064354 37.5995489,50.9672622 37.2540029,50.7546638 C36.9086695,50.5420654 36.4831695,50.4491598 36.2175776,50.3960102 C35.951773,50.3428606 35.6725718,50.4091913 35.3667902,50.5554591 C35.0612213,50.7015142 34.8617615,51.0072307 34.5959569,51.2993409 C34.3301523,51.5918764 34.4498707,51.9505299 34.4498707,51.9505299 C34.5561925,52.7345929 34.9680833,53.3456008 35.2338879,53.5450181 C35.4996925,53.7444354 36.0049339,53.8507346 36.4699856,53.7576165 C36.93525,53.664711 37.533204,53.186152 37.7590316,52.9072228 C37.9850718,52.6282937 37.9185144,51.5253331 37.8919339,51.3658843" id="Fill-103" fill="#844C32"></path>
                        <path d="M59.1430115,46.7950181 C59.0500862,46.9344827 58.8040575,47.1736559 58.5980057,47.1205063 C58.3921667,47.0673567 58.179523,46.7884276 58.1129655,46.6953094 C58.0466207,46.6024039 57.9832529,46.3759866 57.9668793,46.2569315 C57.9668793,46.2569315 57.9269023,46.1837976 57.9668793,46.0575142 C58.0066437,45.9314433 58.172931,45.7586008 58.2924368,45.7520102 C58.4119425,45.7454197 58.6777471,45.7719945 58.8706149,46.0443331 C59.0632701,46.3166717 59.2359368,46.6555535 59.1430115,46.7950181 M61.3226092,46.6289787 C61.2628563,46.5558449 61.0967816,46.263522 60.837569,46.2303567 C60.5783563,46.1969787 60.3657126,46.2767031 60.0401552,46.1172543 C59.7145977,45.9578055 59.5283218,45.7586008 59.4288046,45.5260181 C59.4288046,45.5260181 59.1298276,45.1341992 59.0566782,45.1008213 C58.9835287,45.0676559 58.7443046,45.0410811 58.6511667,45.0145063 C58.5582414,44.9879315 58.1595345,44.9082071 57.880546,45.114215 C57.6013448,45.3202228 57.3355402,45.599152 57.2689828,45.9380339 C57.2026379,46.2767031 57.2689828,46.6953094 57.4018851,46.9079079 C57.535,47.1205063 57.7542356,47.4462071 58.0931897,47.6322307 C58.431931,47.8180417 58.864023,47.8711913 59.0500862,47.7782858 C59.2359368,47.6851677 59.5682989,47.3862543 59.5948793,47.3133331 C59.6214598,47.2401992 59.8606839,47.001026 59.9470172,46.9344827 C60.0333506,46.868152 60.3657126,46.8481677 60.5251954,46.8547583 C60.6846782,46.8613488 60.8973218,46.9942228 61.0767931,46.9478764 C61.2562644,46.9013173 61.3823621,46.7021126 61.3226092,46.6289787" id="Fill-105" fill="#844C32"></path>
                    </g>
                </g>
            </g>
        </g>
    </g>
</svg>