<?xml version="1.0" encoding="UTF-8"?>
<svg width="26px" height="23px" viewBox="0 0 26 23" version="1.1" xmlns="http://www.w3.org/2000/svg" xmlns:xlink="http://www.w3.org/1999/xlink">
    <!-- Generator: Sketch 46.2 (44496) - http://www.bohemiancoding.com/sketch -->
    <title>Combined Shape</title>
    <desc>Created with Sketch.</desc>
    <defs></defs>
    <g id="Page-1" stroke="none" stroke-width="1" fill="none" fill-rule="evenodd">
        <g id="帳號管理-地方" transform="translate(-276.000000, -20.000000)" fill="#FFFFFF">
            <path d="M277.3,23 C276.947915,23 276.643231,22.851566 276.385938,22.554686 C276.128645,22.257812 276,21.906254 276,21.5 C276,21.093746 276.128645,20.742188 276.385938,20.445314 C276.643231,20.148434 276.947915,20 277.3,20 L300.7,20 C301.052087,20 301.35677,20.148434 301.614061,20.445314 C301.871357,20.742188 302,21.093746 302,21.5 C302,21.906254 301.871357,22.257812 301.614061,22.554686 C301.35677,22.851566 301.052087,23 300.7,23 L277.3,23 Z M300.7,40 C301.052087,40 301.35677,40.1484358 301.614061,40.4453128 C301.871357,40.7421892 302,41.0937478 302,41.5 C302,41.9062522 301.871357,42.2578108 301.614061,42.5546875 C301.35677,42.851564 301.052087,43 300.7,43 L277.3,43 C276.947915,43 276.643231,42.851564 276.385938,42.5546875 C276.128645,42.2578108 276,41.9062522 276,41.5 C276,41.0937478 276.128645,40.7421892 276.385938,40.4453128 C276.643231,40.1484358 276.947915,40 277.3,40 L300.7,40 Z M300.7,30 C301.052087,30 301.35677,30.148434 301.614061,30.445314 C301.871357,30.742188 302,31.093746 302,31.5 C302,31.906254 301.871357,32.257812 301.614061,32.554686 C301.35677,32.851566 301.052087,33 300.7,33 L277.3,33 C276.947915,33 276.643231,32.851566 276.385938,32.554686 C276.128645,32.257812 276,31.906254 276,31.5 C276,31.093746 276.128645,30.742188 276.385938,30.445314 C276.643231,30.148434 276.947915,30 277.3,30 L300.7,30 Z" id="Combined-Shape"></path>
        </g>
    </g>
</svg>