<?xml version="1.0" encoding="UTF-8"?>
<svg width="1440px" height="436px" viewBox="0 0 1440 436" version="1.1" xmlns="http://www.w3.org/2000/svg" xmlns:xlink="http://www.w3.org/1999/xlink">
    <!-- Generator: Sketch 46.2 (44496) - http://www.bohemiancoding.com/sketch -->
    <title>Group</title>
    <desc>Created with Sketch.</desc>
    <defs>
        <linearGradient x1="46.9533443%" y1="100%" x2="46.9513379%" y2="31.9134443%" id="linearGradient-1">
            <stop stop-color="#FFFFFF" offset="0%"></stop>
            <stop stop-color="#E0ECF4" offset="49.7528699%"></stop>
            <stop stop-color="#E0ECF4" offset="100%"></stop>
        </linearGradient>
        <polygon id="path-2" points="1441.25678 277.991841 1441.25678 0.266417391 0.000968456376 0.266417391 0.000968456376 277.991841"></polygon>
        <polygon id="path-4" points="1441.25678 0.353272603 1441.25678 176.999432 0.000968456376 176.999432 0.000968456376 0.353272603 1441.25678 0.353272603"></polygon>
    </defs>
    <g id="Page-1" stroke="none" stroke-width="1" fill="none" fill-rule="evenodd">
        <g id="輸入電子郵件" transform="translate(0.000000, -588.000000)">
            <g id="Group" transform="translate(0.000000, 586.000000)">
                <path d="M0,184 L236.968965,237.879803 C290.663891,266.785539 359.09114,279.376185 442.250712,275.651742 C476.886727,274.100508 551.418016,237.691275 672.590419,226.832832 C728.014908,221.86616 878.623488,299.134302 1002.46671,292.183572 C1055.66966,289.197544 1132.42603,298.165634 1231.39556,271.284997 C1272.09599,260.23055 1341.6308,231.135551 1440,184 L1440,438 L0,438 L0,184 Z" id="Rectangle-4" fill="url(#linearGradient-1)"></path>
                <g id="Page-1">
                    <path d="M1341.07553,198.703512 C1293.74339,238.084248 1239.70347,263.169835 1178.62897,273.16529 C1148.35074,278.119391 1117.96357,278.347221 1087.66839,276.849357 C1036.95694,274.338375 987.966622,262.811123 940.711951,244.000569 C925.200044,237.827333 909.419438,232.335165 893.757447,226.53276 C893.723557,226.603048 893.684826,226.661217 893.648515,226.729082 C854.914741,213.267695 827.408218,205.223341 812.37077,201.321139 C812.479702,201.216919 812.591055,201.115122 812.699987,201.008478 C772.511366,192.290328 731.79261,189.534549 690.805156,190.760955 C647.380046,192.05765 604.775558,198.667156 563.180505,211.597746 C533.282321,220.89032 503.510014,230.859114 473.130109,238.256333 C449.992966,243.891501 426.107825,245.159111 401.949143,243.106213 C370.310469,240.418298 341.307948,229.981725 313.27371,216.34583 C295.866387,207.879747 279.122339,197.995784 262.332297,188.308142 C227.955801,168.482046 192.615861,151.031203 153.134088,144.019357 C126.712043,139.327019 100.190749,137.802494 73.2966654,141.103612 C49.1718737,144.067831 25.8919097,149.925982 2.85159589,157.243218 C1.96803689,157.52437 0.953759575,157.403184 0,157.468625 L0,207.967002 C17.7752705,203.424935 35.4343469,198.330258 53.3645427,194.517734 C55.1365022,194.142056 56.913303,193.790615 58.6949452,193.458565 C71.1591789,191.136633 83.8340142,189.803582 96.3950763,187.934888 L96.3950763,187.934888 L161.352397,187.789464 C190.536472,189.389125 218.720794,195.891988 245.849686,206.452171 C277.101047,218.61444 307.662505,232.628436 339.16804,244.04662 C377.906656,258.084853 418.305878,259.11009 459.077889,256.044074 C489.186675,253.780312 517.460563,243.355857 546.831032,238.125452 C571.265675,233.774859 596.01501,231.062708 620.701406,228.336013 C632.814637,226.998115 645.104579,227.221098 657.317059,226.840573 C698.161692,225.565692 736.515415,235.871384 773.65152,251.918889 C815.384553,269.949003 856.727852,289.004354 901.329426,299.346402 C932.900321,306.663637 964.812535,310.563416 997.199209,312.315772 C1040.74293,314.674059 1083.8243,310.560992 1126.89357,305.703841 C1130.97972,305.243333 1135.05378,304.67618 1139.12057,304.043587 C1141.51223,303.672757 1143.89663,303.272842 1146.28103,302.863232 C1156.07522,301.178741 1165.84036,299.239758 1175.63939,297.572233 L1175.63697,297.574657 L1219.07661,287.351371 C1229.03541,284.728897 1238.94095,281.953729 1248.78598,279.023441 C1253.34901,277.666153 1257.90479,276.284628 1262.4412,274.849781 C1267.21484,273.342222 1271.97153,271.791036 1276.71128,270.193799 C1283.03175,268.063342 1289.32076,265.848055 1295.57587,263.540665 C1320.59391,254.323227 1345.06002,243.644281 1368.76845,230.994843 C1391.8717,218.667762 1414.17612,205.014901 1432.31207,185.622651 C1435.22661,182.505737 1438.10483,179.359738 1441,176.225857 L1441,93.6542849 L1441,81 C1433.37719,91.9552514 1425.77374,102.922622 1418.12429,113.858483 C1396.045,145.420272 1370.63481,174.112366 1341.07553,198.703512" id="Fill-1" fill="#E3A2B8"></path>
                    <g id="Group-5">
                        <mask id="mask-3" fill="white">
                            <use xlink:href="#path-2"></use>
                        </mask>
                        <g id="Clip-4"></g>
                        <path d="M1433.62873,11.9111496 C1433.28977,12.3551235 1432.95081,12.7990974 1432.61185,13.2454974 L1432.5949,13.2649061 C1430.64104,16.6347409 1428.68476,20.0070017 1426.7309,23.3792626 C1426.32657,23.9105757 1425.92224,24.4418887 1425.52033,24.9707757 L1425.60507,24.9926104 C1423.17909,29.2819322 1420.75068,33.57368 1418.32228,37.8630017 C1416.01735,41.7253322 1413.71001,45.5876626 1411.40266,49.4524191 C1378.0127,100.565219 1320.05543,178.255802 1255.40371,216.20708 C1242.98083,222.039393 1230.25289,227.233645 1217.66054,232.709323 L1217.86149,232.653523 C1216.62913,233.17028 1215.39193,233.689463 1214.15715,234.203793 L1214.1741,234.009706 C1213.26375,234.295984 1212.3534,234.579837 1211.44305,234.863689 C1196.00101,238.454297 1114.94606,254.990506 1005.27321,235.39015 C1005.16184,235.363463 1005.04805,235.336776 1004.93667,235.310089 C1002.95376,234.766645 985.519124,229.97755 960.588636,222.706567 C940.035571,216.073645 919.700408,208.705619 899.229661,201.757306 C869.154249,191.545906 838.645452,182.613054 808.337609,173.093089 C807.429682,172.80681 806.591967,172.307037 805.720356,171.906732 C805.28213,171.826671 804.841482,171.744184 804.403255,171.664123 C728.965346,144.416741 620.185905,157.017837 579.377574,168.978445 C560.669418,174.461402 541.961262,179.944358 523.253106,185.427315 C521.783473,186.00715 520.313841,186.586984 518.84663,187.166819 C515.519982,188.311932 512.195755,189.457045 508.871529,190.599732 C508.353405,190.665237 507.837702,190.730741 507.319578,190.796245 L507.254207,190.927254 C506.745767,191.286315 506.237328,191.64295 505.728888,192.00201 L505.140551,192.191245 L504.537687,192.043254 C503.031737,192.584271 501.523366,193.122863 500.014995,193.66388 C498.07324,194.534845 496.133906,195.40581 494.192151,196.276776 L493.623183,196.485419 L493.02274,196.415063 C491.085828,197.028863 489.148915,197.645089 487.212002,198.261315 L481.401264,200.398697 C478.541896,201.228419 475.682529,202.060567 472.825583,202.890289 C471.835336,203.229941 470.849932,203.572019 469.862106,203.914097 C469.864527,203.938358 469.857264,203.965045 469.859685,203.991732 C453.749413,208.467863 438.237163,212.111845 424.758671,214.01875 C422.967027,213.999341 421.177804,213.982358 419.38616,213.965376 C413.178354,214.387515 406.968128,214.81208 400.760322,215.234219 L396.370794,214.865454 C358.232982,211.653315 330.181643,208.72988 281.567554,179.27961 C280.90174,178.845341 280.235927,178.411071 279.570113,177.976802 C278.86314,177.569219 278.156166,177.15921 277.449193,176.749202 C276.628427,176.239723 275.822187,175.747228 274.991735,175.220767 C268.336019,170.831976 261.682723,166.443184 255.029428,162.054393 C252.070794,160.154767 249.11216,158.257567 246.155947,156.360367 C243.843757,154.897437 241.531567,153.43208 239.221799,151.96915 C237.71827,151.030254 236.214742,150.091358 234.711213,149.152463 C233.779074,148.650263 232.844514,148.148063 231.909953,147.648289 C230.563799,146.922889 229.215223,146.202341 227.869069,145.479367 C226.016896,144.385202 224.159881,143.303167 222.298024,142.247819 C221.644316,141.745619 220.988187,141.243419 220.334479,140.738793 C219.874462,140.619915 219.414445,140.501037 218.952007,140.384584 C207.025467,133.788054 194.784178,128.004263 181.404953,123.384993 C181.322635,123.348602 181.240316,123.31221 181.157997,123.275819 C181.046624,123.249132 180.940094,123.217593 180.831143,123.190906 C158.619596,115.59968 133.24846,111.227871 100.877806,111.788297 C97.0136648,111.715515 93.1495238,111.640306 89.2853829,111.567523 C86.847294,111.768889 84.4067839,111.970254 81.968695,112.169193 C19.3507268,113.649106 22.1761983,116.254723 0.000968456376,124.467028 L0.000968456376,150.416454 L0.000968456376,157.682584 C0.954897987,157.61708 1.9669349,157.738384 2.85307248,157.456958 C25.8950708,150.132602 49.1791832,144.26875 73.310695,141.301645 C100.20715,137.997315 126.73317,139.52575 153.162344,144.222654 C192.648732,151.238897 227.99739,168.706723 262.380012,188.554541 C279.173046,198.249184 295.917656,208.142767 313.330502,216.617089 C341.369735,230.266254 370.377425,240.71541 402.021737,243.403515 C426.182302,245.45841 450.0717,244.189567 473.215386,238.548915 C503.600705,231.144497 533.375896,221.166002 563.281829,211.864384 C604.884294,198.92121 647.493953,192.305271 690.926801,191.007315 C731.92398,189.779715 772.649992,192.538176 812.843353,201.26481 C812.736822,201.371558 812.62545,201.473454 812.516499,201.577776 C827.556626,205.483776 855.068051,213.535958 893.808727,227.010445 C893.842623,226.942515 893.883782,226.884289 893.917678,226.813932 C909.580039,232.621984 925.365878,238.119497 940.878128,244.301167 C988.143641,263.127602 1037.14027,274.666071 1087.86075,277.179497 C1118.16133,278.678819 1148.55391,278.450767 1178.83754,273.491845 C1239.92293,263.486663 1293.9749,238.376663 1341.31547,198.957602 C1370.88002,174.342523 1396.29474,145.622506 1418.37797,114.030002 C1426.02877,103.083497 1433.63115,92.1054539 1441.25775,81.141967 L1441.25775,0.265932174 L1433.62873,11.9111496 Z" id="Fill-3" fill="#DDE075" mask="url(#mask-3)"></path>
                    </g>
                    <path d="M500,193.028 C500.006,193.026 500.012,193.024 500.018,193.022 L500.064,193 L500,193.028 Z" id="Fill-6" fill="#DBE075"></path>
                    <g id="Group-10" transform="translate(0.000000, 176.000000)">
                        <mask id="mask-5" fill="white">
                            <use xlink:href="#path-4"></use>
                        </mask>
                        <g id="Clip-9"></g>
                        <path d="M1369.01332,55.1432589 C1345.29825,67.7975466 1320.82778,78.4805877 1295.80528,87.7039849 C1289.55148,90.0098342 1283.26135,92.2259712 1276.93975,94.3572452 C1272.19916,95.9550945 1267.4392,97.5093 1262.66471,99.017437 C1258.12991,100.452834 1253.57332,101.832464 1249.00947,103.190273 C1239.16027,106.121684 1229.25296,108.897916 1219.29239,111.521396 L1175.84743,121.751026 L1175.84743,121.748601 C1166.04908,123.414341 1156.28219,125.354067 1146.48626,127.039204 C1144.09901,127.448971 1141.71419,127.84904 1139.32452,128.222437 C1135.25701,128.852848 1131.18223,129.420218 1127.09534,129.880903 C1084.01598,134.739916 1040.92693,138.85456 997.375452,136.497793 C964.985428,134.742341 933.065106,130.843492 901.491007,123.521026 C856.881485,113.177437 815.530819,94.1123548 773.790349,76.0753274 C736.645205,60.0240945 698.284648,49.7144507 657.435158,50.9873959 C645.218081,51.3680671 632.928369,51.1474233 620.81298,52.4834096 C596.119764,55.2111493 571.36844,57.9243411 546.929443,62.2766014 C517.551319,67.5090123 489.274814,77.9374644 459.158242,80.2020945 C418.378965,83.271711 377.972544,82.2460808 339.229447,68.2000397 C307.715876,56.7774781 277.151393,42.7605329 245.894463,30.5911767 C218.758316,20.0293685 190.571393,13.5215877 161.382118,11.9213137 L96.4108007,12.0667932 L96.4108007,12.0667932 C83.8475003,13.9362041 71.1728275,15.2697658 58.7039517,17.5925877 C56.9244131,17.9247658 55.1472956,18.2763411 53.3750205,18.6545877 C35.4416295,22.4661493 17.7794064,27.5627795 0.000968456376,32.1065877 L0.000968456376,59.531889 C11.7749768,57.4879027 23.4787721,54.7237932 35.3375205,53.5429849 C67.9018661,50.3012178 100.410526,51.2080397 132.853814,55.8779301 C180.472814,62.7348616 223.971032,81.3901767 266.859123,101.951273 C294.152645,115.034725 321.901341,127.133766 351.6499,133.314218 C364.116354,135.906177 377.079143,136.543862 389.857925,137.091834 C418.529076,138.321136 447.255913,137.426437 475.108718,130.167012 C492.862945,125.540766 510.346004,119.871916 527.833905,114.227314 L527.838747,114.227314 C531.245292,113.126519 534.651838,112.032999 538.060804,110.941903 C553.793378,106.381122 589.265514,97.6450808 655.246447,88.4216836 C663.621173,88.1792178 672.012848,88.1961904 680.414207,88.489574 C697.708416,89.0933137 714.913044,92.2356699 732.15641,94.2335877 C732.15641,94.2335877 770.466123,103.888574 823.888598,121.857711 C824.547148,122.199588 825.205698,122.546314 825.864249,122.88819 C837.87795,126.944642 849.862598,131.100505 861.866614,135.188478 C861.958618,135.219999 862.050621,135.253944 862.142624,135.287889 C862.142624,135.287889 862.128098,135.27819 862.125677,135.275766 C872.483317,138.801218 882.857906,142.275752 893.288182,145.566012 C941.638366,160.819533 990.845635,171.77656 1041.61454,175.348081 C1069.94915,177.341149 1098.21355,177.44056 1126.47553,176.126396 L1126.47553,176.136095 C1126.47553,176.136095 1213.58334,175.612368 1326.32377,144.525834 C1360.57565,135.132711 1394.24161,123.984136 1424.8642,105.360341 C1430.5103,101.929451 1435.80292,97.9166425 1441.25775,94.1729712 L1441.25775,0.353272603 C1438.36206,3.48835479 1435.48333,6.63798493 1432.56827,9.75366986 C1414.42908,29.1557795 1392.12069,42.8138753 1369.01332,55.1432589" id="Fill-8" fill="#E2C432" mask="url(#mask-5)"></path>
                    </g>
                </g>
                <circle id="Oval-4" stroke="#E0ECF4" fill-opacity="0.5" fill="#C4D9E7" cx="819" cy="307" r="23"></circle>
                <circle id="Oval-4-Copy-5" stroke="#E0ECF4" fill-opacity="0.5" fill="#C4D9E7" cx="177" cy="243" r="29"></circle>
                <circle id="Oval-4-Copy-8" stroke="#E0ECF4" fill-opacity="0.5" fill="#C4D9E7" cx="547" cy="293" r="29"></circle>
                <circle id="Oval-4-Copy-9" stroke="#E0ECF4" fill-opacity="0.5" fill="#C4D9E7" cx="495" cy="358" r="16"></circle>
                <circle id="Oval-4-Copy" stroke="#FFFFFF" fill-opacity="0.479999989" fill="#E0ECF4" cx="1045" cy="371" r="29"></circle>
                <circle id="Oval-4-Copy-6" stroke="#FFFFFF" fill-opacity="0.540000021" fill="#FFFFFF" cx="1302.5" cy="339.5" r="17.5"></circle>
                <circle id="Oval-4-Copy-7" stroke="#FFFFFF" fill-opacity="0.540000021" fill="#FFFFFF" cx="1074.5" cy="357.5" r="17.5"></circle>
                <circle id="Oval-4-Copy-2" stroke="#FFFFFF" fill-opacity="0.479999989" fill="#E0ECF4" cx="1340" cy="252" r="20"></circle>
                <circle id="Oval-4-Copy-3" stroke="#FFFFFF" fill-opacity="0.479999989" fill="#E0ECF4" cx="349" cy="371" r="20"></circle>
                <circle id="Oval-4-Copy-4" stroke="#FFFFFF" fill-opacity="0.479999989" fill="#E0ECF4" cx="369" cy="353" r="20"></circle>
            </g>
        </g>
    </g>
</svg>