<?xml version="1.0" encoding="UTF-8"?>
<svg width="203px" height="47px" viewBox="0 0 203 47" version="1.1" xmlns="http://www.w3.org/2000/svg" xmlns:xlink="http://www.w3.org/1999/xlink">
    <!-- Generator: Sketch 46.2 (44496) - http://www.bohemiancoding.com/sketch -->
    <title>Combined Shape</title>
    <desc>Created with Sketch.</desc>
    <defs></defs>
    <g id="Page-1" stroke="none" stroke-width="1" fill="none" fill-rule="evenodd">
        <path d="M185.780238,36.1942298 L185.779661,36.1942298 L185.780816,36.1942298 L185.780816,46.1176471 L187.921236,46.1176471 L187.921236,40.5424492 C187.921236,39.2387846 189.544446,37.7325311 191.519774,37.7325311 L191.519774,36.0304402 C191.519958,36.0308324 195.599899,44.715555 195.539993,44.8924414 C195.239386,45.7203294 194.345053,46.509137 193.818723,46.8649745 C193.246393,47.26812 192.604527,47.5252281 192.117779,47.6578958 L192.361153,48.3289479 L192.117779,47.6578958 C192.604527,47.5252281 193.246393,47.26812 193.818723,46.8649745 C194.345053,46.509137 195.239386,45.7203294 195.539993,44.8924414 C195.599899,44.715555 191.519958,36.0308324 191.519774,36.0304402 L191.519774,37.7325311 C189.544446,37.7325311 187.921236,39.2387846 187.921236,40.5424492 L187.921236,46.1176471 L185.780816,46.1176471 L185.780816,36.1942298 L185.780238,36.1942298 Z M81.4375216,34.5736731 L76.7175141,34.5736731 L76.7175141,33.1470588 L88.1977401,33.1470588 L88.1977401,34.5736731 L83.4643615,34.5736731 L83.4643615,46.1176471 L81.4386359,46.1176471 L81.4386359,34.5736731 L81.4375216,34.5736731 Z M95.2115287,43.5872241 C95.2115287,44.4258658 95.2548448,45.2399728 95.3728814,45.9001801 L93.6044992,45.9001801 L93.4442294,44.6823653 L93.3792551,44.6823653 C92.7749947,45.4407115 91.6130388,46.1176471 90.0688177,46.1176471 C87.8813517,46.1176471 86.7627119,44.7459326 86.7627119,43.342992 C86.7627119,41.0077317 89.0898725,39.7296953 93.267716,39.7464235 L93.267716,39.5456848 C93.267716,38.7661495 93.0218968,37.306333 90.8051924,37.3286373 C89.7807652,37.3286373 88.7314313,37.5895976 87.9723156,38.0490662 L87.5229105,36.865823 C88.418472,36.3695524 89.7374491,36.0294118 91.1019081,36.0294118 C94.406931,36.0294118 95.2115287,38.0490662 95.2115287,39.9694665 L95.2115287,43.5872241 L95.2115287,43.5872241 Z M93.3099493,40.9686992 C91.1668823,40.9296667 88.7314313,41.2653464 88.7314313,43.1467142 C88.7314313,44.3009618 89.5815109,44.826228 90.5626219,44.826228 C91.994221,44.826228 92.9049432,44.022158 93.2211512,43.2058206 C93.2893741,43.0050819 93.3088664,42.8054584 93.3088664,42.6459826 L93.3088664,40.9686992 L93.3099493,40.9686992 Z M101.112994,34.3007568 C101.112994,34.9265635 100.558233,35.429976 99.639868,35.429976 C98.7976996,35.429976 98.2429379,34.9265635 98.2429379,34.3007568 C98.2429379,33.670693 98.8271086,33.1470588 99.6906655,33.1470588 C100.534171,33.1470588 101.112994,33.6515356 101.112994,34.3007568 Z M98.4835574,46.1176471 L98.4835574,36.8901916 L100.905794,36.8901916 L100.905794,46.1176471 L98.4835574,46.1176471 Z M125.354644,43.5872241 C125.354644,44.4258658 125.401227,45.2399728 125.508475,45.9001801 L123.742675,45.9001801 L123.585594,44.6823653 L123.521679,44.6823653 C122.916107,45.4407115 121.756963,46.1176471 120.209992,46.1176471 C118.020617,46.1176471 116.898305,44.7459326 116.898305,43.342992 C116.898305,41.0077317 119.224177,39.7296953 123.403598,39.7464235 L123.403598,39.5456848 C123.403598,38.7661495 123.160936,37.306333 120.945561,37.3286373 C119.917498,37.3286373 118.865601,37.5895976 118.112699,38.0490662 L117.663124,36.865823 C118.555774,36.3695524 119.870915,36.0294118 121.233723,36.0294118 C124.546493,36.0294118 125.353561,38.0490662 125.353561,39.9694665 L125.353561,43.5872241 L125.354644,43.5872241 Z M123.451264,40.9686992 C121.307388,40.9296667 118.867768,41.2653464 118.867768,43.1467142 C118.867768,44.3009618 119.717085,44.826228 120.703983,44.826228 C122.136122,44.826228 123.050438,44.022158 123.365682,43.2058206 C123.431764,43.0050819 123.451264,42.8054584 123.451264,42.6459826 L123.451264,40.9686992 Z M128.38359,36.2334794 L130.061106,36.2334794 L130.061106,37.8683002 C130.562944,36.9482859 131.744693,36.0294118 133.415126,36.0294118 C134.812382,36.0294118 136.988701,36.8491023 136.988701,40.2395884 L136.988701,46.1176471 L135.148289,46.1176471 L135.148289,40.4219952 C135.148289,38.8259358 134.542239,37.5046266 132.809075,37.5046266 C131.619233,37.5046266 130.219954,38.8624172 130.219954,40.1768861 L130.219954,46.1176471 L128.378531,46.1176471 L128.38359,36.2334794 L128.38359,36.2334794 Z M108.258364,36.0294118 L109.756232,36.0294118 L112.522288,43.1764502 L115.257573,36.0294118 L116.898305,36.0294118 L113.588269,44.6764706 L111.771706,44.6764706 L109.007848,37.7089558 L106.237396,44.6764706 L104.427426,44.6764706 L101.112994,36.0294118 L102.755924,36.0294118 L105.491209,43.1764502 L108.258364,36.0294118 Z M0.661016949,46.1176471 L0.661016949,33.1470588 L2.83699312,33.1470588 L10.3588996,43.929384 L10.3588996,33.1470588 L12.1412429,33.1470588 L12.1412429,46.1176471 L10.1433911,46.1176471 L2.48734157,35.2074852 L2.48734157,46.1176471 L0.661016949,46.1176471 L0.661016949,46.1176471 Z M20.5964207,43.5872241 C20.5964207,44.4258658 20.6365235,45.2399728 20.7514124,45.9001801 L18.9858074,45.9001801 L18.8308157,44.6823653 L18.7603649,44.6823653 C18.1555721,45.4407115 16.9958438,46.1176471 15.4513459,46.1176471 C13.2608685,46.1176471 12.1412429,44.7459326 12.1412429,43.342992 C12.1412429,41.0077317 14.4672026,39.7296953 18.6498114,39.7464235 L18.6498114,39.5456848 C18.6498114,38.7661495 18.4016079,37.306333 16.1894533,37.3286373 C15.1576203,37.3286373 14.105194,37.5895976 13.3454094,38.0490662 L12.9010275,36.865823 C13.7930428,36.3695524 15.1131821,36.0294118 16.4799273,36.0294118 C19.7856948,36.0294118 20.5964207,38.0490662 20.5964207,39.9694665 L20.5964207,43.5872241 L20.5964207,43.5872241 Z M18.6899141,40.9686992 C16.5449588,40.9296667 14.1062778,41.2653464 14.1062778,43.1467142 C14.1062778,44.3009618 14.9603581,44.826228 15.9455852,44.826228 C17.3719426,44.826228 18.2888866,44.022158 18.6032055,43.2058206 C18.6714886,43.0050819 18.6899141,42.8054584 18.6899141,42.6459826 L18.6899141,40.9686992 Z M25.4048238,34.5882353 L25.4048238,36.7756836 L27.9265537,36.7756836 L27.9265537,38.0432656 L25.4048238,38.0432656 L25.4048238,42.9702926 C25.4048238,44.1019493 25.7453884,44.7446966 26.7263306,44.7446966 C27.210495,44.7446966 27.4899325,44.703603 27.7557863,44.6298451 L27.8266159,45.8932123 C27.4899325,46.0080639 26.9494925,46.1176471 26.2673932,46.1176471 C25.4465454,46.1176471 24.7867623,45.8563334 24.3637249,45.4222155 C23.8863524,44.9143398 23.6825959,44.103003 23.6825959,43.0250841 L23.6825959,38.0443192 L22.1864407,38.0443192 L22.1864407,36.7767372 L23.6825959,36.7767372 L23.6825959,34.589289 L25.4048238,34.589289 L25.4048238,34.5882353 Z M33.6666667,34.2891098 C33.6666667,34.9070105 33.1129146,35.4087885 32.1890941,35.4087885 C31.3449598,35.4087885 30.7966102,34.9070105 30.7966102,34.2891098 C30.7966102,33.6669477 31.3719721,33.1470588 32.241768,33.1470588 C33.0899541,33.1470588 33.6666667,33.6456408 33.6666667,34.2891098 Z M31.0127085,46.1176471 L31.0127085,36.8810968 L33.4694769,36.8810968 L33.4694769,46.1176471 L31.0127085,46.1176471 Z M43.7118644,40.98486 C43.7118644,44.5639807 41.053931,46.1176471 38.5925386,46.1176471 C35.8306752,46.1176471 33.6666667,44.2003805 33.6666667,41.1488147 C33.6666667,37.9243716 35.9407792,36.0294118 38.7643833,36.0294118 C41.7155846,36.0294118 43.7118644,38.0481742 43.7118644,40.98486 L43.7118644,40.98486 Z M35.5785677,41.0874711 C35.5785677,43.2043833 36.8493953,44.8037785 38.6769174,44.8037785 C40.4601921,44.8037785 41.7989344,43.2222287 41.7989344,41.0484343 C41.7989344,39.4077716 40.9314788,37.345511 38.7232229,37.345511 C36.5365762,37.3443957 35.5785677,39.2683543 35.5785677,41.0874711 L35.5785677,41.0874711 Z M65.0769579,43.5872241 C65.0769579,44.4258658 65.1257069,45.2399728 65.2372881,45.9001801 L63.4714884,45.9001801 L63.3100748,44.6823653 L63.2461594,44.6823653 C62.6427542,45.4407115 61.4825263,46.1176471 59.9333891,46.1176471 C57.7483473,46.1176471 56.6271186,44.7459326 56.6271186,43.342992 C56.6271186,41.0077317 58.9519077,39.7296953 63.1324115,39.7464235 L63.1324115,39.5456848 C63.1324115,38.7661495 62.8864995,37.306333 60.6722083,37.3286373 C59.6463112,37.3286373 58.5954979,37.5895976 57.837179,38.0490662 L57.3897708,36.865823 C58.2802539,36.3695524 59.6018954,36.0294118 60.9668694,36.0294118 C64.2742231,36.0294118 65.0758745,38.0490662 65.0758745,39.9694665 L65.0758745,43.5872241 L65.0769579,43.5872241 Z M63.1800773,40.9686992 C61.0329515,40.9296667 58.5976645,41.2653464 58.5976645,43.1467142 C58.5976645,44.3009618 59.4491483,44.826228 60.428463,44.826228 C61.8606024,44.826228 62.7760016,44.022158 63.092329,43.2058206 C63.1605777,43.0050819 63.1800773,42.8054584 63.1800773,42.6459826 L63.1800773,40.9686992 Z M68.1073446,31.7058824 L69.5423729,31.7058824 L69.5423729,44.6764706 L68.1073446,44.6764706 L68.1073446,31.7058824 Z M46.5920493,36.2334794 L48.2693156,36.2334794 L48.2693156,37.8683002 C48.7747237,36.9482859 49.9516461,36.0294118 51.6208096,36.0294118 C53.0225829,36.0294118 55.1920904,36.8491023 55.1920904,40.2395884 L55.1920904,46.1176471 L53.3588465,46.1176471 L53.3588465,40.4219952 C53.3588465,38.8259358 52.7481027,37.5046266 51.0171558,37.5046266 C49.8250409,37.5046266 48.4212419,38.8624172 48.4212419,40.1768861 L48.4212419,46.1176471 L46.5819209,46.1176471 L46.5920493,36.2334794 L46.5920493,36.2334794 Z M144.164952,33.1470588 L146.177358,33.1470588 L146.177358,44.7137084 L152.774011,44.7137084 L152.774011,46.1176471 L144.163842,46.1176471 L144.163842,33.1470588 L144.164952,33.1470588 Z M155.644068,34.3007568 C155.644068,34.9265635 155.097965,35.429976 154.166774,35.429976 C153.320114,35.429976 152.774011,34.9265635 152.774011,34.3007568 C152.774011,33.670693 153.349633,33.1470588 154.221786,33.1470588 C155.064421,33.1470588 155.644068,33.6515356 155.644068,34.3007568 L155.644068,34.3007568 Z M153.006138,46.1176471 L153.006138,36.8901916 L155.440118,36.8901916 L155.440118,46.1176471 L153.006138,46.1176471 Z M158.515185,31.7058824 L160.412647,31.7058824 L160.412647,37.782393 C160.412647,37.782393 161.598427,36.0236087 164.067567,36.0236087 C166.724437,36.0236087 168.559322,38.0200967 168.559322,40.9450801 C168.559322,44.4068498 166.150638,46.1176471 163.787561,46.1176471 C162.410868,46.1176471 160.999173,45.5819767 160.279008,44.3220354 L160.279008,45.900031 L158.514124,45.900031 L158.514124,31.7058824 L158.515185,31.7058824 Z M160.412647,42.0208848 C160.412647,42.2451967 160.440223,42.4650448 160.50386,42.6681531 C160.852807,43.8845712 161.990859,44.7215562 163.39619,44.7215562 C165.430473,44.7215562 166.61095,43.2216792 166.61095,41.005343 C166.61095,39.0680019 165.516383,37.4018439 163.439676,37.4018439 C162.149953,37.4018439 160.920687,38.2455247 160.527194,39.5657289 C160.461435,39.783345 160.413707,40.0232807 160.413707,40.3067396 L160.413707,42.0208848 L160.412647,42.0208848 Z M184.186409,43.5872241 C184.186409,44.4258658 184.231926,45.2399728 184.344633,45.9001801 L182.578166,45.9001801 L182.421027,44.6823653 L182.353836,44.6823653 C181.750203,45.4407115 180.587369,46.1176471 179.046317,46.1176471 C176.855032,46.1176471 175.734463,44.7459326 175.734463,43.342992 C175.734463,41.0077317 178.056879,39.7296953 182.241129,39.7464235 L182.241129,39.5456848 C182.241129,38.7661495 181.992957,37.306333 179.783248,37.3286373 C178.752628,37.3286373 177.700335,37.5895976 176.940646,38.0490662 L176.493069,36.865823 C177.384972,36.3695524 178.707112,36.0294118 180.074769,36.0294118 C183.376869,36.0294118 184.185326,38.0490662 184.185326,39.9694665 L184.185326,43.5872241 L184.186409,43.5872241 Z M182.288813,40.9686992 C180.143043,40.9296667 177.702502,41.2653464 177.702502,43.1467142 C177.702502,44.3009618 178.553224,44.826228 179.537243,44.826228 C180.965588,44.826228 181.881333,44.022158 182.19778,43.2058206 C182.266054,43.0050819 182.288813,42.8054584 182.288813,42.6459826 L182.288813,40.9686992 Z M169.99435,36.1942298 L171.978473,36.1942298 L171.978473,38.1617447 C171.978473,38.1617447 173.112422,36.0294118 175.734463,36.0294118 L175.734463,37.7325311 C173.756108,37.7325311 172.138818,39.2387846 172.138818,40.5424492 L172.138818,46.1176471 L169.995504,46.1176471 L169.995504,36.1942298 L169.99435,36.1942298 Z M53.7559914,22.9936145 L53.7570621,23.0022163 L53.7570621,24.5 L29.3669358,24.5 L29.3669358,23.0043667 L36.3301894,23.0043667 L33.0975179,5.37610814 L35.945781,5.37610814 L39.1752402,23.0043667 L43.9423331,23.0043667 L47.1782169,5.37610814 L50.0232677,5.37610814 L46.7905962,23.0043667 L53.7559914,22.9936145 Z M53.7517083,2.36226192 L53.7506375,2.35796103 L53.7506375,3.85359431 L29.3615819,3.86434653 L29.3615819,2.36441236 L39.8648197,2.36441236 L39.8648197,0 L43.2452582,0 L43.2506121,2.36226192 L53.7517083,2.36226192 Z M151.815968,16.9073078 L172.374829,16.9073078 C173.247933,17.8725967 173.786277,19.2025033 173.786277,20.6904813 C173.786277,22.1889974 173.247933,23.5368188 172.374829,24.5 L151.815968,24.5 C150.942864,23.5368188 150.397174,22.1889974 150.397174,20.6904813 C150.397174,19.2025033 150.942864,17.8725967 151.815968,16.9073078 Z M170.725167,23.0278292 C171.027395,22.554669 171.23098,22.0193342 171.329623,21.4344703 L152.864322,21.4344703 C152.957719,22.0193342 153.161303,22.554669 153.46563,23.0278292 L170.725167,23.0278292 Z M152.860124,19.9696761 L171.327525,19.9696761 C171.234128,19.3837584 171.028445,18.8336703 170.724118,18.3626177 L153.46458,18.3626177 C153.160253,18.8336703 152.95457,19.3827046 152.860124,19.9696761 Z M171.998093,8.87623124 L171.998093,8.87623124 L163.322676,8.87623124 L163.322676,10.5644329 L173.396948,10.5644329 L173.396948,12.0344961 L163.322676,12.0344961 L163.322676,13.7205901 L174.298386,13.7205901 L174.298386,15.1959224 L149.903955,15.1959224 L149.903955,13.7205901 L160.881763,13.7205901 L160.881763,12.0344961 L150.810639,12.0344961 L150.810639,10.5644329 L160.881763,10.5644329 L160.881763,8.87623124 L150.810639,8.87623124 L150.810639,7.40300658 L160.881763,7.40300658 L160.881763,5.81386296 L149.903955,5.81386296 L149.903955,4.34274592 L160.881763,4.34274592 L160.881763,2.74938707 L150.810639,2.74938707 L150.810639,1.30040002 L160.881763,1.30040002 L160.881763,0 L163.322676,0 L163.322676,1.30040002 L171.998093,1.30040002 C172.728478,2.10129468 173.226945,3.15510345 173.365466,4.34274592 L174.299435,4.34274592 L174.299435,5.81386296 L173.365466,5.81386296 C173.226945,7.00782829 172.727429,8.07112134 171.998093,8.87623124 Z M163.322676,2.74833326 L163.322676,4.34169212 L170.947641,4.34169212 C170.854244,3.7631511 170.642264,3.22360102 170.340036,2.74833326 L163.322676,2.74833326 Z M163.322676,5.81280915 L163.322676,7.40195277 L170.340036,7.40195277 C170.642264,6.93406168 170.854244,6.39345778 170.947641,5.81280915 L163.322676,5.81280915 Z M179.914779,0.380695286 L179.914779,0.380695286 L187.047131,0.380695286 L189.790261,5.22219296 L187.318963,5.22219296 L185.558528,2.11533228 L181.401225,2.11533228 L179.645104,5.22219296 L177.169492,5.22219296 L179.914779,0.380695286 Z M192.685487,2.93694583 L192.685487,5.22219296 L190.176435,5.22219296 L190.176435,1.43674831 L195.10285,1.43674831 L195.10285,0 L197.822248,0 L197.822248,1.43674831 L202.748663,1.43674831 L202.748663,5.22219296 L200.238532,5.22219296 L200.238532,2.93694583 L192.685487,2.93694583 Z M201.370087,15.8644544 L201.370087,15.8644544 C202.376512,16.9635238 202.998921,18.4734001 203,20.1693223 C203,21.8663199 202.377591,23.402006 201.370087,24.5 L190.683423,24.5 L190.683423,6.26426565 L200.823187,6.26426565 C201.675359,7.1987973 202.206078,8.47530945 202.206078,9.92066105 C202.206078,11.3531077 201.771363,12.556492 200.823187,13.5878106 L193.159036,13.5878106 L193.159036,15.8644544 L201.370087,15.8644544 Z M193.157957,7.76338776 L193.157957,12.0843868 L199.048728,12.0843868 C199.048728,12.0843868 199.69379,11.0907076 199.69379,9.92066105 C199.69379,9.08829339 199.467263,8.40863401 199.048728,7.76338776 L193.157957,7.76338776 Z M199.716443,22.9976517 C199.716443,22.9976517 200.489869,21.6705952 200.489869,20.1682469 C200.489869,19.1982267 200.220195,18.2809016 199.716443,17.3625011 L193.157957,17.3625011 L193.157957,22.9976517 L199.716443,22.9976517 Z M185.431241,18.672351 L185.431241,18.672351 L187.760151,18.672351 L189.582072,24.4989246 L187.254242,24.4989246 L186.445218,21.9157888 C185.547741,22.327671 183.514395,23.2665043 181.800343,24.0418752 C181.402303,24.2225441 180.675261,24.5483935 179.924487,24.4913967 C178.984941,24.4257967 178.298889,23.9891801 178.298889,22.6363138 C178.298889,21.2791458 178.298889,6.2588886 178.298889,6.2588886 L181.923315,6.2588886 L181.923315,4.51134668 L185.237076,4.51134668 L185.237076,6.2588886 L188.862581,6.2588886 L188.862581,15.5676411 C188.862581,15.5676411 188.815118,17.4205733 186.772063,17.4205733 L180.803626,17.4205733 L180.803626,22.8524712 L185.996479,20.4768896 L185.431241,18.672351 Z M180.803626,7.75478448 L180.803626,11.0519928 L186.353528,11.0519928 L186.353528,7.75478448 L180.803626,7.75478448 Z M180.803626,12.5543411 L180.803626,12.5543411 L180.803626,15.9214511 L185.34926,15.9214511 C186.375102,15.9214511 186.353528,14.7954964 186.353528,14.7954964 L186.353528,12.5543411 L180.803626,12.5543411 Z M93.8698854,12.6830223 L93.8698854,10.9709512 L95.5724713,10.9709512 L95.5724713,12.6830223 L93.8698854,12.6830223 Z M98.4949298,12.6830223 L98.4949298,10.9709512 L100.201704,10.9709512 L100.201704,12.6830223 L98.4949298,12.6830223 Z M93.9054868,9.41902468 L95.7588553,6.2551174 L93.5096827,4.61258278 L96.2174855,0.00105358218 L98.13368,0.00105358218 L95.4803265,4.52197471 L96.399681,5.16782059 L97.9221656,2.58127634 L99.7158494,2.58127634 L96.4185288,8.19686936 L98.7221507,8.19686936 L97.822691,6.44581577 L99.4017191,6.44581577 C99.4017191,6.44581577 100.012179,7.9166165 100.104324,8.13681517 C100.283378,8.58353402 100.390182,9.41902468 99.2498895,9.41902468 L97.8855171,9.41902468 L97.8855171,13.4732089 L96.1850253,13.4732089 L96.1850253,9.41902468 L93.9054868,9.41902468 Z M93.2939799,6.42579771 L93.2939799,6.42579771 L90.9547566,6.42579771 L88.1977401,1.04093919 L90.5380105,1.04093919 L93.2939799,6.42579771 Z M93.2939799,13.4732089 L93.2939799,13.4732089 L90.9547566,13.4732089 L88.1977401,8.09045756 L90.5380105,8.09045756 L93.2939799,13.4732089 Z M97.5556803,19.8684527 L97.5556803,19.8726671 L113.76166,19.8726671 C114.300917,20.4858519 114.635989,21.2507526 114.635989,22.1916014 C114.635989,22.9048766 114.300917,23.8889223 113.76166,24.5 L93.9630773,24.5 L93.9630773,23.0344672 L112.268494,23.0344672 C112.394146,22.7457857 112.466396,22.5234798 112.466396,22.1905479 C112.466396,21.8607766 112.394146,21.6268814 112.268494,21.3424142 L101.239381,21.3424142 L95.496033,21.3424142 L95.496033,17.1976219 L111.94494,17.1976219 C112.037085,17.0754064 112.065357,16.7919928 112.065357,16.6086695 C112.065357,16.435882 112.053839,16.1493076 111.94494,15.9912703 L94.6981421,15.9912703 L94.6981421,14.5236303 L113.473707,14.5236303 C113.942808,15.0504214 114.229714,15.782661 114.229714,16.5918122 C114.229714,17.4030704 113.941761,18.1374172 113.473707,18.6621011 L97.5556803,18.6621011 L97.5556803,19.8684527 Z M109.116721,12.6830223 L109.116721,10.9709512 L110.823495,10.9709512 L110.823495,12.6830223 L109.116721,12.6830223 Z M109.152322,9.41902468 L111.010926,6.2551174 L108.760706,4.61258278 L111.466415,0.00105358218 L113.380515,0.00105358218 L110.735539,4.52197471 L111.651752,5.16782059 L113.175284,2.58127634 L114.963732,2.58127634 L111.664317,8.19686936 L113.970033,8.19686936 L113.068479,6.44581577 L114.649602,6.44581577 C114.649602,6.44581577 115.257967,7.9166165 115.3543,8.13681517 C115.529166,8.58353402 115.637018,9.41902468 114.50196,9.41902468 L113.132352,9.41902468 L113.132352,13.4732089 L111.437096,13.4732089 L111.437096,9.41902468 L109.152322,9.41902468 Z M113.745954,12.6830223 L113.745954,10.9709512 L115.450634,10.9709512 L115.450634,12.6830223 L113.745954,12.6830223 Z M108.733482,1.42655027 L108.733482,2.64449127 L100.415313,2.64449127 L100.415313,1.42655027 L103.113692,1.42655027 L103.113692,0 L106.038244,0 L106.038244,1.42655027 L108.733482,1.42655027 Z M100.735726,8.04304636 L102.441453,8.04304636 L102.441453,8.96914509 L106.703153,8.96914509 L106.703153,8.04304636 L108.405739,8.04304636 C108.405739,8.04304636 108.405739,8.42549669 108.405739,8.96914509 L108.405739,11.833835 C108.405739,13.0033113 107.614131,13.4742625 106.800534,13.4742625 L102.34512,13.4742625 C101.528381,13.4742625 100.735726,13.0022577 100.735726,11.833835 L100.735726,8.96914509 C100.735726,8.42549669 100.735726,8.04304636 100.735726,8.04304636 Z M106.7042,10.1913004 L102.4425,10.1913004 L102.4425,12.2531607 L106.7042,12.2531607 L106.7042,10.1913004 Z M108.406786,6.00752559 L108.406786,7.23389524 L100.736773,7.23389524 L100.736773,6.00752559 L108.406786,6.00752559 Z M108.406786,3.71703793 L108.406786,4.93708609 L100.736773,4.93708609 L100.736773,3.71703793 L108.406786,3.71703793 Z M91.8437452,14.5552378 L94.1421316,14.5552378 L90.4940323,24.4968393 L88.1977401,24.4968393 L91.8437452,14.5552378 Z M71.4510381,21.639963 L71.4489602,21.639963 L71.4489602,23.028883 L81.9381543,23.028883 L81.9381543,24.5 L58.5785028,24.5 L58.5785028,23.028883 L69.0323729,23.028883 L69.0323729,21.639963 L59.3899193,21.639963 L59.3899193,20.1698998 L69.0323729,20.1698998 L69.0323729,18.7767646 L63.3981712,18.7767646 C62.5909105,18.7767646 61.8075456,18.3025506 61.8075456,17.1338767 L61.8075456,15.6701363 L61.0834005,15.6701363 L61.0834005,14.1969117 L79.4405293,14.1969117 L79.4405293,15.6701363 L78.7132674,15.6701363 L78.7132674,17.1338767 C78.7132674,18.3036045 77.9288635,18.7767646 77.1205639,18.7767646 L71.4510381,18.7767646 L71.4510381,20.1698998 L81.1267379,20.1698998 L81.1267379,21.639963 L71.4510381,21.639963 Z M63.9820586,17.5501312 L76.5408323,17.5501312 L76.5408323,15.6711902 L63.9820586,15.6711902 L63.9820586,17.5501312 Z M71.4510381,1.31726096 L71.4510381,1.31726096 L82.4576271,1.31726096 L82.4576271,2.79048561 L71.4510381,2.79048561 L71.4510381,3.92859908 L81.3937469,3.92859908 L81.3937469,5.39655469 L59.1208324,5.39655469 L59.1208324,3.92859908 L69.0334118,3.92859908 L69.0334118,2.79048561 L58.0621469,2.79048561 L58.0621469,1.31726096 L69.0334118,1.31726096 L69.0334118,0 L71.4510381,0 L71.4510381,1.31726096 Z M58.0621469,18.7767646 L58.0631858,18.7767646 L58.0631858,11.4264484 L82.4576271,11.4264484 L82.4576271,18.7767646 L80.284153,18.7767646 L80.284153,12.9028345 L60.2387378,12.9028345 L60.2387378,18.7767646 L58.0621469,18.7767646 Z M81.3937469,10.3462945 L59.1208324,10.3462945 C59.3847246,9.92371715 59.5551116,9.21345004 59.5551116,8.40096348 C59.5551116,7.58953073 59.3847246,6.87504839 59.1208324,6.44720203 L59.1208324,6.42823347 L81.3937469,6.42823347 L81.3937469,6.44720203 C81.1350494,6.8761022 80.9688182,7.58953073 80.9688182,8.40096348 C80.9688182,9.21450385 81.1350494,9.92477096 81.3937469,10.3462945 Z M78.8389798,7.89724289 L61.6776774,7.89724289 C61.7545593,8.06479849 61.7711825,8.23340789 61.7711825,8.40201729 C61.7711825,8.56430384 61.7566372,8.68759947 61.6776774,8.87939266 L78.8389798,8.87939266 C78.7652147,8.68759947 78.7485915,8.56430384 78.7485915,8.40201729 C78.7485915,8.23235408 78.7693705,8.06374468 78.8389798,7.89724289 Z M0.665214924,0.00107541041 L0.665214924,0 L25.0564972,0 L25.0564972,22.6470679 C25.0564972,22.6470679 25.0082205,24.5 23.0309744,24.5 L0.661016949,24.5 L0.665214924,0.00107541041 Z M3.10318871,1.50127293 L3.10318871,4.47155649 L14.819736,4.47155649 C14.7221331,3.50906417 14.6633614,2.51753577 14.6381736,1.50127293 L3.10318871,1.50127293 Z M13.8898846,22.9965762 L13.8898846,22.9965762 L14.6192827,20.904903 L3.1042382,20.904903 L3.1042382,22.9965762 L13.8898846,22.9965762 Z M3.10318871,19.3961022 L3.10318871,19.3971776 L15.1503265,19.3971776 L17.0089798,14.1040075 C16.139999,11.7047669 15.4126999,8.96999824 14.9971004,5.97498025 L3.10318871,5.97498025 L3.10318871,19.3961022 Z M21.2909139,22.9965762 C21.4588329,22.9965762 21.6005145,22.9793697 21.7285528,22.9503336 C20.6265844,21.5770345 19.3189153,19.4928891 18.1245915,16.8527566 L15.976278,22.9965762 L21.2909139,22.9965762 Z M22.6195729,20.7360636 L22.6206224,20.7360636 L22.6206224,5.97282943 L17.0740484,5.97282943 C17.3248774,7.68703362 17.6911506,9.33026073 18.1476804,10.8799271 L19.3210143,7.53862699 L21.4074077,7.53862699 L19.1614913,13.9050566 C20.2193809,16.6527302 21.4724763,18.9928233 22.6195729,20.7360636 Z M22.6195729,4.47048108 L22.6195729,1.50019752 L16.726666,1.50019752 C16.7319134,2.51108331 16.7875366,3.49831007 16.8830405,4.47048108 L18.7826241,4.47048108 L18.7826241,2.47559477 L20.7378307,2.47559477 L20.7378307,4.47048108 L22.6195729,4.47048108 Z M4.62075654,15.9311298 L4.62075654,15.9311298 L4.62075654,7.78382056 L13.5949769,7.78382056 L13.5949769,15.9311298 C13.5949769,15.9311298 13.5519476,17.7819112 11.5715531,17.7819112 L6.64522982,17.7819112 C4.66693427,17.7819112 4.62075654,15.9311298 4.62075654,15.9311298 Z M6.82784172,15.1579098 C6.82784172,15.1579098 6.80895083,16.2817136 7.79757387,16.2817136 L10.419209,16.2817136 C11.4078321,16.2817136 11.3878917,15.1579098 11.3878917,15.1579098 L11.3878917,9.28294267 L6.82784172,9.28294267 L6.82784172,15.1579098 Z M119.768362,0 L144.163842,0 L144.163842,22.6822581 C144.163842,22.6822581 144.118719,24.5 142.136482,24.5 L119.768362,24.5 L119.768362,0 Z M140.311648,19.7907312 L140.311648,19.7907312 C140.311648,20.6137204 139.862522,21.6021505 138.189845,21.6021505 C136.208657,21.6021505 123.612161,21.6021505 123.612161,21.6021505 L123.612161,11.8074194 L140.311648,11.8074194 C140.311648,11.8074194 140.311648,19.2923011 140.311648,19.7907312 Z M136.703954,17.4566452 C136.703954,17.4566452 136.66198,19.0952473 134.676594,19.0952473 C132.698554,19.0952473 127.218805,19.0952473 127.218805,19.0952473 L127.218805,14.4007312 L136.703954,14.4007312 L136.703954,17.4566452 Z M134.265246,16.8728602 C134.265246,16.526172 134.265246,15.8696774 134.266295,15.8707312 L129.659612,15.8707312 L129.659612,17.6305161 L133.499214,17.6305161 C134.169754,17.6305161 134.265246,17.2985806 134.265246,16.8728602 Z M137.87084,19.1816559 C137.87084,18.7928172 137.87084,13.2753118 137.87084,13.2742581 L126.045623,13.2742581 L126.045623,20.1342581 L136.901233,20.1342581 C137.705042,20.1342581 137.87084,19.5726022 137.87084,19.1816559 Z M141.712541,21.9256559 L141.712541,21.929871 C141.712541,21.4335484 141.712541,10.5091828 141.712541,10.5091828 L122.213366,10.5091828 L122.213366,23.0331613 L140.387202,23.0226237 C141.37045,23.0226237 141.712541,22.4219785 141.712541,21.9256559 Z M141.712541,9.03286022 L141.712541,1.48369892 L122.213366,1.48369892 L122.213366,9.03286022 L130.708971,9.03286022 L130.708971,7.60290323 L123.128407,7.60290323 C123.391796,7.09288172 123.560742,6.25513978 123.560742,5.292 C123.560742,4.32886022 123.391796,3.47741935 123.128407,2.97477419 L123.128407,2.94843011 L140.794353,2.94843011 L140.794353,2.97477419 C140.535161,3.47636559 140.358869,4.32886022 140.358869,5.292 C140.358869,6.25513978 140.535161,7.09288172 140.794353,7.60290323 L133.251566,7.60290323 L133.251566,9.03286022 L141.712541,9.03286022 Z M125.70668,4.68819355 C125.785382,4.8884086 125.800073,5.08546237 125.801122,5.29094624 C125.801122,5.48062366 125.78853,5.63025806 125.709828,5.8568172 L138.218178,5.8568172 C138.135279,5.63025806 138.127933,5.48062366 138.127933,5.29094624 C138.127933,5.08546237 138.139476,4.88735484 138.218178,4.68819355 L125.70668,4.68819355 Z" id="Combined-Shape" fill="#000000" fill-rule="nonzero"></path>
    </g>
</svg>