<?xml version="1.0" encoding="UTF-8"?>
<svg width="42px" height="47px" viewBox="0 0 42 47" version="1.1" xmlns="http://www.w3.org/2000/svg" xmlns:xlink="http://www.w3.org/1999/xlink">
    <!-- Generator: Sketch 46.2 (44496) - http://www.bohemiancoding.com/sketch -->
    <title>Group 12</title>
    <desc>Created with Sketch.</desc>
    <defs></defs>
    <g id="Page-1" stroke="none" stroke-width="1" fill="none" fill-rule="evenodd">
        <g id="Group-12" fill-rule="nonzero">
            <path d="M38.6870201,0 L11.480226,0 L11.480226,0.0546717268 C12.016214,0.991901328 12.3639376,2.57180266 12.3639376,4.36258065 C12.3639376,6.15224288 12.016214,7.70982922 11.480226,8.64705882 L38.6870201,8.64705882 C39.6077673,7.55362429 40.180791,6.02058444 40.180791,4.32576091 C40.180791,2.63428463 39.6077673,1.10236053 38.6870201,0 Z" id="path714-7" fill="#0097E0"></path>
            <path d="M12.9750256,12.9705882 L40.180791,12.9705882 L40.180791,13.0118923 C39.6448029,13.9496059 39.2929643,15.5303231 39.2929643,17.3220258 C39.2929643,19.1126122 39.6448029,20.6754682 40.180791,21.6176471 L12.9750256,21.6176471 C12.0542784,20.5191826 11.480226,18.9887001 11.480226,17.2896523 C11.480226,15.5973026 12.0553072,14.0623548 12.9750256,12.9705882 L12.9750256,12.9705882 Z" id="path716-4" fill="#0097E0"></path>
            <path d="M0,18.6614391 L0,0 L0.0444625329,0 C0.98039885,0.546660838 2.55326095,0.900688809 4.34065477,0.900688809 C6.12360234,0.900688809 7.67201005,0.546660838 8.61016949,0 L8.61016949,18.6614391 C7.51639118,19.5933657 5.99021474,20.1764706 4.30063849,20.1764706 C2.62106631,20.1764706 1.09488987,19.5923244 0,18.6614391 Z" id="path718-0" fill="#0097E0"></path>
            <path d="M1.49479966,46.1176471 L28.700565,46.1176471 L28.700565,46.0741216 C28.1645769,45.1321859 27.8137671,43.5518768 27.8137671,41.7584044 C27.8137671,39.9682802 28.1656057,38.414756 28.700565,37.4705882 L1.49479966,37.4705882 C0.571994914,38.5687692 0,40.1010887 0,41.7930016 C0,43.4871466 0.571994914,45.017234 1.49479966,46.1176471 L1.49479966,46.1176471 Z" id="path722-9" fill="#00908C"></path>
            <path d="M27.2047365,33.1470588 L0,33.1470588 L0,33.1057867 C0.53598804,32.1598753 0.884740335,30.5826125 0.884740335,28.7900656 C0.884740335,27.0008651 0.534959273,25.4459115 0,24.5 L27.2047365,24.5 C28.1254838,25.6020761 28.700565,27.133605 28.700565,28.8246449 C28.700565,30.5168002 28.124455,32.0483291 27.2047365,33.1470588 Z" id="path724-4" fill="#00908C"></path>
            <path d="M41.6158192,26.0132613 L41.6158192,44.6764706 L41.5735962,44.6764706 C40.6357999,44.1369872 39.0624356,43.7797617 37.2746226,43.7797617 C35.4923653,43.7797617 33.9445571,44.1380287 33.0056497,44.6764706 L33.0056497,26.0132613 C34.0990046,25.0811423 35.6212568,24.5 37.3124012,24.5 C38.9957676,24.5 40.5213532,25.0811423 41.6158192,26.0132613 Z" id="path726-8" fill="#00908C"></path>
        </g>
    </g>
</svg>