<?xml version="1.0" encoding="UTF-8"?>
<svg width="177px" height="34px" viewBox="0 0 177 34" version="1.1" xmlns="http://www.w3.org/2000/svg" xmlns:xlink="http://www.w3.org/1999/xlink">
    <!-- Generator: Sketch 46.2 (44496) - http://www.bohemiancoding.com/sketch -->
    <title>National_Taiwan_Library_logo</title>
    <desc>Created with Sketch.</desc>
    <defs></defs>
    <g id="Page-1" stroke="none" stroke-width="1" fill="none" fill-rule="evenodd">
        <g id="帳號管理-地方" transform="translate(-1248.000000, -17.000000)">
            <g id="National_Taiwan_Library_logo" transform="translate(1248.000000, 17.000000)">
                <g id="National_Taiwan_Library_logo-Copy">
                    <path d="M26.9590652,0 L8,0 L8,0.0379354839 C8.37350348,0.688258065 8.61581475,1.78451613 8.61581475,3.02709677 C8.61581475,4.26890323 8.37350348,5.34967742 8,6 L26.9590652,6 C27.6006882,5.24129032 28,4.17754839 28,3.00154839 C28,1.82787097 27.6006882,0.764903226 26.9590652,0 Z" id="path714-7" fill="#0097E0" fill-rule="nonzero"></path>
                    <path d="M9.04165173,9 L28,9 L28,9.02865995 C27.6264965,9.67931836 27.3813177,10.7761425 27.3813177,12.0193648 C27.3813177,13.2618125 27.6264965,14.3462432 28,15 L9.04165173,15 C8.40002868,14.2378002 8,13.1758327 8,11.9969016 C8,10.8226181 8.40074557,9.75755229 9.04165173,9 L9.04165173,9 Z" id="path716-4" fill="#0097E0" fill-rule="nonzero"></path>
                    <path d="M0,12.9487537 L0,0 L0.0309837335,0 C0.683191325,0.379315684 1.7792409,0.624967745 3.02478699,0.624967745 C4.2672347,0.624967745 5.34624322,0.379315684 6,0 L6,12.9487537 C5.23780015,13.5953966 4.1742835,14 2.99690163,14 C1.82649109,14 0.762974438,13.5946741 0,12.9487537 Z" id="path718-0" fill="#0097E0" fill-rule="nonzero"></path>
                    <path d="M1.04165173,32 L20,32 L20,31.9697987 C19.6264965,31.3162106 19.3820346,30.2196696 19.3820346,28.9752194 C19.3820346,27.7330924 19.6272134,26.6551368 20,26 L1.04165173,26 C0.398594881,26.7620031 0,27.8252452 0,28.9992256 C0,30.1747548 0.398594881,31.2364481 1.04165173,32 L1.04165173,32 Z" id="path722-9" fill="#00908C" fill-rule="nonzero"></path>
                    <path d="M18.9576314,23 L0,23 L0,22.9713622 C0.373503477,22.3150155 0.616531651,21.2205882 0.616531651,19.9767802 C0.616531651,18.7352941 0.37278658,17.6563467 0,17 L18.9576314,17 C19.5992544,17.7647059 20,18.8273994 20,20.000774 C20,21.1749226 19.5985375,22.2376161 18.9576314,23 Z" id="path724-4" fill="#00908C" fill-rule="nonzero"></path>
                    <path d="M29,18.0500181 L29,31 L28.9705768,31 C28.3170732,30.6256646 27.2206736,30.3777938 25.9748355,30.3777938 C24.7328688,30.3777938 23.654278,30.6263872 23,31 L23,18.0500181 C23.7619048,17.4032416 24.8226868,17 26.0011614,17 C27.174216,17 28.2373209,17.4032416 29,18.0500181 Z" id="path726-8" fill="#00908C" fill-rule="nonzero"></path>
                    <polygon id="path732-8" fill="#FFFFFF" fill-rule="nonzero" points="92.2891391 23.9898956 89 23.9898956 89 23 97 23 97 23.9898956 93.7015432 23.9898956 93.7015432 32 92.2899156 32 92.2899156 23.9898956"></polygon>
                    <path d="M101.887561,30.2441963 C101.887561,30.826111 101.917746,31.3910015 102,31.8491046 L100.767702,31.8491046 L100.656018,31.0040902 L100.610741,31.0040902 C100.189662,31.5302896 99.3799522,32 98.3038611,32 C96.7795246,32 96,31.0481981 96,30.0747292 C96,28.4543445 97.6216828,27.5675437 100.533015,27.579151 L100.533015,27.4398629 C100.533015,26.8989609 100.361716,25.886027 98.8170042,25.9015034 C98.1031317,25.9015034 97.3719029,26.0825779 96.8429128,26.4013929 L96.5297447,25.580367 C97.1538171,25.2360159 98.0729468,25 99.0237706,25 C101.326877,25 101.887561,26.4013929 101.887561,27.7339155 L101.887561,30.2441963 L101.887561,30.2441963 Z M100.562445,28.4272607 C99.0690479,28.4001769 97.3719029,28.6330975 97.3719029,29.9385364 C97.3719029,30.7394428 97.9642812,31.1039133 98.6479688,31.1039133 C99.6455792,31.1039133 100.280216,30.5459872 100.500566,29.979549 C100.548107,29.8402609 100.56169,29.7017466 100.56169,29.59109 L100.56169,28.4272607 L100.562445,28.4272607 Z" id="path734-2" fill="#FFFFFF" fill-rule="nonzero"></path>
                    <path d="M106,23.8005251 C106,24.2347583 105.613414,24.584065 104.973451,24.584065 C104.386586,24.584065 104,24.2347583 104,23.8005251 C104,23.363338 104.40708,23 105.00885,23 C105.596646,23 106,23.3500451 106,23.8005251 Z M104.167676,32 L104.167676,25.5972758 L105.855612,25.5972758 L105.855612,32 L104.167676,32 Z" id="path736-4" fill="#FFFFFF" fill-rule="nonzero"></path>
                    <path d="M122.892803,30.2441963 C122.892803,30.826111 122.925264,31.3910015 123,31.8491046 L121.769502,31.8491046 L121.66004,31.0040902 L121.615501,31.0040902 C121.193508,31.5302896 120.385757,32 119.30775,32 C117.782084,32 117,31.0481981 117,30.0747292 C117,28.4543445 118.620785,27.5675437 121.533216,27.579151 L121.533216,27.4398629 C121.533216,26.8989609 121.364117,25.886027 119.820332,25.9015034 C119.103926,25.9015034 118.370911,26.0825779 117.846251,26.4013929 L117.532964,25.580367 C118.155008,25.2360159 119.071465,25 120.021137,25 C122.329643,25 122.892048,26.4013929 122.892048,27.7339155 L122.892048,30.2441963 L122.892803,30.2441963 Z M121.566432,28.4272607 C120.072471,28.4001769 118.372421,28.6330975 118.372421,29.9385364 C118.372421,30.7394428 118.964268,31.1039133 119.651988,31.1039133 C120.649975,31.1039133 121.287116,30.5459872 121.506794,29.979549 C121.552843,29.8402609 121.566432,29.7017466 121.566432,29.59109 L121.566432,28.4272607 Z" id="path738-5" fill="#FFFFFF" fill-rule="nonzero"></path>
                    <path d="M125.003525,25.1415979 L126.172503,25.1415979 L126.172503,26.2759634 C126.522209,25.6375862 127.345711,25 128.509753,25 C129.483431,25 131,25.5687648 131,27.921347 L131,32 L129.717509,32 L129.717509,28.047915 C129.717509,26.9404452 129.295182,26.0236185 128.087427,26.0236185 C127.258284,26.0236185 126.283196,26.9657588 126.283196,27.8778393 L126.283196,32 L125,32 L125.003525,25.1415979 L125.003525,25.1415979 Z" id="path740-5" fill="#FFFFFF" fill-rule="nonzero"></path>
                    <polygon id="polygon742-1" fill="#FFFFFF" fill-rule="nonzero" points="110.979254 25 109.050961 29.9591696 107.144876 25 106 25 108.309663 31 109.570941 31 111.501532 26.1653979 113.427527 31 114.6934 31 117 25 115.856656 25 113.950571 29.9591696 112.023044 25"></polygon>
                    <polygon id="path746-7" fill="#FFFFFF" fill-rule="nonzero" points="36 32 36 23 37.5163299 23 42.7579734 30.4816134 42.7579734 23 44 23 44 32 42.6077962 32 37.272675 24.4296836 37.272675 32 36 32"></polygon>
                    <path d="M49.891994,30.2441963 C49.891994,30.826111 49.9199396,31.3910015 50,31.8491046 L48.7696375,31.8491046 L48.6616314,31.0040902 L48.6125378,31.0040902 C48.1910876,31.5302896 47.3829305,32 46.3066465,32 C44.7802115,32 44,31.0481981 44,30.0747292 C44,28.4543445 45.6208459,27.5675437 48.5354985,27.579151 L48.5354985,27.4398629 C48.5354985,26.8989609 48.3625378,25.886027 46.820997,25.9015034 C46.1019637,25.9015034 45.3685801,26.0825779 44.8391239,26.4013929 L44.5294562,25.580367 C45.1510574,25.2360159 46.070997,25 47.0234139,25 C49.3270393,25 49.891994,26.4013929 49.891994,27.7339155 L49.891994,30.2441963 L49.891994,30.2441963 Z M48.5634441,28.4272607 C47.0687311,28.4001769 45.3693353,28.6330975 45.3693353,29.9385364 C45.3693353,30.7394428 45.9645015,31.1039133 46.6510574,31.1039133 C47.6450151,31.1039133 48.2839879,30.5459872 48.5030211,29.979549 C48.5506042,29.8402609 48.5634441,29.7017466 48.5634441,29.59109 L48.5634441,28.4272607 Z" id="path748-1" fill="#FFFFFF" fill-rule="nonzero"></path>
                    <path d="M53.2427316,24 L53.2427316,25.5178212 L55,25.5178212 L55,26.3973679 L53.2427316,26.3973679 L53.2427316,29.8161214 C53.2427316,30.6013526 53.4800541,31.0473405 54.1636241,31.0473405 C54.5010142,31.0473405 54.6957404,31.0188265 54.8810007,30.9676476 L54.9303584,31.8442698 C54.6957404,31.9239627 54.3191346,32 53.8438134,32 C53.2718053,32 52.8120352,31.8186803 52.5172414,31.5174557 C52.1845842,31.1650521 52.0425963,30.6020837 52.0425963,29.85414 L52.0425963,26.3980991 L51,26.3980991 L51,25.5185524 L52.0425963,25.5185524 L52.0425963,24.0007311 L53.2427316,24.0007311 L53.2427316,24 Z" id="path750-1" fill="#FFFFFF" fill-rule="nonzero"></path>
                    <path d="M59,23.7924435 C59,24.221191 58.6141176,24.5693634 57.9703529,24.5693634 C57.3821176,24.5693634 57,24.221191 57,23.7924435 C57,23.3607392 57.4009412,23 58.0070588,23 C58.5981176,23 59,23.3459548 59,23.7924435 Z M57.1505882,32 L57.1505882,25.5909651 L58.8625882,25.5909651 L58.8625882,32 L57.1505882,32 Z" id="path752-5" fill="#FFFFFF" fill-rule="nonzero"></path>
                    <path d="M66,28.4384743 C66,30.9219458 64.1478181,32 62.4325958,32 C60.5079902,32 59,30.6696517 59,28.5522388 C59,26.3148701 60.5847162,25 62.5523458,25 C64.6088916,25 66,26.4007739 66,28.4384743 L66,28.4384743 Z M60.332309,28.5096739 C60.332309,29.9785517 61.2178857,31.0883361 62.4913952,31.0883361 C63.7340709,31.0883361 64.666974,29.9909342 64.666974,28.4825871 C64.666974,27.344168 64.0624872,25.9132117 62.5236632,25.9132117 C60.9998976,25.9124378 60.332309,27.2474295 60.332309,28.5096739 L60.332309,28.5096739 Z" id="path754-2" fill="#FFFFFF" fill-rule="nonzero"></path>
                    <path d="M80.8882738,30.2441963 C80.8882738,30.826111 80.9222446,31.3910015 81,31.8491046 L79.7695018,31.8491046 L79.6570206,31.0040902 L79.6124811,31.0040902 C79.191998,31.5302896 78.3834927,32 77.3039758,32 C75.7813286,32 75,31.0481981 75,30.0747292 C75,28.4543445 76.6200302,27.5675437 79.5332159,27.579151 L79.5332159,27.4398629 C79.5332159,26.8989609 79.361852,25.886027 77.8188223,25.9015034 C77.1039255,25.9015034 76.3716658,26.0825779 75.843231,26.4013929 L75.5314545,25.580367 C76.1519879,25.2360159 77.0729743,25 78.024157,25 C80.3288878,25 80.8875189,26.4013929 80.8875189,27.7339155 L80.8875189,30.2441963 L80.8882738,30.2441963 Z M79.5664318,28.4272607 C78.0702063,28.4001769 76.3731756,28.6330975 76.3731756,29.9385364 C76.3731756,30.7394428 76.9665325,31.1039133 77.6489683,31.1039133 C78.6469552,31.1039133 79.2848515,30.5459872 79.5052843,29.979549 C79.5528435,29.8402609 79.5664318,29.7017466 79.5664318,29.59109 L79.5664318,28.4272607 Z" id="path756-7" fill="#FFFFFF" fill-rule="nonzero"></path>
                    <polygon id="path758-6" fill="#FFFFFF" fill-rule="nonzero" points="83 22 84 22 84 31 83 31"></polygon>
                    <path d="M68.007058,25.1415979 L69.1758617,25.1415979 L69.1758617,26.2759634 C69.5280555,25.6375862 70.3481943,25 71.5113516,25 C72.4881779,25 74,25.5687648 74,27.921347 L74,32 L72.7225032,32 L72.7225032,28.047915 C72.7225032,26.9404452 72.2969062,26.0236185 71.0906952,26.0236185 C70.2599694,26.0236185 69.2817316,26.9657588 69.2817316,27.8778393 L69.2817316,32 L68,32 L68.007058,25.1415979 L68.007058,25.1415979 Z" id="path760-1" fill="#FFFFFF" fill-rule="nonzero"></path>
                    <polygon id="path764-4" fill="#FFFFFF" fill-rule="nonzero" points="136.000773 23 137.40312 23 137.40312 31.0258385 142 31.0258385 142 32 136 32 136 23"></polygon>
                    <path d="M144,23.8005251 C144,24.2347583 143.619448,24.584065 142.970547,24.584065 C142.380552,24.584065 142,24.2347583 142,23.8005251 C142,23.363338 142.401122,23 143.008883,23 C143.596073,23 144,23.3500451 144,23.8005251 L144,23.8005251 Z M142.161758,32 L142.161758,25.5972758 L143.857878,25.5972758 L143.857878,32 L142.161758,32 Z" id="path766-2" fill="#FFFFFF" fill-rule="nonzero"></path>
                    <path d="M146.000739,22 L147.322986,22 L147.322986,26.2163543 C147.322986,26.2163543 148.149298,24.9959734 149.869919,24.9959734 C151.72136,24.9959734 153,26.3812916 153,28.4108719 C153,30.8129162 151.321508,32 149.674797,32 C148.715447,32 147.731707,31.6283104 147.22986,30.7540654 L147.22986,31.8490011 L146,31.8490011 L146,22 L146.000739,22 Z M147.322986,29.1573486 C147.322986,29.3129937 147.342203,29.4655413 147.386548,29.6064736 C147.629712,30.4505188 148.422764,31.0312839 149.402069,31.0312839 C150.81966,31.0312839 151.642276,29.9905529 151.642276,28.452687 C151.642276,27.1084095 150.879527,25.9522998 149.432373,25.9522998 C148.533629,25.9522998 147.677014,26.537711 147.402809,27.4537711 C147.356984,27.60477 147.323725,27.771256 147.323725,27.9679418 L147.323725,29.1573486 L147.322986,29.1573486 Z" id="path768-3" fill="#FFFFFF" fill-rule="nonzero"></path>
                    <path d="M163.889742,30.2441963 C163.889742,30.826111 163.92146,31.3910015 164,31.8491046 L162.769037,31.8491046 L162.659534,31.0040902 L162.612712,31.0040902 C162.19207,31.5302896 161.38175,32 160.307867,32 C158.780868,32 158,31.0481981 158,30.0747292 C158,28.4543445 159.618376,27.5675437 162.534172,27.579151 L162.534172,27.4398629 C162.534172,26.8989609 162.361233,25.886027 160.821397,25.9015034 C160.10321,25.9015034 159.369918,26.0825779 158.840529,26.4013929 L158.528634,25.580367 C159.150157,25.2360159 160.071492,25 161.024544,25 C163.325614,25 163.888987,26.4013929 163.888987,27.7339155 L163.888987,30.2441963 L163.889742,30.2441963 Z M162.567401,28.4272607 C161.072121,28.4001769 159.371429,28.6330975 159.371429,29.9385364 C159.371429,30.7394428 159.964254,31.1039133 160.649969,31.1039133 C161.645312,31.1039133 162.283449,30.5459872 162.503965,29.979549 C162.551542,29.8402609 162.567401,29.7017466 162.567401,29.59109 L162.567401,28.4272607 Z" id="path770-2" fill="#FFFFFF" fill-rule="nonzero"></path>
                    <path d="M165,25.1143635 L166.380531,25.1143635 L166.380531,26.4795779 C166.380531,26.4795779 167.175382,25 169,25 L169,26.1817563 C167.623492,26.1817563 166.492357,27.2269117 166.492357,28.1314953 L166.492357,32 L165.000805,32 L165.000805,25.1143635 L165,25.1143635 Z" id="path772-2" fill="#FFFFFF" fill-rule="nonzero"></path>
                    <path d="M170.128647,25 L172.521619,30.1636537 L174.920554,25 L176,25 L173.969329,29.4115128 C173.000213,31.5330637 172.338978,32.6077545 171.415335,33.2821123 C170.742173,33.7588011 170.092865,33.9500476 169.755911,34 L169.41672,33.0687441 C169.755911,32.9766889 170.203195,32.7982873 170.602023,32.5185538 C170.968797,32.2716461 171.592013,31.7243102 171.801491,31.1498573 C171.843237,31.027117 169,25.0007136 169,25.0007136 L170.128647,25.0007136 L170.128647,25 Z" id="path774-1" fill="#FFFFFF" fill-rule="nonzero"></path>
                    <path d="M154,25.1143635 L155.382637,25.1143635 L155.382637,26.4795779 C155.382637,26.4795779 156.17283,25 158,25 L158,26.1817563 C156.621383,26.1817563 155.494373,27.2269117 155.494373,28.1314953 L155.494373,32 L154.000804,32 L154.000804,25.1143635 L154,25.1143635 Z" id="path776-6" fill="#FFFFFF" fill-rule="nonzero"></path>
                    <path d="M72.9992538,15.9547529 L68.1454154,15.9622136 L70.3981038,3.73036075 L68.4155291,3.73036075 L66.1606022,15.9622136 L62.8386516,15.9622136 L60.5882017,3.73036075 L58.6033885,3.73036075 L60.8560769,15.9622136 L56.0037309,15.9622136 L56.0037309,17 L73,17 L73,15.9607215 L72.9992538,15.9547529 Z M72.9962691,1.63912051 L65.6785761,1.63912051 L65.6748453,0 L63.3191854,0 L63.3191854,1.64061266 L56,1.64061266 L56,2.68138331 L72.995523,2.67392258 L72.995523,1.63613622 L72.9962691,1.63912051 Z" id="path780-8" fill="#FFFFFF" fill-rule="nonzero"></path>
                    <path d="M141.332387,11.7316014 C140.723964,12.4013936 140.3437,13.324186 140.3437,14.3566605 C140.3437,15.3964472 140.723964,16.3316702 141.332387,17 L155.658838,17 C156.26726,16.3316702 156.642405,15.3964472 156.642405,14.3566605 C156.642405,13.324186 156.26726,12.4013936 155.658838,11.7316014 L141.332387,11.7316014 Z M154.50927,15.9784937 L142.481955,15.9784937 C142.269884,15.6501785 142.128017,15.2787217 142.062933,14.8728978 L154.930486,14.8728978 C154.861746,15.2787217 154.719878,15.6501785 154.50927,15.9784937 Z M142.060008,13.85651 C142.125823,13.4492236 142.269153,13.068261 142.481223,12.7414082 L154.508539,12.7414082 C154.720609,13.068261 154.863939,13.4499548 154.929023,13.85651 L142.060008,13.85651 Z M155.396309,6.15901759 C155.904547,5.60036991 156.252635,4.86257473 156.349163,4.03410899 L157,4.03410899 L157,3.01333391 L156.349163,3.01333391 C156.252635,2.18925545 155.905278,1.45804121 155.396309,0.902318379 L149.350841,0.902318379 L149.350841,0 L147.64989,0 L147.64989,0.902318379 L140.631823,0.902318379 L140.631823,1.90773797 L147.64989,1.90773797 L147.64989,3.01333391 L140,3.01333391 L140,4.03410899 L147.64989,4.03410899 L147.64989,5.13678008 L140.631823,5.13678008 L140.631823,6.15901759 L147.64989,6.15901759 L147.64989,7.33042281 L140.631823,7.33042281 L140.631823,8.35046669 L147.64989,8.35046669 L147.64989,9.52040948 L140,9.52040948 L140,10.5441094 L156.999269,10.5441094 L156.999269,9.52040948 L149.350841,9.52040948 L149.350841,8.35046669 L156.371102,8.35046669 L156.371102,7.33042281 L149.350841,7.33042281 L149.350841,6.15901759 L155.396309,6.15901759 L155.396309,6.15901759 Z M149.350841,1.90700675 L154.240891,1.90700675 C154.451499,2.23678438 154.599217,2.61116607 154.664301,3.01260269 L149.350841,3.01260269 L149.350841,1.90700675 Z M149.350841,4.03337778 L154.664301,4.03337778 C154.599217,4.43627683 154.451499,4.81138974 154.240891,5.13604886 L149.350841,5.13604886 L149.350841,4.03337778 Z" id="path782-5" fill="#FFFFFF" fill-rule="nonzero"></path>
                    <path d="M160.913054,0.264155913 L159,3.62356246 L160.725132,3.62356246 L161.948885,1.46778158 L164.845903,1.46778158 L166.072663,3.62356246 L167.794788,3.62356246 L165.883237,0.264155913 L160.913054,0.264155913 L160.913054,0.264155913 Z M169.812328,2.03788078 L175.07567,2.03788078 L175.07567,3.62356246 L176.824856,3.62356246 L176.824856,0.996927399 L173.391882,0.996927399 L173.391882,0 L171.496868,0 L171.496868,0.996927399 L168.063894,0.996927399 L168.063894,3.62356246 L169.812328,3.62356246 L169.812328,2.03788078 Z M175.864194,11.0079888 L170.14232,11.0079888 L170.14232,9.42827671 L175.483087,9.42827671 C176.143824,8.7126679 176.446755,7.87766658 176.446755,6.88372399 C176.446755,5.88082697 176.076923,4.99508384 175.483087,4.34663331 L168.417189,4.34663331 L168.417189,17 L175.864194,17 C176.566274,16.2381266 177,15.1725485 177,13.9950399 C176.999248,12.8182776 176.565522,11.7706084 175.864194,11.0079888 L175.864194,11.0079888 Z M170.141569,5.38684049 L174.246555,5.38684049 C174.538211,5.83456237 174.696066,6.30616276 174.696066,6.88372399 C174.696066,7.69559301 174.246555,8.38508472 174.246555,8.38508472 L170.141569,8.38508472 L170.141569,5.38684049 Z M174.711852,15.9575542 L170.141569,15.9575542 L170.141569,12.0474497 L174.711852,12.0474497 C175.062892,12.6847072 175.250814,13.3212185 175.250814,13.9942937 C175.250814,15.0367395 174.711852,15.9575542 174.711852,15.9575542 Z M164.757204,12.9563252 L165.15109,14.208454 L161.532448,15.8568168 L161.532448,12.0877447 L165.691556,12.0877447 C167.115259,12.0877447 167.148334,10.8020367 167.148334,10.8020367 L167.148334,4.34290229 L164.621899,4.34290229 L164.621899,3.13032218 L162.312704,3.13032218 L162.312704,4.34290229 L159.787021,4.34290229 C159.787021,4.34290229 159.787021,14.7651216 159.787021,15.70683 C159.787021,16.6455535 160.265096,16.948512 160.91982,16.9940304 C161.442997,17.0335791 161.949637,16.8074796 162.227011,16.6821175 C163.421448,16.144105 164.838386,15.4926697 165.463794,15.2068738 L166.027562,16.9992538 L167.649712,16.9992538 L166.380105,12.9563252 L164.757204,12.9563252 L164.757204,12.9563252 Z M161.532448,5.38087086 L165.3999,5.38087086 L165.3999,7.6687297 L161.532448,7.6687297 L161.532448,5.38087086 Z M161.532448,8.71117549 L165.3999,8.71117549 L165.3999,10.2662628 C165.3999,10.2662628 165.414934,11.0475375 164.700075,11.0475375 L161.532448,11.0475375 L161.532448,8.71117549 L161.532448,8.71117549 Z" id="path784-7" fill="#FFFFFF" fill-rule="nonzero"></path>
                    <path d="M100.952637,8.80046444 L102.139084,8.80046444 L102.139084,7.61249677 L100.952637,7.61249677 L100.952637,8.80046444 Z M104.175601,8.80046444 L105.364967,8.80046444 L105.364967,7.61249677 L104.175601,7.61249677 L104.175601,8.80046444 Z M100.977446,6.53564978 L102.565943,6.53564978 L102.565943,9.3487572 L103.750931,9.3487572 L103.750931,6.53564978 L104.701695,6.53564978 C105.496308,6.53564978 105.421882,5.95592156 105.297108,5.64595338 C105.232896,5.49316247 104.807497,4.47260686 104.807497,4.47260686 L103.707151,4.47260686 L104.33394,5.68762363 L102.72866,5.68762363 L105.026399,1.7910897 L103.77647,1.7910897 L102.715526,3.5858347 L102.074873,3.13769674 L103.923864,0.000731057022 L102.588563,0.000731057022 L100.701629,3.20056764 L102.268966,4.34028554 L100.977446,6.53564978 Z M100.551317,4.45871678 L98.6308183,0.722284338 L97,0.722284338 L98.921228,4.45871678 L100.551317,4.45871678 L100.551317,4.45871678 Z M100.551317,9.3487572 L98.6308183,5.61378688 L97,5.61378688 L98.921228,9.3487572 L100.551317,9.3487572 L100.551317,9.3487572 Z M103.521084,13.7862733 L103.521084,12.949213 L114.613568,12.949213 C114.939731,12.5851466 115.140391,12.0755999 115.140391,11.512686 C115.140391,10.9512342 114.940461,10.4431496 114.613568,10.0776211 L101.529808,10.0776211 L101.529808,11.0959835 L113.548246,11.0959835 C113.624132,11.205642 113.632158,11.4044896 113.632158,11.5243829 C113.632158,11.6515868 113.612457,11.8482412 113.548246,11.9330438 L102.085818,11.9330438 L102.085818,14.8090221 L106.088073,14.8090221 L113.773714,14.8090221 C113.861275,15.0064075 113.911623,15.1687022 113.911623,15.397523 C113.911623,15.628537 113.861275,15.7827901 113.773714,15.9830997 L101.017578,15.9830997 L101.017578,17 L114.814228,17 C115.190009,16.5759869 115.423504,15.8931797 115.423504,15.3982541 C115.423504,14.7454201 115.190009,14.2146727 114.814228,13.7891976 L103.521084,13.7891976 L103.521084,13.7862733 Z M111.5774,8.80046444 L112.766766,8.80046444 L112.766766,7.61249677 L111.5774,7.61249677 L111.5774,8.80046444 Z M111.602209,6.53564978 L113.194354,6.53564978 L113.194354,9.3487572 L114.375694,9.3487572 L114.375694,6.53564978 L115.330106,6.53564978 C116.121071,6.53564978 116.045915,5.95592156 115.92406,5.64595338 C115.85693,5.49316247 115.43299,4.47260686 115.43299,4.47260686 L114.331184,4.47260686 L114.959433,5.68762363 L113.352693,5.68762363 L115.651892,1.7910897 L114.405611,1.7910897 L113.343937,3.5858347 L112.705474,3.13769674 L114.548627,0.000731057022 L113.214785,0.000731057022 L111.329311,3.20056764 L112.897378,4.34028554 L111.602209,6.53564978 Z M114.803283,8.80046444 L115.99119,8.80046444 L115.99119,7.61249677 L114.803283,7.61249677 L114.803283,8.80046444 Z M111.31034,0.989851208 L109.432162,0.989851208 L109.432162,0 L107.394187,0 L107.394187,0.989851208 L105.51382,0.989851208 L105.51382,1.83495313 L111.31034,1.83495313 L111.31034,0.989851208 Z M105.7371,5.58088931 C105.7371,5.58088931 105.7371,5.84626301 105.7371,6.22348843 L105.7371,8.21123248 C105.7371,9.02197471 106.289462,9.34948826 106.858607,9.34948826 L109.963364,9.34948826 C110.53032,9.34948826 111.081952,9.02270577 111.081952,8.21123248 L111.081952,6.22348843 C111.081952,5.84626301 111.081952,5.58088931 111.081952,5.58088931 L109.895504,5.58088931 L109.895504,6.22348843 L106.925737,6.22348843 L106.925737,5.58088931 L105.7371,5.58088931 Z M109.896234,7.07151458 L109.896234,8.50219317 L106.926467,8.50219317 L106.926467,7.07151458 L109.896234,7.07151458 Z M111.082682,4.16848714 L105.73783,4.16848714 L105.73783,5.01943752 L111.082682,5.01943752 L111.082682,4.16848714 Z M111.082682,2.57916918 L105.73783,2.57916918 L105.73783,3.42573321 L111.082682,3.42573321 L111.082682,2.57916918 Z M99.5407201,10.0995528 L97,16.9978068 L98.6001721,16.9978068 L101.142352,10.0995528 L99.5407201,10.0995528 Z" id="path786-6" fill="#FFFFFF" fill-rule="nonzero"></path>
                    <path d="M85.3300541,15.0154845 L92.0725693,15.0154845 L92.0725693,13.9954407 L85.3300541,13.9954407 L85.3300541,13.0287754 L89.2808654,13.0287754 C89.8441293,13.0287754 90.3907415,12.7004602 90.3907415,11.8888124 L90.3907415,10.8731558 L90.8975342,10.8731558 L90.8975342,9.85091832 L78.1053618,9.85091832 L78.1053618,10.8731558 L78.6099825,10.8731558 L78.6099825,11.8888124 C78.6099825,12.699729 79.1558707,13.0287754 79.7184106,13.0287754 L83.6446063,13.0287754 L83.6446063,13.9954407 L76.9252587,13.9954407 L76.9252587,15.0154845 L83.6446063,15.0154845 L83.6446063,15.9792249 L76.3598228,15.9792249 L76.3598228,17 L92.6380052,17 L92.6380052,15.9792249 L85.3286061,15.9792249 L85.3286061,15.0154845 L85.3300541,15.0154845 Z M80.1252928,12.177642 L80.1252928,10.873887 L88.8768792,10.873887 L88.8768792,12.177642 L80.1252928,12.177642 Z M85.3300541,0.914017807 L85.3300541,0 L83.6453303,0 L83.6453303,0.914017807 L76,0.914017807 L76,1.93625532 L83.6453303,1.93625532 L83.6453303,2.72596671 L76.7377454,2.72596671 L76.7377454,3.74454815 L92.2586346,3.74454815 L92.2586346,2.72596671 L85.3300541,2.72596671 L85.3300541,1.93625532 L93,1.93625532 L93,0.914017807 L85.3300541,0.914017807 L85.3300541,0.914017807 Z M76,13.0287754 L77.5167582,13.0287754 L77.5167582,8.95298723 L91.4854137,8.95298723 L91.4854137,13.0287754 L93,13.0287754 L93,7.92855607 L76.000724,7.92855607 L76.000724,13.0287754 L76,13.0287754 Z M92.2586346,7.17906147 C92.0783612,6.88657577 91.9625229,6.39373737 91.9625229,5.82923997 C91.9625229,5.266205 92.0783612,4.77117295 92.2586346,4.47356876 L92.2586346,4.4604069 L76.7377454,4.4604069 L76.7377454,4.47356876 C76.9216388,4.77044174 77.0403731,5.266205 77.0403731,5.82923997 C77.0403731,6.39300615 76.9216388,6.88584455 76.7377454,7.17906147 L92.2586346,7.17906147 Z M90.4783442,5.47971956 C90.4298369,5.59525141 90.4153571,5.71224569 90.4153571,5.82997118 C90.4153571,5.94257818 90.4269409,6.02813024 90.4783442,6.16121123 L78.5194838,6.16121123 C78.574507,6.02813024 78.5846429,5.94257818 78.5846429,5.82997118 C78.5846429,5.7129769 78.5730591,5.59598262 78.5194838,5.47971956 L90.4783442,5.47971956 Z" id="path788-1" fill="#FFFFFF" fill-rule="nonzero"></path>
                    <path d="M36.0029254,0.000746203143 L36,17 L51.5885137,17 C52.9663584,17 53,15.714292 53,15.714292 L53,0 L36.0029254,0 L36.0029254,0.000746203143 Z M37.7018284,1.04169959 L45.7399871,1.04169959 C45.7575393,1.74686156 45.7984943,2.43486086 45.8665089,3.10271267 L37.7018284,3.10271267 L37.7018284,1.04169959 Z M45.2185416,15.956808 L37.7025597,15.956808 L37.7025597,14.5054429 L45.726823,14.5054429 L45.2185416,15.956808 L45.2185416,15.956808 Z M37.7018284,13.4585199 L37.7018284,4.14590466 L45.9901054,4.14590466 C46.2797161,6.22408041 46.7865347,8.12167501 47.3920843,9.78645422 L46.096881,13.4592661 L37.7018284,13.4592661 L37.7018284,13.4585199 Z M50.3759518,15.956808 L46.6724457,15.956808 L48.1694988,11.6937495 C49.0017638,13.5256782 49.9130136,14.9718199 50.6809206,15.9247213 C50.5916971,15.9448688 50.4929662,15.956808 50.3759518,15.956808 Z M51.3018284,14.388289 C50.5024737,13.1786937 49.6292536,11.5549557 48.8920628,9.64840664 L50.4571306,5.23088403 L49.0032265,5.23088403 L48.1855883,7.5493372 C47.8674554,6.47405847 47.6122177,5.33386006 47.4374274,4.14441226 L51.3025597,4.14441226 L51.3025597,14.388289 L51.3018284,14.388289 Z M51.3018284,3.10196646 L49.9905356,3.10196646 L49.9905356,1.71775963 L48.628049,1.71775963 L48.628049,3.10196646 L47.3043235,3.10196646 C47.2377716,2.42739882 47.1990105,1.74238434 47.1953538,1.04095338 L51.3018284,1.04095338 L51.3018284,3.10196646 Z M38.7593461,11.0542534 C38.7593461,11.0542534 38.7915251,12.338469 40.1701011,12.338469 L43.6030114,12.338469 C44.9830501,12.338469 45.0130351,11.0542534 45.0130351,11.0542534 L45.0130351,5.40101835 L38.7593461,5.40101835 L38.7593461,11.0542534 L38.7593461,11.0542534 Z M40.2973543,10.5177333 L40.2973543,6.44122553 L43.4750269,6.44122553 L43.4750269,10.5177333 C43.4750269,10.5177333 43.4889223,11.2975156 42.8,11.2975156 L40.9731125,11.2975156 C40.2841901,11.2975156 40.2973543,10.5177333 40.2973543,10.5177333 Z" id="path790-8" fill="#FFFFFF" fill-rule="nonzero"></path>
                    <path d="M130.801574,12.1127742 L130.801574,9.99234409 L124.191844,9.99234409 L124.191844,13.2497634 C124.191844,13.2497634 128.010409,13.2497634 129.388808,13.2497634 C130.772325,13.2497634 130.801574,12.1127742 130.801574,12.1127742 Z M129.102159,11.7076989 C129.102159,12.0030968 129.035616,12.2334194 128.56835,12.2334194 L125.892722,12.2334194 L125.892722,11.0123441 L129.102891,11.0123441 C129.102159,11.0116129 129.102159,11.4671398 129.102159,11.7076989 Z M133.315597,13.7323441 C133.315597,13.3864946 133.315597,8.19290323 133.315597,8.19290323 L121.678553,8.19290323 L121.678553,14.9892473 C121.678553,14.9892473 130.456426,14.9892473 131.837018,14.9892473 C133.002624,14.9892473 133.315597,14.3033978 133.315597,13.7323441 L133.315597,13.7323441 Z M131.61472,13.3097204 C131.61472,13.5809892 131.499183,13.9707097 130.939049,13.9707097 L123.374312,13.9707097 L123.374312,9.21070968 L131.61472,9.21070968 C131.61472,9.21144086 131.61472,13.039914 131.61472,13.3097204 Z M119,0 L119,17 L134.587233,17 C135.968556,17 136,15.7387097 136,15.7387097 L136,0 L119,0 Z M134.29181,15.2137204 C134.29181,15.5581075 134.053424,15.9748817 133.368247,15.9748817 L120.703802,15.9821935 L120.703802,7.29208602 L134.29181,7.29208602 C134.29181,7.29208602 134.29181,14.8722581 134.29181,15.2166452 L134.29181,15.2137204 Z M134.29181,6.26769892 L128.395776,6.26769892 L128.395776,5.27548387 L133.65197,5.27548387 C133.471352,4.9215914 133.348503,4.34030108 133.348503,3.672 C133.348503,3.00369892 133.471352,2.41217204 133.65197,2.06412903 L133.65197,2.04584946 L121.341449,2.04584946 L121.341449,2.06412903 C121.524991,2.41290323 121.642722,3.00369892 121.642722,3.672 C121.642722,4.34030108 121.524991,4.9215914 121.341449,5.27548387 L126.623968,5.27548387 L126.623968,6.26769892 L120.703802,6.26769892 L120.703802,1.02950538 L134.29181,1.02950538 L134.29181,6.26769892 Z M123.138119,3.25303226 L131.856762,3.25303226 C131.801918,3.39122581 131.793875,3.52868817 131.793875,3.67126882 C131.793875,3.80288172 131.798993,3.90670968 131.856762,4.06391398 L123.140313,4.06391398 C123.195157,3.90670968 123.203932,3.80288172 123.203932,3.67126882 C123.2032,3.52868817 123.192963,3.39195699 123.138119,3.25303226 Z" id="path792-9" fill="#FFFFFF" fill-rule="nonzero"></path>
                </g>
            </g>
        </g>
    </g>
</svg>