<?xml version="1.0" encoding="UTF-8"?>
<svg width="254px" height="49px" viewBox="0 0 254 49" version="1.1" xmlns="http://www.w3.org/2000/svg" xmlns:xlink="http://www.w3.org/1999/xlink">
    <!-- Generator: Sketch 46.2 (44496) - http://www.bohemiancoding.com/sketch -->
    <title>National_Taiwan_Library_logo</title>
    <desc>Created with Sketch.</desc>
    <defs></defs>
    <g id="Page-1" stroke="none" stroke-width="1" fill="none" fill-rule="evenodd">
        <g id="登入" transform="translate(-593.000000, -102.000000)">
            <g id="National_Taiwan_Library_logo" transform="translate(593.000000, 102.000000)">
                <g id="National_Taiwan_Library_logo-Copy-2">
                    <path d="M38.6870201,0 L11.480226,0 L11.480226,0.0546717268 C12.016214,0.991901328 12.3639376,2.57180266 12.3639376,4.36258065 C12.3639376,6.15224288 12.016214,7.70982922 11.480226,8.64705882 L38.6870201,8.64705882 C39.6077673,7.55362429 40.180791,6.02058444 40.180791,4.32576091 C40.180791,2.63428463 39.6077673,1.10236053 38.6870201,0 Z" id="path714-7" fill="#0097E0" fill-rule="nonzero"></path>
                    <path d="M12.9750256,12.9705882 L40.180791,12.9705882 L40.180791,13.0118923 C39.6448029,13.9496059 39.2929643,15.5303231 39.2929643,17.3220258 C39.2929643,19.1126122 39.6448029,20.6754682 40.180791,21.6176471 L12.9750256,21.6176471 C12.0542784,20.5191826 11.480226,18.9887001 11.480226,17.2896523 C11.480226,15.5973026 12.0553072,14.0623548 12.9750256,12.9705882 L12.9750256,12.9705882 Z" id="path716-4" fill="#0097E0" fill-rule="nonzero"></path>
                    <path d="M0,18.6614391 L0,0 L0.0444625329,0 C0.98039885,0.546660838 2.55326095,0.900688809 4.34065477,0.900688809 C6.12360234,0.900688809 7.67201005,0.546660838 8.61016949,0 L8.61016949,18.6614391 C7.51639118,19.5933657 5.99021474,20.1764706 4.30063849,20.1764706 C2.62106631,20.1764706 1.09488987,19.5923244 0,18.6614391 Z" id="path718-0" fill="#0097E0" fill-rule="nonzero"></path>
                    <path d="M1.49479966,46.1176471 L28.700565,46.1176471 L28.700565,46.0741216 C28.1645769,45.1321859 27.8137671,43.5518768 27.8137671,41.7584044 C27.8137671,39.9682802 28.1656057,38.414756 28.700565,37.4705882 L1.49479966,37.4705882 C0.571994914,38.5687692 0,40.1010887 0,41.7930016 C0,43.4871466 0.571994914,45.017234 1.49479966,46.1176471 L1.49479966,46.1176471 Z" id="path722-9" fill="#00908C" fill-rule="nonzero"></path>
                    <path d="M27.2047365,33.1470588 L0,33.1470588 L0,33.1057867 C0.53598804,32.1598753 0.884740335,30.5826125 0.884740335,28.7900656 C0.884740335,27.0008651 0.534959273,25.4459115 0,24.5 L27.2047365,24.5 C28.1254838,25.6020761 28.700565,27.133605 28.700565,28.8246449 C28.700565,30.5168002 28.124455,32.0483291 27.2047365,33.1470588 Z" id="path724-4" fill="#00908C" fill-rule="nonzero"></path>
                    <path d="M41.6158192,26.0132613 L41.6158192,44.6764706 L41.5735962,44.6764706 C40.6357999,44.1369872 39.0624356,43.7797617 37.2746226,43.7797617 C35.4923653,43.7797617 33.9445571,44.1380287 33.0056497,44.6764706 L33.0056497,26.0132613 C34.0990046,25.0811423 35.6212568,24.5 37.3124012,24.5 C38.9957676,24.5 40.5213532,25.0811423 41.6158192,26.0132613 Z" id="path726-8" fill="#00908C" fill-rule="nonzero"></path>
                    <polygon id="path732-8" fill="#000000" fill-rule="nonzero" points="132.437522 34.5736731 127.717514 34.5736731 127.717514 33.1470588 139.19774 33.1470588 139.19774 34.5736731 134.464361 34.5736731 134.464361 46.1176471 132.438636 46.1176471 132.438636 34.5736731"></polygon>
                    <path d="M146.211529,43.5872241 C146.211529,44.4258658 146.254845,45.2399728 146.372881,45.9001801 L144.604499,45.9001801 L144.444229,44.6823653 L144.379255,44.6823653 C143.774995,45.4407115 142.613039,46.1176471 141.068818,46.1176471 C138.881352,46.1176471 137.762712,44.7459326 137.762712,43.342992 C137.762712,41.0077317 140.089873,39.7296953 144.267716,39.7464235 L144.267716,39.5456848 C144.267716,38.7661495 144.021897,37.306333 141.805192,37.3286373 C140.780765,37.3286373 139.731431,37.5895976 138.972316,38.0490662 L138.52291,36.865823 C139.418472,36.3695524 140.737449,36.0294118 142.101908,36.0294118 C145.406931,36.0294118 146.211529,38.0490662 146.211529,39.9694665 L146.211529,43.5872241 L146.211529,43.5872241 Z M144.309949,40.9686992 C142.166882,40.9296667 139.731431,41.2653464 139.731431,43.1467142 C139.731431,44.3009618 140.581511,44.826228 141.562622,44.826228 C142.994221,44.826228 143.904943,44.022158 144.221151,43.2058206 C144.289374,43.0050819 144.308866,42.8054584 144.308866,42.6459826 L144.308866,40.9686992 L144.309949,40.9686992 Z" id="path734-2" fill="#000000" fill-rule="nonzero"></path>
                    <path d="M152.112994,34.3007568 C152.112994,34.9265635 151.558233,35.429976 150.639868,35.429976 C149.7977,35.429976 149.242938,34.9265635 149.242938,34.3007568 C149.242938,33.670693 149.827109,33.1470588 150.690665,33.1470588 C151.534171,33.1470588 152.112994,33.6515356 152.112994,34.3007568 Z M149.483557,46.1176471 L149.483557,36.8901916 L151.905794,36.8901916 L151.905794,46.1176471 L149.483557,46.1176471 Z" id="path736-4" fill="#000000" fill-rule="nonzero"></path>
                    <path d="M176.354644,43.5872241 C176.354644,44.4258658 176.401227,45.2399728 176.508475,45.9001801 L174.742675,45.9001801 L174.585594,44.6823653 L174.521679,44.6823653 C173.916107,45.4407115 172.756963,46.1176471 171.209992,46.1176471 C169.020617,46.1176471 167.898305,44.7459326 167.898305,43.342992 C167.898305,41.0077317 170.224177,39.7296953 174.403598,39.7464235 L174.403598,39.5456848 C174.403598,38.7661495 174.160936,37.306333 171.945561,37.3286373 C170.917498,37.3286373 169.865601,37.5895976 169.112699,38.0490662 L168.663124,36.865823 C169.555774,36.3695524 170.870915,36.0294118 172.233723,36.0294118 C175.546493,36.0294118 176.353561,38.0490662 176.353561,39.9694665 L176.353561,43.5872241 L176.354644,43.5872241 Z M174.451264,40.9686992 C172.307388,40.9296667 169.867768,41.2653464 169.867768,43.1467142 C169.867768,44.3009618 170.717085,44.826228 171.703983,44.826228 C173.136122,44.826228 174.050438,44.022158 174.365682,43.2058206 C174.431764,43.0050819 174.451264,42.8054584 174.451264,42.6459826 L174.451264,40.9686992 Z" id="path738-5" fill="#000000" fill-rule="nonzero"></path>
                    <path d="M179.38359,36.2334794 L181.061106,36.2334794 L181.061106,37.8683002 C181.562944,36.9482859 182.744693,36.0294118 184.415126,36.0294118 C185.812382,36.0294118 187.988701,36.8491023 187.988701,40.2395884 L187.988701,46.1176471 L186.148289,46.1176471 L186.148289,40.4219952 C186.148289,38.8259358 185.542239,37.5046266 183.809075,37.5046266 C182.619233,37.5046266 181.219954,38.8624172 181.219954,40.1768861 L181.219954,46.1176471 L179.378531,46.1176471 L179.38359,36.2334794 L179.38359,36.2334794 Z" id="path740-5" fill="#000000" fill-rule="nonzero"></path>
                    <polygon id="polygon742-1" fill="#000000" fill-rule="nonzero" points="159.258364 36.0294118 156.491209 43.1764502 153.755924 36.0294118 152.112994 36.0294118 155.427426 44.6764706 157.237396 44.6764706 160.007848 37.7089558 162.771706 44.6764706 164.588269 44.6764706 167.898305 36.0294118 166.257573 36.0294118 163.522288 43.1764502 160.756232 36.0294118"></polygon>
                    <polygon id="path746-7" fill="#000000" fill-rule="nonzero" points="51.6610169 46.1176471 51.6610169 33.1470588 53.8369931 33.1470588 61.3588996 43.929384 61.3588996 33.1470588 63.1412429 33.1470588 63.1412429 46.1176471 61.1433911 46.1176471 53.4873416 35.2074852 53.4873416 46.1176471 51.6610169 46.1176471"></polygon>
                    <path d="M71.5964207,43.5872241 C71.5964207,44.4258658 71.6365235,45.2399728 71.7514124,45.9001801 L69.9858074,45.9001801 L69.8308157,44.6823653 L69.7603649,44.6823653 C69.1555721,45.4407115 67.9958438,46.1176471 66.4513459,46.1176471 C64.2608685,46.1176471 63.1412429,44.7459326 63.1412429,43.342992 C63.1412429,41.0077317 65.4672026,39.7296953 69.6498114,39.7464235 L69.6498114,39.5456848 C69.6498114,38.7661495 69.4016079,37.306333 67.1894533,37.3286373 C66.1576203,37.3286373 65.105194,37.5895976 64.3454094,38.0490662 L63.9010275,36.865823 C64.7930428,36.3695524 66.1131821,36.0294118 67.4799273,36.0294118 C70.7856948,36.0294118 71.5964207,38.0490662 71.5964207,39.9694665 L71.5964207,43.5872241 L71.5964207,43.5872241 Z M69.6899141,40.9686992 C67.5449588,40.9296667 65.1062778,41.2653464 65.1062778,43.1467142 C65.1062778,44.3009618 65.9603581,44.826228 66.9455852,44.826228 C68.3719426,44.826228 69.2888866,44.022158 69.6032055,43.2058206 C69.6714886,43.0050819 69.6899141,42.8054584 69.6899141,42.6459826 L69.6899141,40.9686992 Z" id="path748-1" fill="#000000" fill-rule="nonzero"></path>
                    <path d="M76.4048238,34.5882353 L76.4048238,36.7756836 L78.9265537,36.7756836 L78.9265537,38.0432656 L76.4048238,38.0432656 L76.4048238,42.9702926 C76.4048238,44.1019493 76.7453884,44.7446966 77.7263306,44.7446966 C78.210495,44.7446966 78.4899325,44.703603 78.7557863,44.6298451 L78.8266159,45.8932123 C78.4899325,46.0080639 77.9494925,46.1176471 77.2673932,46.1176471 C76.4465454,46.1176471 75.7867623,45.8563334 75.3637249,45.4222155 C74.8863524,44.9143398 74.6825959,44.103003 74.6825959,43.0250841 L74.6825959,38.0443192 L73.1864407,38.0443192 L73.1864407,36.7767372 L74.6825959,36.7767372 L74.6825959,34.589289 L76.4048238,34.589289 L76.4048238,34.5882353 Z" id="path750-1" fill="#000000" fill-rule="nonzero"></path>
                    <path d="M84.6666667,34.2891098 C84.6666667,34.9070105 84.1129146,35.4087885 83.1890941,35.4087885 C82.3449598,35.4087885 81.7966102,34.9070105 81.7966102,34.2891098 C81.7966102,33.6669477 82.3719721,33.1470588 83.241768,33.1470588 C84.0899541,33.1470588 84.6666667,33.6456408 84.6666667,34.2891098 Z M82.0127085,46.1176471 L82.0127085,36.8810968 L84.4694769,36.8810968 L84.4694769,46.1176471 L82.0127085,46.1176471 Z" id="path752-5" fill="#000000" fill-rule="nonzero"></path>
                    <path d="M94.7118644,40.98486 C94.7118644,44.5639807 92.053931,46.1176471 89.5925386,46.1176471 C86.8306752,46.1176471 84.6666667,44.2003805 84.6666667,41.1488147 C84.6666667,37.9243716 86.9407792,36.0294118 89.7643833,36.0294118 C92.7155846,36.0294118 94.7118644,38.0481742 94.7118644,40.98486 L94.7118644,40.98486 Z M86.5785677,41.0874711 C86.5785677,43.2043833 87.8493953,44.8037785 89.6769174,44.8037785 C91.4601921,44.8037785 92.7989344,43.2222287 92.7989344,41.0484343 C92.7989344,39.4077716 91.9314788,37.345511 89.7232229,37.345511 C87.5365762,37.3443957 86.5785677,39.2683543 86.5785677,41.0874711 L86.5785677,41.0874711 Z" id="path754-2" fill="#000000" fill-rule="nonzero"></path>
                    <path d="M116.076958,43.5872241 C116.076958,44.4258658 116.125707,45.2399728 116.237288,45.9001801 L114.471488,45.9001801 L114.310075,44.6823653 L114.246159,44.6823653 C113.642754,45.4407115 112.482526,46.1176471 110.933389,46.1176471 C108.748347,46.1176471 107.627119,44.7459326 107.627119,43.342992 C107.627119,41.0077317 109.951908,39.7296953 114.132412,39.7464235 L114.132412,39.5456848 C114.132412,38.7661495 113.8865,37.306333 111.672208,37.3286373 C110.646311,37.3286373 109.595498,37.5895976 108.837179,38.0490662 L108.389771,36.865823 C109.280254,36.3695524 110.601895,36.0294118 111.966869,36.0294118 C115.274223,36.0294118 116.075875,38.0490662 116.075875,39.9694665 L116.075875,43.5872241 L116.076958,43.5872241 Z M114.180077,40.9686992 C112.032951,40.9296667 109.597664,41.2653464 109.597664,43.1467142 C109.597664,44.3009618 110.449148,44.826228 111.428463,44.826228 C112.860602,44.826228 113.776002,44.022158 114.092329,43.2058206 C114.160578,43.0050819 114.180077,42.8054584 114.180077,42.6459826 L114.180077,40.9686992 Z" id="path756-7" fill="#000000" fill-rule="nonzero"></path>
                    <polygon id="path758-6" fill="#000000" fill-rule="nonzero" points="119.107345 31.7058824 120.542373 31.7058824 120.542373 44.6764706 119.107345 44.6764706"></polygon>
                    <path d="M97.5920493,36.2334794 L99.2693156,36.2334794 L99.2693156,37.8683002 C99.7747237,36.9482859 100.951646,36.0294118 102.62081,36.0294118 C104.022583,36.0294118 106.19209,36.8491023 106.19209,40.2395884 L106.19209,46.1176471 L104.358846,46.1176471 L104.358846,40.4219952 C104.358846,38.8259358 103.748103,37.5046266 102.017156,37.5046266 C100.825041,37.5046266 99.4212419,38.8624172 99.4212419,40.1768861 L99.4212419,46.1176471 L97.5819209,46.1176471 L97.5920493,36.2334794 L97.5920493,36.2334794 Z" id="path760-1" fill="#000000" fill-rule="nonzero"></path>
                    <polygon id="path764-4" fill="#000000" fill-rule="nonzero" points="195.164952 33.1470588 197.177358 33.1470588 197.177358 44.7137084 203.774011 44.7137084 203.774011 46.1176471 195.163842 46.1176471 195.163842 33.1470588"></polygon>
                    <path d="M206.644068,34.3007568 C206.644068,34.9265635 206.097965,35.429976 205.166774,35.429976 C204.320114,35.429976 203.774011,34.9265635 203.774011,34.3007568 C203.774011,33.670693 204.349633,33.1470588 205.221786,33.1470588 C206.064421,33.1470588 206.644068,33.6515356 206.644068,34.3007568 L206.644068,34.3007568 Z M204.006138,46.1176471 L204.006138,36.8901916 L206.440118,36.8901916 L206.440118,46.1176471 L204.006138,46.1176471 Z" id="path766-2" fill="#000000" fill-rule="nonzero"></path>
                    <path d="M209.515185,31.7058824 L211.412647,31.7058824 L211.412647,37.782393 C211.412647,37.782393 212.598427,36.0236087 215.067567,36.0236087 C217.724437,36.0236087 219.559322,38.0200967 219.559322,40.9450801 C219.559322,44.4068498 217.150638,46.1176471 214.787561,46.1176471 C213.410868,46.1176471 211.999173,45.5819767 211.279008,44.3220354 L211.279008,45.900031 L209.514124,45.900031 L209.514124,31.7058824 L209.515185,31.7058824 Z M211.412647,42.0208848 C211.412647,42.2451967 211.440223,42.4650448 211.50386,42.6681531 C211.852807,43.8845712 212.990859,44.7215562 214.39619,44.7215562 C216.430473,44.7215562 217.61095,43.2216792 217.61095,41.005343 C217.61095,39.0680019 216.516383,37.4018439 214.439676,37.4018439 C213.149953,37.4018439 211.920687,38.2455247 211.527194,39.5657289 C211.461435,39.783345 211.413707,40.0232807 211.413707,40.3067396 L211.413707,42.0208848 L211.412647,42.0208848 Z" id="path768-3" fill="#000000" fill-rule="nonzero"></path>
                    <path d="M235.186409,43.5872241 C235.186409,44.4258658 235.231926,45.2399728 235.344633,45.9001801 L233.578166,45.9001801 L233.421027,44.6823653 L233.353836,44.6823653 C232.750203,45.4407115 231.587369,46.1176471 230.046317,46.1176471 C227.855032,46.1176471 226.734463,44.7459326 226.734463,43.342992 C226.734463,41.0077317 229.056879,39.7296953 233.241129,39.7464235 L233.241129,39.5456848 C233.241129,38.7661495 232.992957,37.306333 230.783248,37.3286373 C229.752628,37.3286373 228.700335,37.5895976 227.940646,38.0490662 L227.493069,36.865823 C228.384972,36.3695524 229.707112,36.0294118 231.074769,36.0294118 C234.376869,36.0294118 235.185326,38.0490662 235.185326,39.9694665 L235.185326,43.5872241 L235.186409,43.5872241 Z M233.288813,40.9686992 C231.143043,40.9296667 228.702502,41.2653464 228.702502,43.1467142 C228.702502,44.3009618 229.553224,44.826228 230.537243,44.826228 C231.965588,44.826228 232.881333,44.022158 233.19778,43.2058206 C233.266054,43.0050819 233.288813,42.8054584 233.288813,42.6459826 L233.288813,40.9686992 Z" id="path770-2" fill="#000000" fill-rule="nonzero"></path>
                    <path d="M236.779661,36.1942298 L238.760762,36.1942298 L238.760762,38.1617447 C238.760762,38.1617447 239.901396,36.0294118 242.519774,36.0294118 L242.519774,37.7325311 C240.544446,37.7325311 238.921236,39.2387846 238.921236,40.5424492 L238.921236,46.1176471 L236.780816,46.1176471 L236.780816,36.1942298 L236.779661,36.1942298 Z" id="path772-2" fill="#000000" fill-rule="nonzero"></path>
                    <path d="M244.139415,36.0294118 L247.573396,43.4711479 L251.015936,36.0294118 L252.564972,36.0294118 L249.650902,42.3871803 C248.260193,45.4447095 247.311301,46.9935286 245.985849,47.9653971 C245.019841,48.6523899 244.088066,48.9280097 243.604527,49 L243.117779,47.6578958 C243.604527,47.5252281 244.246393,47.26812 244.818723,46.8649745 C245.345053,46.509137 246.239386,45.7203294 246.539993,44.8924414 C246.5999,44.715551 242.519774,36.0304402 242.519774,36.0304402 L244.139415,36.0304402 L244.139415,36.0294118 Z" id="path774-1" fill="#000000" fill-rule="nonzero"></path>
                    <path d="M220.99435,36.1942298 L222.978473,36.1942298 L222.978473,38.1617447 C222.978473,38.1617447 224.112422,36.0294118 226.734463,36.0294118 L226.734463,37.7325311 C224.756108,37.7325311 223.138818,39.2387846 223.138818,40.5424492 L223.138818,46.1176471 L220.995504,46.1176471 L220.995504,36.1942298 L220.99435,36.1942298 Z" id="path776-6" fill="#000000" fill-rule="nonzero"></path>
                    <path d="M104.755991,22.9936145 L97.7905962,23.0043667 L101.023268,5.37610814 L98.1782169,5.37610814 L94.9423331,23.0043667 L90.1752402,23.0043667 L86.945781,5.37610814 L84.0975179,5.37610814 L87.3301894,23.0043667 L80.3669358,23.0043667 L80.3669358,24.5 L104.757062,24.5 L104.757062,23.0022163 L104.755991,22.9936145 Z M104.751708,2.36226192 L94.2506121,2.36226192 L94.2452582,0 L90.8648197,0 L90.8648197,2.36441236 L80.3615819,2.36441236 L80.3615819,3.86434653 L104.750637,3.85359431 L104.750637,2.35796103 L104.751708,2.36226192 Z" id="path780-8" fill="#000000" fill-rule="nonzero"></path>
                    <path d="M202.815968,16.9073078 C201.942864,17.8725967 201.397174,19.2025033 201.397174,20.6904813 C201.397174,22.1889974 201.942864,23.5368188 202.815968,24.5 L223.374829,24.5 C224.247933,23.5368188 224.786277,22.1889974 224.786277,20.6904813 C224.786277,19.2025033 224.247933,17.8725967 223.374829,16.9073078 L202.815968,16.9073078 Z M221.725167,23.0278292 L204.46563,23.0278292 C204.161303,22.554669 203.957719,22.0193342 203.864322,21.4344703 L222.329623,21.4344703 C222.23098,22.0193342 222.027395,22.554669 221.725167,23.0278292 Z M203.860124,19.9696761 C203.95457,19.3827046 204.160253,18.8336703 204.46458,18.3626177 L221.724118,18.3626177 C222.028445,18.8336703 222.234128,19.3837584 222.327525,19.9696761 L203.860124,19.9696761 Z M222.998093,8.87623124 C223.727429,8.07112134 224.226945,7.00782829 224.365466,5.81386296 L225.299435,5.81386296 L225.299435,4.34274592 L224.365466,4.34274592 C224.226945,3.15510345 223.728478,2.10129468 222.998093,1.30040002 L214.322676,1.30040002 L214.322676,0 L211.881763,0 L211.881763,1.30040002 L201.810639,1.30040002 L201.810639,2.74938707 L211.881763,2.74938707 L211.881763,4.34274592 L200.903955,4.34274592 L200.903955,5.81386296 L211.881763,5.81386296 L211.881763,7.40300658 L201.810639,7.40300658 L201.810639,8.87623124 L211.881763,8.87623124 L211.881763,10.5644329 L201.810639,10.5644329 L201.810639,12.0344961 L211.881763,12.0344961 L211.881763,13.7205901 L200.903955,13.7205901 L200.903955,15.1959224 L225.298386,15.1959224 L225.298386,13.7205901 L214.322676,13.7205901 L214.322676,12.0344961 L224.396948,12.0344961 L224.396948,10.5644329 L214.322676,10.5644329 L214.322676,8.87623124 L222.998093,8.87623124 L222.998093,8.87623124 Z M214.322676,2.74833326 L221.340036,2.74833326 C221.642264,3.22360102 221.854244,3.7631511 221.947641,4.34169212 L214.322676,4.34169212 L214.322676,2.74833326 Z M214.322676,5.81280915 L221.947641,5.81280915 C221.854244,6.39345778 221.642264,6.93406168 221.340036,7.40195277 L214.322676,7.40195277 L214.322676,5.81280915 Z" id="path782-5" fill="#000000" fill-rule="nonzero"></path>
                    <path d="M230.914779,0.380695286 L228.169492,5.22219296 L230.645104,5.22219296 L232.401225,2.11533228 L236.558528,2.11533228 L238.318963,5.22219296 L240.790261,5.22219296 L238.047131,0.380695286 L230.914779,0.380695286 L230.914779,0.380695286 Z M243.685487,2.93694583 L251.238532,2.93694583 L251.238532,5.22219296 L253.748663,5.22219296 L253.748663,1.43674831 L248.822248,1.43674831 L248.822248,0 L246.10285,0 L246.10285,1.43674831 L241.176435,1.43674831 L241.176435,5.22219296 L243.685487,5.22219296 L243.685487,2.93694583 Z M252.370087,15.8644544 L244.159036,15.8644544 L244.159036,13.5878106 L251.823187,13.5878106 C252.771363,12.556492 253.206078,11.3531077 253.206078,9.92066105 C253.206078,8.47530945 252.675359,7.1987973 251.823187,6.26426565 L241.683423,6.26426565 L241.683423,24.5 L252.370087,24.5 C253.377591,23.402006 254,21.8663199 254,20.1693223 C253.998921,18.4734001 253.376512,16.9635238 252.370087,15.8644544 L252.370087,15.8644544 Z M244.157957,7.76338776 L250.048728,7.76338776 C250.467263,8.40863401 250.69379,9.08829339 250.69379,9.92066105 C250.69379,11.0907076 250.048728,12.0843868 250.048728,12.0843868 L244.157957,12.0843868 L244.157957,7.76338776 Z M250.716443,22.9976517 L244.157957,22.9976517 L244.157957,17.3625011 L250.716443,17.3625011 C251.220195,18.2809016 251.489869,19.1982267 251.489869,20.1682469 C251.489869,21.6705952 250.716443,22.9976517 250.716443,22.9976517 Z M236.431241,18.672351 L236.996479,20.4768896 L231.803626,22.8524712 L231.803626,17.4205733 L237.772063,17.4205733 C239.815118,17.4205733 239.862581,15.5676411 239.862581,15.5676411 L239.862581,6.2588886 L236.237076,6.2588886 L236.237076,4.51134668 L232.923315,4.51134668 L232.923315,6.2588886 L229.298889,6.2588886 C229.298889,6.2588886 229.298889,21.2791458 229.298889,22.6363138 C229.298889,23.9891801 229.984941,24.4257967 230.924487,24.4913967 C231.675261,24.5483935 232.402303,24.2225441 232.800343,24.0418752 C234.514395,23.2665043 236.547741,22.327671 237.445218,21.9157888 L238.254242,24.4989246 L240.582072,24.4989246 L238.760151,18.672351 L236.431241,18.672351 L236.431241,18.672351 Z M231.803626,7.75478448 L237.353528,7.75478448 L237.353528,11.0519928 L231.803626,11.0519928 L231.803626,7.75478448 Z M231.803626,12.5543411 L237.353528,12.5543411 L237.353528,14.7954964 C237.353528,14.7954964 237.375102,15.9214511 236.34926,15.9214511 L231.803626,15.9214511 L231.803626,12.5543411 L231.803626,12.5543411 Z" id="path784-7" fill="#000000" fill-rule="nonzero"></path>
                    <path d="M144.869885,12.6830223 L146.572471,12.6830223 L146.572471,10.9709512 L144.869885,10.9709512 L144.869885,12.6830223 Z M149.49493,12.6830223 L151.201704,12.6830223 L151.201704,10.9709512 L149.49493,10.9709512 L149.49493,12.6830223 Z M144.905487,9.41902468 L147.185025,9.41902468 L147.185025,13.4732089 L148.885517,13.4732089 L148.885517,9.41902468 L150.249889,9.41902468 C151.390182,9.41902468 151.283378,8.58353402 151.104324,8.13681517 C151.012179,7.9166165 150.401719,6.44581577 150.401719,6.44581577 L148.822691,6.44581577 L149.722151,8.19686936 L147.418529,8.19686936 L150.715849,2.58127634 L148.922166,2.58127634 L147.399681,5.16782059 L146.480326,4.52197471 L149.13368,0.00105358218 L147.217485,0.00105358218 L144.509683,4.61258278 L146.758855,6.2551174 L144.905487,9.41902468 Z M144.29398,6.42579771 L141.53801,1.04093919 L139.19774,1.04093919 L141.954757,6.42579771 L144.29398,6.42579771 L144.29398,6.42579771 Z M144.29398,13.4732089 L141.53801,8.09045756 L139.19774,8.09045756 L141.954757,13.4732089 L144.29398,13.4732089 L144.29398,13.4732089 Z M148.55568,19.8684527 L148.55568,18.6621011 L164.473707,18.6621011 C164.941761,18.1374172 165.229714,17.4030704 165.229714,16.5918122 C165.229714,15.782661 164.942808,15.0504214 164.473707,14.5236303 L145.698142,14.5236303 L145.698142,15.9912703 L162.94494,15.9912703 C163.053839,16.1493076 163.065357,16.435882 163.065357,16.6086695 C163.065357,16.7919928 163.037085,17.0754064 162.94494,17.1976219 L146.496033,17.1976219 L146.496033,21.3424142 L152.239381,21.3424142 L163.268494,21.3424142 C163.394146,21.6268814 163.466396,21.8607766 163.466396,22.1905479 C163.466396,22.5234798 163.394146,22.7457857 163.268494,23.0344672 L144.963077,23.0344672 L144.963077,24.5 L164.76166,24.5 C165.300917,23.8889223 165.635989,22.9048766 165.635989,22.1916014 C165.635989,21.2507526 165.300917,20.4858519 164.76166,19.8726671 L148.55568,19.8726671 L148.55568,19.8684527 Z M160.116721,12.6830223 L161.823495,12.6830223 L161.823495,10.9709512 L160.116721,10.9709512 L160.116721,12.6830223 Z M160.152322,9.41902468 L162.437096,9.41902468 L162.437096,13.4732089 L164.132352,13.4732089 L164.132352,9.41902468 L165.50196,9.41902468 C166.637018,9.41902468 166.529166,8.58353402 166.3543,8.13681517 C166.257967,7.9166165 165.649602,6.44581577 165.649602,6.44581577 L164.068479,6.44581577 L164.970033,8.19686936 L162.664317,8.19686936 L165.963732,2.58127634 L164.175284,2.58127634 L162.651752,5.16782059 L161.735539,4.52197471 L164.380515,0.00105358218 L162.466415,0.00105358218 L159.760706,4.61258278 L162.010926,6.2551174 L160.152322,9.41902468 Z M164.745954,12.6830223 L166.450634,12.6830223 L166.450634,10.9709512 L164.745954,10.9709512 L164.745954,12.6830223 Z M159.733482,1.42655027 L157.038244,1.42655027 L157.038244,0 L154.113692,0 L154.113692,1.42655027 L151.415313,1.42655027 L151.415313,2.64449127 L159.733482,2.64449127 L159.733482,1.42655027 Z M151.735726,8.04304636 C151.735726,8.04304636 151.735726,8.42549669 151.735726,8.96914509 L151.735726,11.833835 C151.735726,13.0022577 152.528381,13.4742625 153.34512,13.4742625 L157.800534,13.4742625 C158.614131,13.4742625 159.405739,13.0033113 159.405739,11.833835 L159.405739,8.96914509 C159.405739,8.42549669 159.405739,8.04304636 159.405739,8.04304636 L157.703153,8.04304636 L157.703153,8.96914509 L153.441453,8.96914509 L153.441453,8.04304636 L151.735726,8.04304636 Z M157.7042,10.1913004 L157.7042,12.2531607 L153.4425,12.2531607 L153.4425,10.1913004 L157.7042,10.1913004 Z M159.406786,6.00752559 L151.736773,6.00752559 L151.736773,7.23389524 L159.406786,7.23389524 L159.406786,6.00752559 Z M159.406786,3.71703793 L151.736773,3.71703793 L151.736773,4.93708609 L159.406786,4.93708609 L159.406786,3.71703793 Z M142.843745,14.5552378 L139.19774,24.4968393 L141.494032,24.4968393 L145.142132,14.5552378 L142.843745,14.5552378 Z" id="path786-6" fill="#000000" fill-rule="nonzero"></path>
                    <path d="M122.451038,21.639963 L132.126738,21.639963 L132.126738,20.1698998 L122.451038,20.1698998 L122.451038,18.7767646 L128.120564,18.7767646 C128.928864,18.7767646 129.713267,18.3036045 129.713267,17.1338767 L129.713267,15.6701363 L130.440529,15.6701363 L130.440529,14.1969117 L112.083401,14.1969117 L112.083401,15.6701363 L112.807546,15.6701363 L112.807546,17.1338767 C112.807546,18.3025506 113.590911,18.7767646 114.398171,18.7767646 L120.032373,18.7767646 L120.032373,20.1698998 L110.389919,20.1698998 L110.389919,21.639963 L120.032373,21.639963 L120.032373,23.028883 L109.578503,23.028883 L109.578503,24.5 L132.938154,24.5 L132.938154,23.028883 L122.44896,23.028883 L122.44896,21.639963 L122.451038,21.639963 Z M114.982059,17.5501312 L114.982059,15.6711902 L127.540832,15.6711902 L127.540832,17.5501312 L114.982059,17.5501312 Z M122.451038,1.31726096 L122.451038,0 L120.033412,0 L120.033412,1.31726096 L109.062147,1.31726096 L109.062147,2.79048561 L120.033412,2.79048561 L120.033412,3.92859908 L110.120832,3.92859908 L110.120832,5.39655469 L132.393747,5.39655469 L132.393747,3.92859908 L122.451038,3.92859908 L122.451038,2.79048561 L133.457627,2.79048561 L133.457627,1.31726096 L122.451038,1.31726096 L122.451038,1.31726096 Z M109.062147,18.7767646 L111.238738,18.7767646 L111.238738,12.9028345 L131.284153,12.9028345 L131.284153,18.7767646 L133.457627,18.7767646 L133.457627,11.4264484 L109.063186,11.4264484 L109.063186,18.7767646 L109.062147,18.7767646 Z M132.393747,10.3462945 C132.135049,9.92477096 131.968818,9.21450385 131.968818,8.40096348 C131.968818,7.58953073 132.135049,6.8761022 132.393747,6.44720203 L132.393747,6.42823347 L110.120832,6.42823347 L110.120832,6.44720203 C110.384725,6.87504839 110.555112,7.58953073 110.555112,8.40096348 C110.555112,9.21345004 110.384725,9.92371715 110.120832,10.3462945 L132.393747,10.3462945 Z M129.83898,7.89724289 C129.76937,8.06374468 129.748592,8.23235408 129.748592,8.40201729 C129.748592,8.56430384 129.765215,8.68759947 129.83898,8.87939266 L112.677677,8.87939266 C112.756637,8.68759947 112.771182,8.56430384 112.771182,8.40201729 C112.771182,8.23340789 112.754559,8.06479849 112.677677,7.89724289 L129.83898,7.89724289 Z" id="path788-1" fill="#000000" fill-rule="nonzero"></path>
                    <path d="M51.6652149,0.00107541041 L51.6610169,24.5 L74.0309744,24.5 C76.0082205,24.5 76.0564972,22.6470679 76.0564972,22.6470679 L76.0564972,0 L51.6652149,0 L51.6652149,0.00107541041 Z M54.1031887,1.50127293 L65.6381736,1.50127293 C65.6633614,2.51753577 65.7221331,3.50906417 65.819736,4.47155649 L54.1031887,4.47155649 L54.1031887,1.50127293 Z M64.8898846,22.9965762 L54.1042382,22.9965762 L54.1042382,20.904903 L65.6192827,20.904903 L64.8898846,22.9965762 L64.8898846,22.9965762 Z M54.1031887,19.3961022 L54.1031887,5.97498025 L65.9971004,5.97498025 C66.4126999,8.96999824 67.139999,11.7047669 68.0089798,14.1040075 L66.1503265,19.3971776 L54.1031887,19.3971776 L54.1031887,19.3961022 Z M72.2909139,22.9965762 L66.976278,22.9965762 L69.1245915,16.8527566 C70.3189153,19.4928891 71.6265844,21.5770345 72.7285528,22.9503336 C72.6005145,22.9793697 72.4588329,22.9965762 72.2909139,22.9965762 Z M73.6195729,20.7360636 C72.4724763,18.9928233 71.2193809,16.6527302 70.1614913,13.9050566 L72.4074077,7.53862699 L70.3210143,7.53862699 L69.1476804,10.8799271 C68.6911506,9.33026073 68.3248774,7.68703362 68.0740484,5.97282943 L73.6206224,5.97282943 L73.6206224,20.7360636 L73.6195729,20.7360636 Z M73.6195729,4.47048108 L71.7378307,4.47048108 L71.7378307,2.47559477 L69.7826241,2.47559477 L69.7826241,4.47048108 L67.8830405,4.47048108 C67.7875366,3.49831007 67.7319134,2.51108331 67.726666,1.50019752 L73.6195729,1.50019752 L73.6195729,4.47048108 Z M55.6207565,15.9311298 C55.6207565,15.9311298 55.6669343,17.7819112 57.6452298,17.7819112 L62.5715531,17.7819112 C64.5519476,17.7819112 64.5949769,15.9311298 64.5949769,15.9311298 L64.5949769,7.78382056 L55.6207565,7.78382056 L55.6207565,15.9311298 L55.6207565,15.9311298 Z M57.8278417,15.1579098 L57.8278417,9.28294267 L62.3878917,9.28294267 L62.3878917,15.1579098 C62.3878917,15.1579098 62.4078321,16.2817136 61.419209,16.2817136 L58.7975739,16.2817136 C57.8089508,16.2817136 57.8278417,15.1579098 57.8278417,15.1579098 Z" id="path790-8" fill="#000000" fill-rule="nonzero"></path>
                    <path d="M187.703954,17.4566452 L187.703954,14.4007312 L178.218805,14.4007312 L178.218805,19.0952473 C178.218805,19.0952473 183.698554,19.0952473 185.676594,19.0952473 C187.66198,19.0952473 187.703954,17.4566452 187.703954,17.4566452 Z M185.265246,16.8728602 C185.265246,17.2985806 185.169754,17.6305161 184.499214,17.6305161 L180.659612,17.6305161 L180.659612,15.8707312 L185.266295,15.8707312 C185.265246,15.8696774 185.265246,16.526172 185.265246,16.8728602 Z M191.311648,19.7907312 C191.311648,19.2923011 191.311648,11.8074194 191.311648,11.8074194 L174.612161,11.8074194 L174.612161,21.6021505 C174.612161,21.6021505 187.208657,21.6021505 189.189845,21.6021505 C190.862522,21.6021505 191.311648,20.6137204 191.311648,19.7907312 L191.311648,19.7907312 Z M188.87084,19.1816559 C188.87084,19.5726022 188.705042,20.1342581 187.901233,20.1342581 L177.045623,20.1342581 L177.045623,13.2742581 L188.87084,13.2742581 C188.87084,13.2753118 188.87084,18.7928172 188.87084,19.1816559 Z M170.768362,0 L170.768362,24.5 L193.136482,24.5 C195.118719,24.5 195.163842,22.6822581 195.163842,22.6822581 L195.163842,0 L170.768362,0 Z M192.712541,21.9256559 C192.712541,22.4219785 192.37045,23.0226237 191.387202,23.0226237 L173.213366,23.0331613 L173.213366,10.5091828 L192.712541,10.5091828 C192.712541,10.5091828 192.712541,21.4335484 192.712541,21.929871 L192.712541,21.9256559 Z M192.712541,9.03286022 L184.251566,9.03286022 L184.251566,7.60290323 L191.794353,7.60290323 C191.535161,7.09288172 191.358869,6.25513978 191.358869,5.292 C191.358869,4.32886022 191.535161,3.47636559 191.794353,2.97477419 L191.794353,2.94843011 L174.128407,2.94843011 L174.128407,2.97477419 C174.391796,3.47741935 174.560742,4.32886022 174.560742,5.292 C174.560742,6.25513978 174.391796,7.09288172 174.128407,7.60290323 L181.708971,7.60290323 L181.708971,9.03286022 L173.213366,9.03286022 L173.213366,1.48369892 L192.712541,1.48369892 L192.712541,9.03286022 Z M176.70668,4.68819355 L189.218178,4.68819355 C189.139476,4.88735484 189.127933,5.08546237 189.127933,5.29094624 C189.127933,5.48062366 189.135279,5.63025806 189.218178,5.8568172 L176.709828,5.8568172 C176.78853,5.63025806 176.801122,5.48062366 176.801122,5.29094624 C176.800073,5.08546237 176.785382,4.8884086 176.70668,4.68819355 Z" id="path792-9" fill="#000000" fill-rule="nonzero"></path>
                </g>
            </g>
        </g>
    </g>
</svg>