<?xml version="1.0" encoding="UTF-8"?>
<svg width="75px" height="75px" viewBox="0 0 75 75" version="1.1" xmlns="http://www.w3.org/2000/svg" xmlns:xlink="http://www.w3.org/1999/xlink">
    <!-- Generator: Sketch 46.2 (44496) - http://www.bohemiancoding.com/sketch -->
    <title>ROC_Ministry_of_Education_Seal</title>
    <desc>Created with Sketch.</desc>
    <defs></defs>
    <g id="Page-1" stroke="none" stroke-width="1" fill="none" fill-rule="evenodd">
        <g id="登入" transform="translate(-465.000000, -158.000000)">
            <g id="Group" transform="translate(466.000000, 159.000000)">
                <g id="ROC_Ministry_of_Education_Seal">
                    <g transform="translate(-0.257042, -0.257042)">
                        <circle id="Oval" fill="#07334B" cx="36.7333944" cy="36.7336514" r="36.6629648"></circle>
                        <g id="Group" transform="translate(12.852113, 11.052817)" fill-rule="nonzero">
                            <path d="M47.6345563,25.6808345 C47.6345563,38.7993715 36.9994331,49.4339806 23.8810246,49.4339806 C10.7626162,49.4339806 0.128007042,38.7993715 0.128007042,25.6808345 C0.128007042,12.561912 10.7627447,1.92730282 23.8810246,1.92730282 C36.9994331,1.92730282 47.6345563,12.561912 47.6345563,25.6808345 Z" id="Shape" fill="#0D779A"></path>
                            <polygon id="Shape" fill="#FFFFFF" points="41.8053521 44.2157658 5.95669718 44.2157658 20.4609489 0.116054577 27.296088 0.116054577"></polygon>
                            <polygon id="Shape" fill="#88C8DF" points="41.1367852 42.0638081 45.8361602 42.0638081 37.1794912 15.7475651 32.4799877 15.7475651"></polygon>
                            <polygon id="Shape" fill="#88C8DF" points="6.62513556 42.0638081 1.92563204 42.0638081 10.5824296 15.7475651 15.2818046 15.7475651"></polygon>
                            <path d="M33.1761866,22.8953961 C33.4730704,26.7537289 31.1356567,30.5995951 24.9028961,33.011037 C25.4593926,35.830662 25.5705634,36.3006637 25.991213,38.7987289 C31.1852658,39.1697694 35.5134718,39.3922394 40.7757694,42.3773996 C36.469669,46.7343944 30.4904806,49.4339806 23.8810246,49.4339806 C17.301257,49.4339806 11.3462306,46.7586849 7.04462852,42.4362623 C12.437375,39.3676919 16.938956,39.21925 21.5887218,38.8979472 C22.0710616,37.0798873 22.3801549,34.9528627 22.6027535,32.7638908 C19.8944278,31.7993398 14.4408908,29.3506268 14.3666056,22.9695528 C20.1911831,22.7840968 21.1558627,25.8263204 23.8640599,30.204007 C26.7208275,25.5665792 29.2435687,22.6727975 33.1761866,22.8953961 Z" id="Shape" fill="#88BE3F"></path>
                            <path d="M16.1198908,13.3146602 L20.4609489,0.116054577 L22.0091144,0.116054577 L20.4137817,12.321963 C17.8167553,12.5445616 16.1198908,13.3146602 16.1198908,13.3146602 Z" id="Shape" fill="#88C8DF"></path>
                            <path d="M31.6421585,13.3146602 L27.3008433,0.116054577 L25.7526778,0.116054577 L27.3480106,12.321963 C29.9451655,12.5445616 31.6421585,13.3146602 31.6421585,13.3146602 Z" id="Shape" fill="#88C8DF"></path>
                        </g>
                        <path d="M36.7620546,0.316676056 C16.6497835,0.316676056 0.34559331,16.6211232 0.34559331,36.7336514 C0.34559331,56.8456655 16.6497835,73.1503697 36.7619261,73.1503697 C56.8741972,73.1503697 73.1789014,56.845794 73.1789014,36.7336514 C73.1790299,16.6211232 56.8743257,0.316676056 36.7620546,0.316676056 Z M36.7620546,60.4867975 C23.6439032,60.4867975 13.009037,49.8521884 13.009037,36.7336514 C13.009037,23.6147289 23.6439032,12.9801197 36.7620546,12.9801197 C49.8805915,12.9801197 60.5158433,23.6147289 60.5158433,36.7336514 C60.5158433,49.8521884 49.8805915,60.4867975 36.7620546,60.4867975 Z" id="Shape" fill="#FFFFFF" fill-rule="nonzero"></path>
                        <g id="Group" transform="translate(14.779930, 56.163732)" fill-rule="nonzero" fill="#000000">
                            <path d="M2.56142606,9.10160915 C2.20696479,9.16805458 1.76665141,9.042875 1.24087148,8.72607042 C0.789505282,8.41646303 0.481825704,8.03282746 0.318089789,7.57503521 C0.22465493,7.33804225 0.220670775,7.17572007 0.305623239,7.0883257 C0.363714789,7.03845951 0.45277993,7.07341725 0.572690141,7.19281338 C1.01904401,7.66936972 1.47208099,7.96869542 1.93167254,8.09053345 C2.23369718,8.14592606 2.52068486,8.05429049 2.79302113,7.81511268 C2.96279754,7.6400669 3.11715141,7.43109155 3.2558257,7.18818662 C3.25351232,7.17533451 3.25788204,7.1613257 3.26867782,7.14616021 C3.04093838,7.01828169 2.40745775,6.77293486 1.36836444,6.40986268 C1.0932007,6.31655634 0.951955986,6.1709419 0.945272887,5.97250528 C0.928693662,5.75581866 1.13034331,5.63205282 1.55086444,5.60069366 C1.9916919,5.57267606 2.38702289,5.68898768 2.73711444,5.94898592 C2.92809683,6.09627113 3.16084859,6.23314613 3.43511268,6.35973944 C3.46313028,6.36835035 3.49705986,6.39264085 3.53715845,6.43222535 C3.56556162,6.16798592 3.52944718,5.95464085 3.42894366,5.79206162 C3.34026408,5.66084155 3.33345246,5.54234507 3.40876585,5.43631514 C3.46557218,5.34018134 3.56311972,5.30702289 3.70127993,5.33709683 C3.85961796,5.37012676 3.99572183,5.46690317 4.10946303,5.62729754 C4.14622007,5.68744542 4.1725669,5.7463081 4.18914613,5.80337148 C4.25366373,5.79244718 4.32550704,5.80375704 4.40429049,5.83678697 C4.61146655,5.88176937 4.80913204,5.89153697 4.99792958,5.86621831 C5.14547183,5.83447359 5.24764613,5.77059859 5.30470951,5.67459331 C5.32707218,5.61097535 5.32912852,5.54414437 5.31075,5.47397183 C5.09085035,5.07876937 4.67636972,4.86940845 4.0673081,4.84614613 C3.67570423,4.77263204 3.4261162,4.63511444 3.31918662,4.43372183 C3.18873768,4.48911444 3.04929225,4.5491338 2.90072183,4.61416549 C1.63594542,5.08069718 0.806084507,5.20767606 0.410882042,4.99510211 C0.27143662,4.91888908 0.162322183,4.78419894 0.0832816901,4.59141725 C0.0232623239,4.35545246 0.0371426056,4.20019894 0.12427993,4.12552817 C0.268352113,4.03466373 0.527065141,3.99109507 0.900290493,3.99443662 C2.18126056,4.01731338 3.26520775,3.78083451 4.15264613,3.285 C3.66992077,2.98747359 3.26507923,2.7964912 2.93837852,2.71205282 C2.3707007,2.5020493 2.07587324,2.29243134 2.05389613,2.08319894 C2.04798415,1.85147535 2.16223944,1.68234155 2.39717606,1.57631162 C2.55114437,1.5038257 2.71655106,1.47889261 2.89352465,1.50241197 C3.11676585,1.52451761 3.68932746,1.86342782 4.61185211,2.51901408 C5.18955458,2.90701937 5.78062324,3.31571655 6.38557218,3.74574824 C6.89001761,3.66053873 7.54084859,3.36095599 8.33883627,2.847 C8.85227817,2.54060563 9.09209859,2.69971479 9.05804049,3.32407042 C9.02449648,3.75538732 8.82323239,3.98222711 8.45476232,4.00471831 C8.30567782,3.98993838 7.80894366,4.0405757 6.96391725,4.15688732 C7.18613028,4.29222007 7.41836796,4.44580282 7.66037324,4.61789261 C7.99517077,4.86722359 8.10428521,5.04175528 7.98823063,5.14110211 C7.85585387,5.26319718 7.60189613,5.31614789 7.22687148,5.29969718 C6.99283451,5.29275704 6.74607394,5.15151232 6.48684683,4.87596303 C6.09562852,4.52959859 5.55134155,4.14275 4.85398592,3.71528873 C4.82481162,3.74009331 4.79846479,3.76104225 4.77494542,3.77852113 C4.60889613,3.81990493 4.45492782,3.89251937 4.31291197,3.99623592 C4.79088204,4.18824648 5.36331514,4.62341901 6.03021127,5.30226761 C6.41166197,5.71006514 6.49108803,6.06247007 6.26874648,6.35948239 C6.17505458,6.47515141 5.93125,6.54622359 5.53656162,6.57308451 C5.07825528,6.5773257 4.65760563,6.5286162 4.2747412,6.42708451 C4.26394542,6.44237852 4.25803345,6.46641197 4.2571338,6.49982746 C4.23027289,6.5377412 4.19531514,6.6265493 4.15264613,6.76689437 C4.49901056,6.96777289 4.82841021,7.18497359 5.14071655,7.41798239 C5.35226232,7.56848063 5.45816373,7.68363556 5.4585493,7.76344718 C5.45662148,7.91021831 5.36691373,7.98848768 5.18904049,7.99864085 C4.94960563,7.99915493 4.52767077,7.82449472 3.92310739,7.47427465 C3.55052465,8.38240493 3.09697359,8.92450704 2.56142606,9.10160915 Z M5.18428521,0.417308099 C5.08468134,0.22131338 5.08301056,0.0951056338 5.18017254,0.0388133803 C5.26396831,-0.015165493 5.36614261,0.0174788732 5.48605282,0.136875 C5.79398944,0.423991197 6.04280634,0.794517606 6.23250352,1.24794014 C6.7938838,1.14640845 7.20540845,1.02367077 7.46733451,0.879598592 C7.66204401,0.733727113 7.81459859,0.791047535 7.9253838,1.05168838 C7.99902641,1.25205282 8.00558099,1.46706866 7.94466197,1.69699296 C7.85572535,1.91830634 7.66217254,2.0141831 7.36477465,1.98449472 C7.1953838,1.96650176 6.93615669,1.98719366 6.58696479,2.04605634 C6.77242077,2.55345775 6.81688908,2.87514613 6.72011268,3.01137852 C6.61254049,3.16264789 6.45060387,3.24644366 6.23391725,3.26315141 C6.00412148,3.28191549 5.86531866,3.10944014 5.81712324,2.74495423 C5.78512148,2.51734331 5.7469507,2.29127465 5.70235387,2.06597711 C4.83637852,2.01958099 4.2199912,1.93398592 3.8531919,1.80983451 C3.6135,1.73066549 3.51081162,1.63478873 3.54525528,1.52271831 C3.57185915,1.40499296 3.6633662,1.35641197 3.81990493,1.37646127 C4.29209155,1.41643134 4.7772588,1.41424648 5.27540669,1.36990669 C5.35830282,1.34934331 5.4433838,1.34150352 5.53090669,1.34664437 C5.44929577,1.06081338 5.33362676,0.751077465 5.18428521,0.417308099 Z M7.67515317,10.4321884 C6.98640845,10.5686778 6.32285387,10.5974665 5.68448944,10.5193257 C4.58871831,10.3319419 3.97451585,10.0829965 3.84239613,9.77300352 C3.78057746,9.6037412 3.78597535,9.45979754 3.85910387,9.34117254 C4.04378873,9.0172993 4.48795775,9.0088169 5.19173944,9.31559683 C5.93420599,9.61582218 6.72949472,9.69769014 7.57786268,9.56081514 C7.46951937,8.96049296 7.25450352,8.49447535 6.9325581,8.16327641 C6.71073063,7.91458803 6.70803169,7.70239965 6.92458979,7.52606866 C7.08048592,7.38675176 7.28149296,7.37595599 7.52773944,7.49393838 C7.67990845,7.56796655 7.80405986,7.67335387 7.9004507,7.81010035 C7.91767254,7.83387676 8.05853169,8.33228169 8.32277113,9.30518662 C8.81166549,9.04968662 9.18180634,8.7210581 9.43319366,8.31930106 C9.5556743,8.09914437 9.67224296,7.98308979 9.78341373,7.97088028 C9.93211268,7.98553169 10.0793979,8.05043486 10.2253979,8.16558979 C10.320375,8.25594014 10.3698556,8.37070951 10.3733257,8.50976937 C10.3508345,8.65319894 10.2607412,8.78814613 10.1025317,8.91461092 C9.93661092,9.03567782 9.7753169,9.18283451 9.61826408,9.35569542 C9.29233451,9.67018662 8.93838732,9.91951761 8.5574507,10.1035599 C8.88813556,11.4310546 9.28577993,12.4648785 9.74999824,13.2045176 C9.89625528,13.4791673 9.82351232,13.6210546 9.53266901,13.6303081 C9.24054049,13.6727201 8.9218081,13.6169419 8.57647183,13.462588 C7.98823063,13.1695599 7.692375,12.7770563 7.68916197,12.2855915 C7.69353169,11.5266743 7.68890493,10.9087447 7.67515317,10.4321884 Z M6.74350352,6.86829754 C6.5383838,6.8364243 6.43158275,6.75481338 6.42271479,6.62320775 C6.39649648,6.46808275 6.5955757,6.30807394 7.01995246,6.14318134 C8.58868134,5.66521127 9.6615757,4.94844894 10.2383785,3.99302289 C10.3532764,3.76733979 10.5189401,3.68611444 10.7360123,3.74934683 C10.9033468,3.83404225 11.0213292,4.02039789 11.089831,4.30815669 C11.1227324,4.58203521 11.1107799,4.80694718 11.0542306,4.98263556 C10.9791743,5.16822007 10.8753292,5.28221831 10.7428239,5.32463028 C10.4067412,5.46124824 9.99483099,5.68050528 9.50709331,5.98240141 C9.65502113,6.11040845 9.77454577,6.20654225 9.86515317,6.27105986 C10.5377042,6.66973239 11.3157711,7.19988204 12.1993539,7.86202289 C12.4162975,8.00493838 12.4269648,8.16623239 12.2312271,8.34551937 C12.014669,8.52185035 11.7730493,8.60603169 11.5055968,8.59793486 C11.2219507,8.61258627 10.9859859,8.45617606 10.797831,8.12896127 C10.7220035,7.99555634 10.6128891,7.8608662 10.4702306,7.72527641 C9.8574419,7.13048063 9.26740141,6.76792254 8.70010915,6.63760211 C8.56194894,6.60778521 8.4448662,6.56460211 8.34886092,6.50741021 C7.55254401,6.79478345 7.01738204,6.91520775 6.74350352,6.86829754 Z" id="Shape"></path>
                            <path d="M23.5409577,10.3686989 C22.0069296,10.1619085 20.7281444,10.2333662 19.704088,10.5839718 C19.427382,10.6813908 19.241412,10.661213 19.1465634,10.5234384 C18.995294,10.3498063 18.9458134,10.155868 18.997993,9.94149472 C19.049787,9.69948944 19.2495088,9.44129049 19.5976725,9.16651232 C20.2474754,8.62723768 20.6953715,8.21648415 20.9413609,7.93425176 C20.5608099,7.93129577 20.1994085,7.95108803 19.8568996,7.9935 C18.4772254,8.15505106 17.4567676,8.42198944 16.7948838,8.79444366 C16.3806602,8.99596479 16.0556303,8.97822887 15.8200511,8.74072183 C15.6303539,8.49331866 15.6809912,8.18641021 15.9720915,7.81986796 C16.1993169,7.53802113 16.4663838,7.40834331 16.7727782,7.43134859 C17.0884261,7.45409683 17.760206,7.40140317 18.7877324,7.27339613 C19.6206778,7.15798415 20.4267623,7.09860739 21.2058574,7.0950088 C21.203544,6.95582042 21.1827236,6.82177289 21.1436532,6.69248063 C21.0380088,6.48093486 21.0400651,6.30935915 21.1491796,6.17749648 C21.267419,6.04589085 21.4243433,5.98291549 21.6191813,5.98895599 C21.860287,5.99435387 22.0328908,6.0565581 22.1371215,6.17531162 C22.2129489,6.2853257 22.2243873,6.41050528 22.1710511,6.55046479 C22.146118,6.72718134 22.1345511,6.87588028 22.1364789,6.99630458 C22.1274824,7.01506866 22.1231127,7.03833099 22.1236268,7.06609155 C23.040882,6.99553345 24.9166479,7.13690669 27.7518239,7.48969718 C28.0028257,7.52285563 28.0696567,7.64238028 27.9525739,7.84827113 C27.4828292,8.63507746 26.9959912,8.9260493 26.4918028,8.72067254 C25.1838433,8.15749296 23.8067394,7.88759859 22.3601056,7.91098944 C22.4636937,8.01149296 22.5809049,8.09310387 22.711868,8.15569366 C23.1147817,8.4090088 23.5856831,8.842125 24.1243151,9.45465669 C24.3703046,9.75680986 24.4208134,10.0111532 24.2758415,10.2175581 C24.1581162,10.3865634 23.9130264,10.4370722 23.5409577,10.3686989 Z M19.7317201,14.855243 C19.1185458,15.9503715 18.5621778,16.525118 18.0621021,16.579868 C17.9136602,16.5823099 17.7545511,16.4965863 17.5849032,16.3232113 C17.4906972,16.2412148 17.4517553,16.1305581 17.468206,15.9911127 C17.4756602,15.8888099 17.5895299,15.7478222 17.8091725,15.5681496 C18.1381866,15.2659965 18.4210616,14.9877482 18.6583116,14.7335335 C19.3038732,13.9346461 19.5488345,13.0123785 19.3926813,11.9666021 C19.3217377,11.5968468 19.335875,11.3322218 19.4354789,11.1727271 C19.5443363,11.022743 19.6684877,10.9511567 19.8076761,10.9579683 C20.8836549,10.9592535 21.9595053,10.9556549 23.0356127,10.9474296 C23.7680546,10.9354771 24.2144085,11.0026937 24.3746743,11.1483081 C24.4782623,11.2488116 24.5542183,11.3679507 24.6030563,11.506368 C24.6326162,11.6171532 24.6021567,11.7477306 24.5119349,11.8974577 C24.3766021,12.1314947 24.3249366,12.3735 24.3568099,12.6234736 C24.3672201,13.8476373 24.4697799,14.7364894 24.6643609,15.2900299 C24.7525264,15.5759894 24.765507,15.8122113 24.7038169,15.9989525 C24.6047271,16.1953327 24.4675951,16.3180704 24.2922923,16.3674225 C24.190375,16.3782183 24.0784331,16.3382482 23.9564665,16.2476408 C23.7872042,16.1017694 23.6537993,15.5984806 23.5563803,14.7373891 C23.5192377,14.7380317 23.4820951,14.7386743 23.445081,14.7393169 C23.2029472,14.6875229 22.6183046,14.6738996 21.6912817,14.6981901 C20.5137711,14.7359754 19.8697518,14.7742746 19.7590951,14.813088 C19.7404595,14.8321092 19.731463,14.846118 19.7317201,14.855243 Z M23.4716849,13.8206479 C23.4596039,13.6538275 23.4522782,13.477882 23.4491937,13.2922975 C23.3096197,13.2668504 23.1841831,13.2548979 23.0728838,13.2566972 C22.1812042,13.1876813 21.2911954,13.2160845 20.4027289,13.3417782 C20.3285722,13.3523169 20.2729225,13.3577148 20.236037,13.3583574 C20.1922113,13.5260775 20.1533979,13.7075493 20.1197254,13.9029014 C20.4631338,13.9251356 20.9826162,13.921537 21.6779155,13.8915915 C22.6237025,13.867044 23.2217113,13.8433961 23.4716849,13.8206479 Z M21.729838,8.50578521 C21.5906496,8.50809859 21.3378486,8.65602641 20.9718204,8.94944014 C20.412625,9.36674824 20.1617518,9.62134859 20.2189437,9.71285563 C20.2380933,9.75912324 20.3171338,9.75783803 20.4554225,9.70912852 C20.5845863,9.6700581 20.9782465,9.63587148 21.6364032,9.60644014 C22.127868,9.59847183 22.4944102,9.61119542 22.736287,9.64435387 C22.9407641,9.67815493 23.0566901,9.66697359 23.0836796,9.61080986 C23.128662,9.52662852 22.9397359,9.3208662 22.5170299,8.99377993 C22.1314665,8.68494366 21.8692835,8.52223592 21.729838,8.50578521 Z M21.9046268,12.4268363 C22.6928468,12.4139842 23.1934366,12.3967623 23.4066532,12.3746567 C23.3657835,12.1435757 23.3026796,11.9775264 23.2175986,11.8767658 C23.0668433,11.7401479 22.4588099,11.7081461 21.3933697,11.7811461 C20.7814806,11.8004243 20.4483539,11.8522183 20.394118,11.9365282 C20.3397535,12.020838 20.3098081,12.1793046 20.3044102,12.4110282 C20.3134067,12.4017746 20.3320423,12.4013891 20.3600599,12.4101285 C20.6110616,12.4525405 21.1259173,12.4580669 21.9046268,12.4268363 Z" id="Shape"></path>
                            <path d="M33.0390546,7.4782588 C32.5118609,6.97689789 32.1814331,6.68823944 32.0480282,6.61241197 C31.8697694,6.76201056 31.7228697,6.88346303 31.6073292,6.97689789 C31.3339648,7.21671831 31.1171496,7.2799507 30.9566268,7.16633803 C30.8122975,7.07547359 30.7437958,6.89078873 30.7508644,6.61266901 C30.7673151,6.47592254 30.8149965,6.351 30.894037,6.23777289 C30.9351637,6.15166373 31.5354859,5.74772183 32.6952606,5.02569014 C32.5319102,4.81195951 32.3041708,4.6038838 32.0124278,4.40146303 C31.7755634,4.22847359 31.7199137,4.04610211 31.8454789,3.85447711 C32.0509842,3.58342606 32.2917042,3.45786092 32.5676391,3.47765317 C32.8209542,3.51389613 33.0011408,3.68752817 33.1083275,3.99803521 C33.1336461,4.16202817 33.2076743,4.35416725 33.3301549,4.57419542 C33.7762518,4.25726232 34.2486954,3.9213081 34.7476144,3.56671831 C34.9614736,3.40336796 35.1573398,3.32664085 35.335213,3.33679401 C35.5184842,3.35452993 35.6205299,3.45824648 35.6417359,3.64794366 C35.6434067,3.87465493 35.4961215,4.07579049 35.2003944,4.25186444 C35.1172412,4.31098415 35.0376866,4.36740493 34.9622447,4.42099824 C34.9654577,4.44169014 35.1528415,5.02530458 35.5242676,6.17222711 C35.9271813,5.8747007 36.3515581,5.56714965 36.7975264,5.25008803 C37.1431197,5.01592254 37.3437412,4.97004049 37.3995194,5.11231338 C37.4714912,5.27759155 37.4379472,5.53476232 37.2991444,5.88356866 C37.2157342,6.10231162 37.0012324,6.28905282 36.6557676,6.44327817 C36.0835915,6.75905458 35.3735123,7.2410088 34.525787,7.88914085 C33.7589014,8.49126232 33.2218116,8.99249472 32.9147746,9.39270951 C32.5299824,9.8598838 32.2351549,10.0695018 32.0302923,10.0214349 C31.8093644,9.95087676 31.6872694,9.78739789 31.6642641,9.53061268 C31.6561673,9.26328873 31.7587271,8.99133803 31.9718151,8.71450352 C32.1761637,8.48984859 32.6193046,8.16893134 33.3018803,7.75213732 C33.2148715,7.67759507 33.1270915,7.58634507 33.0390546,7.4782588 Z M34.9802377,6.55933275 C34.7956813,6.15564789 34.4966127,5.66276937 34.0829032,5.08069718 C33.6366778,5.3977588 33.2324789,5.68513204 32.8696637,5.94307394 C32.9791637,6.16130282 33.254713,6.55689085 33.6965687,7.13048063 C33.7481056,7.21903169 33.7942447,7.3 33.8351144,7.37338556 C34.1925317,7.10798944 34.5742394,6.83668134 34.9802377,6.55933275 Z M35.855081,8.05403345 C36.8009965,7.41579754 37.4695634,7.1795757 37.8605246,7.34536796 C38.0090951,7.41039965 38.1020158,7.58917254 38.1390299,7.88142958 C38.1876109,8.38189085 38.2765475,8.77940669 38.4063539,9.07384859 C38.5495264,9.64371127 38.5648204,10.025419 38.4522359,10.2189718 C38.3752518,10.3990299 38.1980211,10.5422025 37.9206725,10.6479754 C37.686507,10.7351127 37.4208539,10.8897236 37.1239701,11.1119366 C36.792257,11.381831 36.5848239,11.5863081 36.5015423,11.7251109 C36.3866444,11.9320299 36.2478415,12.0249507 36.0852623,12.0040018 C35.8891391,11.9842095 35.6435352,11.8628856 35.3487077,11.6400299 C34.6072694,11.0292975 34.1541039,10.6798486 33.9893398,10.5921972 C33.738338,10.463419 33.6087887,10.305338 33.6006919,10.1174401 C33.5968363,9.90422359 33.7596725,9.66890141 34.0892007,9.41185915 C34.784757,8.83775528 35.3735123,8.38510387 35.855081,8.05403345 Z M37.1748644,10.1029173 C37.4653222,9.91938908 37.631243,9.78431338 37.6722412,9.69820423 C37.7275053,9.56801232 37.616463,9.16342782 37.3386004,8.4844507 C37.2880915,8.34963204 37.184375,8.27573239 37.0269366,8.26223768 C36.8781092,8.27714613 36.633662,8.40528169 36.2934665,8.64715845 C35.2838046,9.3878257 34.7924683,9.83353697 34.8202289,9.98442077 C34.8125176,10.0696303 34.8591708,10.1675634 34.9603169,10.2774489 C35.4561514,10.767243 35.7851655,11.0055211 35.9468451,10.9929261 C36.0192025,10.998581 36.1567201,10.9120863 36.359912,10.7334419 C36.6560246,10.4775563 36.9277183,10.2675528 37.1748644,10.1029173 Z M35.9541708,2.21416197 C35.9639384,2.11622887 36.1024842,1.92691725 36.3694225,1.64584155 C37.3299894,0.724088028 38.3603433,0.196508803 39.4604842,0.0632323944 C39.7787025,0.0305880282 40.0749437,0.0872658451 40.3495933,0.233394366 C40.7549489,0.707637324 40.7091954,1.41167606 40.2122042,2.34538204 C40.1686356,2.52428345 40.2417641,2.60319542 40.4315898,2.58198944 C41.4840493,2.49382394 42.2292148,2.70961092 42.6668292,3.22909331 C42.8669366,3.46248768 42.9840194,3.67531866 43.0179489,3.8672007 C43.1226937,4.70323063 42.902794,5.43400176 42.3578644,6.06028521 C41.8053521,6.69196655 41.3140158,7.04115845 40.8837271,7.10811796 C40.7962042,7.11338732 40.7284736,7.08189965 40.6801496,7.01391197 C40.6316972,6.9459243 40.612162,6.8461919 40.6209014,6.71458627 C40.6414648,6.63156162 40.7341285,6.53761268 40.8981215,6.43222535 C41.1766268,6.2797993 41.4170898,6.01787324 41.6196391,5.64631866 C41.8297711,5.18955458 41.92025,4.73279049 41.8912042,4.2753838 C41.8266866,3.67261972 41.4963873,3.34411972 40.9004349,3.2898838 C40.217088,3.24091725 39.8036356,3.40375352 39.660463,3.77864965 C39.5107359,4.19235915 39.3454577,4.34401408 39.1646285,4.23361444 C38.9050158,4.07669014 38.9091285,3.73829401 39.1767095,3.21804049 C39.487088,2.83826056 39.6176655,2.47788732 39.568956,2.13692077 C39.4050915,1.65046831 39.2381426,1.31978345 39.0682377,1.14435211 C38.9066866,0.997452465 38.7025951,0.966221831 38.4554489,1.05078873 C38.0605035,1.18367958 37.6694137,1.48994542 37.2823081,1.96984331 C37.2852641,2.07008979 37.303,2.14296127 37.3352588,2.18832923 C37.4292077,2.49690845 38.7835634,4.44194718 41.3972975,8.02305986 C41.6178398,8.33305282 41.7482887,8.62106866 41.7900581,8.88762148 C41.8079225,9.05675528 41.7676954,9.17653697 41.6695053,9.24632394 C41.5485669,9.3324331 41.4131056,9.32613556 41.2636356,9.22755986 C40.862007,8.96691901 40.4894243,8.55488028 40.1456303,7.9910581 C37.9977852,4.7614507 36.7228556,3.01600528 36.3214842,2.75523592 C36.2094137,2.70973944 36.1292165,2.6529331 36.0808926,2.5848169 C35.9725493,2.48007218 35.9301373,2.35656338 35.9541708,2.21416197 Z" id="Shape"></path>
                        </g>
                        <g id="Group" transform="translate(3.470070, 3.470070)" fill-rule="nonzero" fill="#000000">
                            <path d="M11.6999208,48.3977148 L5.49826232,51.6675493 L4.84691725,50.4323327 L8.46414437,46.6490563 C8.80176937,46.2980651 9.05572711,46.0380669 9.22601761,45.8689331 C8.96332042,45.9173856 8.57390141,45.9821602 8.05788908,46.0631285 L2.95997007,46.8532764 L2.37776937,45.7491514 L8.57955634,42.4793169 L8.99660739,43.2703644 L3.80589613,46.0072218 L9.94676408,45.0726162 L10.3370827,45.8128979 L6.00322183,50.3903063 L11.2827412,47.6066673 L11.6999208,48.3977148 Z" id="Shape"></path>
                            <polygon id="Shape" points="8.33806514 41.1349859 1.61653873 43.1287342 1.35268486 42.2392394 8.07421127 40.2454912"></polygon>
                            <polygon id="Shape" points="7.60947887 38.9751884 0.641963028 39.7549261 0.53606162 38.8091391 5.59683803 34.5373539 0.126464789 35.1496285 0.0275035211 34.2656602 6.99489085 33.4859225 7.10079225 34.431581 2.03526056 38.7040088 7.51038908 38.0910915"></polygon>
                            <polygon id="Shape" points="7.15952641 32.049956 0.162322183 31.6113134 0.220413732 30.6853187 7.21761796 31.1239613"></polygon>
                            <path d="M4.98237852,29.547007 L5.10665845,28.6773046 C5.45764965,28.716632 5.75980282,28.6879718 6.01298944,28.591581 C6.26630458,28.4951901 6.49674296,28.3074208 6.70417606,28.0284014 C6.91160915,27.7495106 7.06056514,27.4158697 7.15117254,27.0277359 C7.23149824,26.6830423 7.25129049,26.3668803 7.21029225,26.078993 C7.16942254,25.7912342 7.07470246,25.562081 6.92626056,25.3915335 C6.77781866,25.2211144 6.59801761,25.1112289 6.38685739,25.0620053 C6.17261268,25.0120106 5.97109155,25.0305176 5.78216549,25.1173979 C5.59323944,25.2044067 5.41125352,25.3779102 5.2359507,25.638294 C5.12182394,25.8048574 4.91644718,26.1842518 4.61956338,26.7762201 C4.32267958,27.3683169 4.07823239,27.7745722 3.88596479,27.9948574 C3.63920423,28.2810739 3.37059507,28.4746268 3.08026585,28.5755158 C2.78993662,28.6765335 2.48804049,28.6902852 2.17432042,28.6171567 C1.82962676,28.536831 1.53042958,28.3638415 1.27634331,28.0983169 C1.02238556,27.8327923 0.861477113,27.4941391 0.793875,27.0822289 C0.726272887,26.6704472 0.74593662,26.234632 0.853123239,25.775169 C0.971105634,25.2690528 1.15669014,24.8417201 1.40987676,24.4931708 C1.66306338,24.1446215 1.97215669,23.9032588 2.33741373,23.7690827 C2.70267077,23.6349067 3.08733451,23.6067606 3.49140493,23.6846444 L3.35465845,24.5661708 C2.91228873,24.5120634 2.54947359,24.5936743 2.26634155,24.8107465 C1.98320951,25.0279472 1.78053169,25.3989877 1.65817958,25.9236109 C1.53081514,26.4700827 1.53801232,26.891632 1.68002817,27.1882588 C1.82191549,27.4848856 2.03436092,27.6661004 2.31685035,27.7320317 C2.56219718,27.7892236 2.78453873,27.7478398 2.98413204,27.6077518 C3.18308275,27.4708768 3.45117782,27.0545968 3.78854577,26.358912 C4.12591373,25.6633556 4.38861092,25.1934824 4.5765088,24.9491637 C4.85244366,24.5944454 5.15292606,24.3551391 5.47808451,24.2312447 C5.80324296,24.1074789 6.14909331,24.0882007 6.51537852,24.1736673 C6.87870775,24.2583627 7.19666901,24.4422764 7.46951937,24.7252799 C7.74236972,25.0082835 7.92268486,25.3654437 8.01033627,25.796632 C8.09798768,26.2279489 8.08500704,26.687412 7.97126585,27.1747641 C7.82719366,27.7926937 7.61629049,28.2894278 7.3389419,28.6650951 C7.06146479,29.0407623 6.7142007,29.3051303 6.29714965,29.4581989 C5.87984155,29.6113961 5.44158451,29.6410845 4.98237852,29.547007 Z" id="Shape"></path>
                            <polygon id="Shape" points="9.58896127 22.1859595 4.03620599 19.4646532 3.01973239 21.5388556 2.27675176 21.1747553 4.72225176 16.1846655 5.46523239 16.5487658 4.44451761 18.6315792 9.99727289 21.352757"></polygon>
                            <path d="M11.3463592,18.7694824 L5.94063204,14.3049155 L7.92011444,11.908125 C8.31801585,11.4262993 8.66913556,11.1001127 8.97334507,10.9295651 C9.27755458,10.7590176 9.61453697,10.7002835 9.98416373,10.7533627 C10.3537905,10.8064419 10.6874313,10.9557835 10.9848292,11.2013873 C11.3683363,11.5180634 11.5891356,11.9092817 11.6469701,12.3747852 C11.7049331,12.8404173 11.555463,13.361956 11.1983028,13.9394014 C11.4455775,13.8252746 11.6540387,13.7554877 11.8238151,13.7302975 C12.188044,13.6796602 12.5912148,13.6797887 13.0331989,13.7304261 L15.2810335,14.0053327 L14.5379243,14.9049806 L12.8224243,14.691507 C12.3253046,14.6325158 11.9349859,14.5996144 11.6512113,14.5925458 C11.3674366,14.5856056 11.1470229,14.6071972 10.9898415,14.6573204 C10.8326602,14.7074437 10.6950141,14.776588 10.5765176,14.864882 C10.4923363,14.9318415 10.3740968,15.0575352 10.2217993,15.2418345 L9.53652465,16.0714384 L11.9370423,18.0540053 L11.3463592,18.7694824 Z M8.91718134,15.5599243 L10.1870986,14.0222975 C10.4571215,13.6954683 10.6344806,13.4118222 10.7191761,13.1714877 C10.8038715,12.9312817 10.8114542,12.7018715 10.7419243,12.4831285 C10.6723944,12.2645141 10.5502993,12.0830423 10.3757676,11.9388415 C10.1201391,11.7276813 9.83327993,11.6469701 9.51531866,11.6964507 C9.19735739,11.7460599 8.87284155,11.9712289 8.54189965,12.3718292 L7.12880986,14.082831 L8.91718134,15.5599243 Z" id="Shape"></path>
                            <path d="M17.176463,12.6667852 L15.3949032,10.2906866 L10.8088838,8.67838908 L11.7118732,8.00133979 L14.085787,8.86345951 C14.527,9.02680986 14.9542042,9.20069894 15.3673996,9.38499824 C15.3158627,8.96550528 15.2721655,8.48213732 15.2365651,7.93489437 L15.0867095,5.47101585 L15.9515282,4.82262676 L16.1372412,9.73419014 L17.9188011,12.1102887 L17.176463,12.6667852 Z" id="Shape"></path>
                            <path d="M21.4355246,5.9786743 C21.0957148,4.86568134 21.1284877,3.90318662 21.5339718,3.0909331 C21.9393275,2.27893662 22.614706,1.72835211 23.5601074,1.43982218 C24.1790651,1.25089613 24.7822148,1.22840493 25.3696849,1.37247711 C25.9570264,1.5165493 26.4618574,1.81330458 26.8840493,2.26274296 C27.3062412,2.71218134 27.6198327,3.27240493 27.8245669,3.94315669 C28.032257,4.62316197 28.0807095,5.27347887 27.9700528,5.89385035 C27.8595246,6.51435035 27.5947711,7.03935915 27.1759208,7.46887676 C26.7570704,7.89852289 26.2563521,8.20208979 25.6738944,8.37996303 C25.0425986,8.57274472 24.4319947,8.59240845 23.8418257,8.43921127 C23.2516567,8.28614261 22.7481109,7.98476056 22.3308028,7.5354507 C21.9136232,7.08614085 21.6153257,6.56717254 21.4355246,5.9786743 Z M22.3545792,5.71314965 C22.6013398,6.52129049 23.012993,7.09153873 23.5894102,7.42376585 C24.165956,7.75612148 24.7819577,7.82230986 25.437544,7.62207394 C26.1053398,7.41823944 26.5833099,7.01558275 26.8714542,6.41423239 C27.1594701,5.81301056 27.1718081,5.0808257 26.9084683,4.21780634 C26.7417764,3.67197711 26.5041408,3.22369542 26.1953046,2.87296127 C25.8864683,2.52222711 25.5203116,2.28908979 25.096706,2.17329225 C24.6729718,2.05762324 24.2399842,2.06726232 23.798,2.20233803 C23.1697887,2.39409155 22.6951602,2.77489965 22.3741144,3.3446338 C22.0528116,3.91436796 22.0463856,4.70387324 22.3545792,5.71314965 Z" id="Shape"></path>
                            <polygon id="Shape" points="29.7176831 7.28252113 29.3585951 0.280818662 34.082132 0.038556338 34.124544 0.864818662 30.3275158 1.05952817 30.4386866 3.22793662 33.7247148 3.05944542 33.7669982 3.88570775 30.4810986 4.05419894 30.6441919 7.23509683"></polygon>
                            <polygon id="Shape" points="37.8570546 7.41708275 39.7297359 0.660855634 44.6149525 2.01508275 44.3938961 2.81242782 40.4028011 1.70611796 39.8292113 3.77543662 43.5667342 4.81144542 43.3470915 5.60403521 39.6094401 4.56802641 38.9719754 6.86778345 43.1197377 8.01753345 42.8986813 8.81487852"></polygon>
                            <path d="M43.7300845,9.15545951 L47.1925722,3.05905986 L49.2926074,4.25186444 C49.7665933,4.5211162 50.1119296,4.75566725 50.3284877,4.95564613 C50.6320546,5.23440845 50.8473275,5.54928521 50.9744349,5.90014789 C51.1417694,6.35447007 51.1849525,6.83835211 51.1043697,7.35166549 C51.0235299,7.86497887 50.8288204,8.39332923 50.5202412,8.93671655 C50.257287,9.39977817 49.9702993,9.77930106 49.6590211,10.0755423 C49.347743,10.3717835 49.040963,10.5889842 48.7389384,10.7271444 C48.4366567,10.8654331 48.1469701,10.9446021 47.8696215,10.9649085 C47.5921444,10.9852148 47.2917905,10.9493574 46.9681743,10.8572077 C46.6445581,10.7650581 46.2985792,10.6143028 45.9298521,10.4049419 L43.7300845,9.15545951 Z M44.9453803,8.89430458 L46.2470423,9.6335581 C46.6489278,9.86181162 46.9856532,10.0035704 47.2568327,10.0585775 C47.5280123,10.1135845 47.7701461,10.1119137 47.9831056,10.0531796 C48.2830739,9.97054049 48.5780299,9.79806514 48.8682306,9.53575352 C49.1584313,9.2734419 49.4342377,8.91216901 49.6956496,8.45193486 C50.0578222,7.81434155 50.2314542,7.26491373 50.2166743,6.80365141 C50.2017658,6.34238908 50.077743,5.96852113 49.8444771,5.68191901 C49.6754718,5.47589965 49.3510845,5.23672183 48.8715722,4.96438556 L47.5907306,4.23695599 L44.9453803,8.89430458 Z" id="Shape"></path>
                            <path d="M57.639412,10.7407676 L58.305537,11.3867148 L55.4853979,14.2945053 C54.9949613,14.8003644 54.5480933,15.1464718 54.1450511,15.3330845 C53.7420088,15.5195687 53.3007958,15.561338 52.8211549,15.4581356 C52.3416426,15.3550616 51.8593028,15.0680739 51.374007,14.5975581 C50.902463,14.1402799 50.5956831,13.6849296 50.4535387,13.2317641 C50.3112658,12.7784701 50.3254032,12.3358433 50.4956937,11.9037553 C50.6659842,11.4716673 51.0099067,10.9889419 51.5270757,10.4557077 L54.3470863,7.54791725 L55.0132113,8.19386444 L52.1964137,11.0981849 C51.7724225,11.5352852 51.5006004,11.8968151 51.3809472,12.1827746 C51.2611655,12.4687342 51.246,12.7638187 51.3353222,13.0678996 C51.4245158,13.3721092 51.6121567,13.6628239 51.8983732,13.9403011 C52.3881673,14.4153151 52.8446743,14.6427975 53.2682799,14.6228768 C53.6918856,14.602956 54.2099542,14.2770264 54.822743,13.6453451 L57.639412,10.7407676 Z" id="Shape"></path>
                            <path d="M58.8467394,20.3058239 L59.1293574,21.2199947 C58.3772518,21.4504331 57.6990458,21.4539032 57.0944824,21.230662 C56.4897905,21.0072923 55.9975546,20.5838151 55.6177746,19.9604877 C55.2245,19.3151831 55.0362165,18.7103627 55.0525387,18.1458979 C55.0689894,17.5815616 55.2620282,17.0420299 55.6316549,16.5274313 C56.0014102,16.0128327 56.4720546,15.5813873 57.0438451,15.2329665 C57.6673011,14.8530581 58.2835599,14.6407412 58.8931356,14.5961444 C59.5024542,14.5515475 60.0616496,14.6756989 60.5705933,14.9685986 C61.0794085,15.2613697 61.4946602,15.6719947 61.8166056,16.2002165 C62.1816056,16.799125 62.3359595,17.3958486 62.2797958,17.9900018 C62.223632,18.5842835 61.9682606,19.1299842 61.5134243,19.6274894 L60.854368,18.9594366 C61.2052306,18.5551092 61.3998116,18.1604208 61.4375968,17.775243 C61.475382,17.3900651 61.3724366,16.9973046 61.128632,16.5970898 C60.8481989,16.1368556 60.5036338,15.819537 60.0948081,15.6448768 C59.6859824,15.4702165 59.257493,15.4334595 58.8095968,15.5347342 C58.3617007,15.6358803 57.9402799,15.8068134 57.5455915,16.0474049 C57.0363908,16.3576549 56.6372042,16.7026056 56.3477746,17.0823856 C56.0583451,17.4621655 55.9151725,17.8658504 55.918,18.2934401 C55.9208275,18.7210299 56.0335405,19.117132 56.255882,19.482132 C56.5262905,19.9259155 56.8831937,20.2236989 57.3265915,20.3753539 C57.7699894,20.5270088 58.2767482,20.503875 58.8467394,20.3058239 Z" id="Shape"></path>
                            <path d="M57.2442095,22.3657606 L64.7385335,22.8558116 L65.0352887,23.810338 L59.1918187,28.6314225 L58.8782271,27.6221461 L60.663257,26.2109842 L59.7930405,23.4114085 L57.5367236,23.3064067 L57.2442095,22.3657606 Z M60.5938556,23.4430246 L61.2993081,25.7127077 L62.9362817,24.4376496 C63.4331444,24.0493873 63.8467254,23.7472342 64.1768961,23.5311901 C63.7211602,23.5793856 63.257456,23.5915951 62.7860405,23.5679472 L60.5938556,23.4430246 Z" id="Shape"></path>
                            <polygon id="Shape" points="59.2092975 30.1321637 65.3610898 29.5049806 65.1267958 27.2070229 65.9498451 27.1230986 66.5135387 32.6515634 65.6904894 32.7354877 65.4552958 30.4278908 59.3035035 31.0550739"></polygon>
                            <polygon id="Shape" points="59.3775317 34.2240194 66.3787201 34.5955739 66.329625 35.5220827 59.3284366 35.1503996"></polygon>
                            <path d="M62.7567377,37.0368327 C63.887338,37.312382 64.6985634,37.8316074 65.1904137,38.5945088 C65.6822641,39.3574102 65.8110423,40.2191444 65.5771338,41.1793257 C65.4239366,41.8081796 65.1354067,42.3384577 64.7120581,42.7701602 C64.288581,43.2017342 63.7759102,43.4847377 63.1739173,43.6186567 C62.5717958,43.7525757 61.9300898,43.7365106 61.2487993,43.5704613 C60.5579982,43.4020986 59.9739982,43.1122835 59.4966708,42.7005018 C59.0193433,42.2889771 58.7027958,41.7933996 58.5470282,41.2140264 C58.391132,40.6346532 58.3853486,40.0491109 58.5295493,39.4573996 C58.6857025,38.8162077 58.9802729,38.2809173 59.4130035,37.8515282 C59.8457342,37.4220106 60.3617465,37.1424771 60.961169,37.0129278 C61.5603345,36.88325 62.1589859,36.8912183 62.7567377,37.0368327 Z M62.5164032,37.9626989 C61.6955387,37.7627201 60.9950986,37.8259525 60.4150827,38.1522676 C59.8351954,38.4785827 59.4641549,38.9746743 59.3018327,39.6407993 C59.1365546,40.3191338 59.2391144,40.9355211 59.6093838,41.4902183 C59.9796532,42.0446585 60.6029806,42.4288081 61.4797518,42.6424102 C62.0340634,42.7774859 62.5410792,42.8016479 63.0002852,42.7150246 C63.4593627,42.6282729 63.8468539,42.4322782 64.1623732,42.126912 C64.4780211,41.8215458 64.6904665,41.4440792 64.7999665,40.9950264 C64.9554771,40.3567905 64.8700106,39.7545405 64.5438239,39.1876338 C64.2175088,38.6208556 63.5417447,38.2126725 62.5164032,37.9626989 Z" id="Shape"></path>
                            <polygon id="Shape" points="57.4971391 43.4394982 63.6335088 46.8305282 63.1731461 47.6634736 56.5742289 48.2240827 61.3919718 50.8865264 60.9616831 51.6651074 54.8253134 48.2740775 55.2856761 47.441132 61.8888345 46.8827077 57.0667218 44.2180792"></polygon>
                        </g>
                    </g>
                </g>
            </g>
        </g>
    </g>
</svg>