<?xml version="1.0" encoding="UTF-8"?>
<svg width="347px" height="228px" viewBox="0 0 347 228" version="1.1" xmlns="http://www.w3.org/2000/svg" xmlns:xlink="http://www.w3.org/1999/xlink">
    <!-- Generator: Sketch 46.2 (44496) - http://www.bohemiancoding.com/sketch -->
    <title>sb-0</title>
    <desc>Created with Sketch.</desc>
    <defs></defs>
    <g id="Page-1" stroke="none" stroke-width="1" fill="none" fill-rule="evenodd">
        <g id="sb-0">
            <path d="M41.9621,121.9996 C41.9621,121.9996 50.6501,122.1866 54.4621,124.1876 C58.2741,126.1866 62.0871,129.1866 64.0241,129.8746 C65.9621,130.5626 74.0251,130.9376 74.0251,130.9376 C74.0251,130.9376 74.0871,105.2496 87.0871,83.6246 C100.0871,61.9996 121.2121,48.7496 130.8371,42.7496 C140.4621,36.7496 161.8371,30.4996 163.3371,27.1246 C164.8371,23.7496 168.8521,11.9996 175.5321,6.6246 C182.2121,1.2496 192.8371,-0.0004 196.7121,-0.0004 C200.5871,-0.0004 203.3371,1.4996 209.5871,1.8746 C215.8371,2.2496 222.2121,3.6246 225.5871,10.6246 C228.9621,17.6246 228.3371,21.6246 227.5871,23.9996 C226.8371,26.3746 225.7121,28.8746 230.9621,30.4996 C236.2121,32.1246 247.0871,34.2496 262.8371,46.3746 C278.5871,58.4996 290.5871,74.4996 295.2121,84.7496 C299.8371,94.9996 300.2121,99.7496 303.9621,100.4996 C307.7121,101.2496 306.9621,98.9996 309.2121,97.3746 C311.4621,95.7496 314.8371,92.7496 321.2121,90.4996 C327.5871,88.2496 336.9621,87.2496 339.2121,92.6246 C341.4621,97.9996 337.7121,99.2496 338.0871,104.8746 C338.0871,104.8746 337.7551,106.9166 342.5881,108.9996 C347.4211,111.0826 347.4221,117.6666 346.5881,120.0826 C345.7541,122.4996 343.0871,126.2496 341.4211,129.3326 C339.7551,132.4166 340.0881,135.4996 342.0881,138.7496 C344.0881,141.9996 343.5051,146.4986 341.2551,148.5826 C339.0051,150.6666 336.6711,152.6666 327.6711,153.1666 C318.6711,153.6666 314.3391,148.0826 308.5051,146.4996 C302.6711,144.9166 302.3381,145.9986 299.8381,149.8326 C299.8381,149.8326 295.5881,161.1666 291.8381,167.6666 C291.8381,167.6666 285.7121,179.2496 271.2121,190.3746 C256.7121,201.4996 232.8371,212.2496 216.8371,215.2496 C200.8371,218.2496 168.7121,216.7496 155.9621,215.2496 C143.2121,213.7496 131.9621,207.9996 122.9621,204.1246 C113.9621,200.2496 103.4621,191.8746 103.4621,191.8746 C103.4621,191.8746 93.2541,180.1666 83.5451,166.8336 C83.5451,166.8336 78.5461,161.3346 77.2541,153.4176 C77.2541,153.4176 67.3161,155.3766 58.9201,155.1256 C50.5251,154.8746 51.6451,150.5956 49.0871,146.4996 C46.5291,142.4036 46.0871,138.4176 41.3791,136.6676 C36.6701,134.9176 39.5041,131.8336 39.9621,131.6666 C40.4201,131.5006 40.5871,130.8336 43.4201,130.4166 C43.4201,130.4166 42.6701,125.1656 41.9621,121.9996" id="Fill-1" fill="#2E6CAD"></path>
            <path d="M120.2321,106.8433 C120.2321,110.9853 116.8741,114.3433 112.7321,114.3433 C108.5901,114.3433 105.2321,110.9853 105.2321,106.8433 C105.2321,102.7013 108.5901,99.3433 112.7321,99.3433 C116.8741,99.3433 120.2321,102.7013 120.2321,106.8433" id="Fill-12" fill="#5391C6"></path>
            <path d="M118.1696,106.8433 C118.1696,109.8463 115.7346,112.2803 112.7326,112.2803 C109.7296,112.2803 107.2946,109.8463 107.2946,106.8433 C107.2946,103.8403 109.7296,101.4063 112.7326,101.4063 C115.7346,101.4063 118.1696,103.8403 118.1696,106.8433" id="Fill-14" fill="#231916"></path>
            <path d="M76.2956,148.9586 C76.2956,148.9586 75.8376,147.5416 75.5876,145.6666 C75.3376,143.7916 75.0036,141.7076 74.7536,140.2496 C74.5036,138.7916 74.4626,137.8756 74.4626,137.4586 C74.4626,137.0416 74.2126,136.8756 73.9206,137.4586 C73.6286,138.0416 73.1706,141.4176 73.2126,143.2086 C73.2536,144.9996 74.1686,147.0416 74.7526,148.2916 C75.3376,149.5416 76.8786,150.3336 76.2956,148.9586" id="Fill-16" fill="#93BCE0"></path>
            <path d="M47.0246,130.1246 C47.0246,130.1246 48.2746,130.4166 47.4206,129.6246 C46.7296,128.9826 43.6706,128.9576 42.5036,129.2496 C41.3376,129.5416 41.5866,129.7916 42.1286,129.9576 C42.6706,130.1246 42.8376,130.4166 43.4206,130.4166 C44.0036,130.4166 45.5666,130.0826 47.0246,130.1246" id="Fill-18" fill="#93BCE0"></path>
            <path d="M45.1028,138.5464 C45.1028,138.5464 46.8998,138.5624 47.3838,138.5464 C47.8688,138.5304 48.9308,138.4054 49.4618,138.3904 C49.9938,138.3744 50.6648,138.7654 50.6498,139.0624 C50.6338,139.3584 48.8688,139.9994 47.7118,140.0154 C46.5558,140.0304 43.3528,138.5394 45.1028,138.5464" id="Fill-20" fill="#93BCE0"></path>
            <path d="M55.8684,145.8746 C55.8684,145.8746 58.0714,145.7966 58.8994,145.5466 C59.7274,145.2966 61.2124,144.6716 61.3214,145.0466 C61.4304,145.4216 59.9774,147.5156 56.9304,147.5936 C53.8844,147.6716 55.3054,145.8806 55.8684,145.8746" id="Fill-22" fill="#93BCE0"></path>
            <path d="M41.9621,121.9976 C42.5501,125.1876 43.4201,130.4146 43.4201,130.4146 C40.5871,130.8316 40.4201,131.4986 39.9621,131.6646 C39.5041,131.8316 36.6701,134.9146 41.3791,136.6646 C41.3791,136.6646 46.0241,138.4996 49.2741,140.4996 C52.5251,142.4996 55.4001,144.1246 56.5251,145.7496 C57.6501,147.3746 58.5041,150.9166 61.1701,161.0836 C63.8371,171.2506 73.9201,200.5006 75.7541,207.5836 C77.5871,214.6666 76.7541,228.3346 74.4201,228.0006 C72.0871,227.6666 67.9201,225.7506 62.2541,222.8336 C56.5871,219.9166 48.8371,217.8336 42.0041,216.5836 C35.1701,215.3336 26.8371,216.5846 24.9201,215.1676 C23.0041,213.7506 23.0041,208.6666 19.9201,195.8336 C16.8371,183.0006 12.5041,170.1666 9.0041,161.1666 C5.5041,152.1666 1.8371,142.8326 0.5041,138.1666 C-0.8299,133.5006 0.3371,135.4166 5.7541,126.9996 C11.1701,118.5836 19.1701,107.4996 22.1701,103.4996 C25.1701,99.4996 29.6701,95.0836 30.3371,94.4166 C31.0041,93.7496 32.4201,93.4166 33.4201,95.2496 C34.4201,97.0836 38.3371,102.3286 41.9621,121.9976" id="Fill-24" fill="#D02527"></path>
            <path d="M83.6052,166.8834 C73.1882,168.1744 63.1882,170.3834 59.7302,171.4254 C56.2722,172.4674 53.5222,175.6334 55.1052,179.5924 C56.6882,183.5514 61.3132,184.8424 61.3132,184.8424 C59.7722,185.1344 57.2722,187.4254 57.1882,190.3834 C57.3592,192.0124 58.5632,193.7174 61.0222,194.9254 C63.4802,196.1334 69.1882,195.4254 69.1882,195.4254 C69.1882,195.4254 67.5222,195.9674 67.8552,198.3004 C68.1882,200.6334 71.3972,200.5504 71.3972,200.5504 C73.7302,200.7174 83.4802,200.8004 89.8972,199.2164 C96.3132,197.6324 103.5222,191.9244 103.5222,191.9244 C103.5222,191.9244 108.4612,188.0584 106.7112,184.8084 C104.9612,181.5584 92.5172,165.5614 83.6052,166.8834" id="Fill-27" fill="#2E6CAD"></path>
            <path d="M313.4621,115.6871 C313.4621,115.6871 312.5871,116.2491 311.5871,115.2501 C310.5871,114.2501 311.7121,113.5621 312.2121,112.9371 C312.7121,112.3121 314.7121,110.8121 316.9621,110.3751 C319.2121,109.9371 321.5871,110.2501 321.5251,111.4371 C321.4621,112.6241 320.5241,112.6561 319.0241,113.0151 C317.5241,113.3741 314.1491,115.1251 313.4621,115.6871" id="Fill-29" fill="#93BCE0"></path>
            <path d="M313.0246,132.4839 C313.0246,132.4839 311.5246,132.2499 311.4626,131.4999 C311.3996,130.7499 312.8376,129.8119 314.3366,129.6249 C315.8376,129.4369 318.2116,129.2959 320.0246,131.0539 C321.8376,132.8119 321.5246,132.9609 320.8996,133.7609 C320.2746,134.5619 318.5866,133.2499 317.2116,132.9369 C315.8376,132.6249 314.3996,132.2179 313.0246,132.4839" id="Fill-31" fill="#93BCE0"></path>
            <path d="M189.5246,24.5621 C189.5246,24.5621 188.2126,25.3121 187.3996,23.9371 C186.5866,22.5621 187.8996,21.1241 188.4626,20.1251 C189.0246,19.1251 191.4936,16.4991 192.8526,15.1871 C194.2116,13.8741 198.0246,11.4991 198.5876,13.1241 C199.1496,14.7491 197.0866,14.9371 195.9616,15.8741 C194.8366,16.8121 191.8376,19.8751 191.0246,21.2491 C190.2116,22.6251 190.2746,23.8121 189.5246,24.5621" id="Fill-33" fill="#93BCE0"></path>
            <path d="M202.2746,21.7496 C202.2746,21.7496 201.6496,22.5616 200.3376,22.1246 C199.0246,21.6876 199.9616,20.6876 200.3376,19.9376 C200.7126,19.1866 204.4626,15.7496 206.3366,15.8126 C208.2116,15.8746 207.2116,17.3126 206.3366,17.9366 C205.4626,18.5616 202.7116,20.8746 202.2746,21.7496" id="Fill-35" fill="#93BCE0"></path>
            <path d="M75.7746,179.8121 C75.7746,179.8121 73.7436,180.3741 73.5866,179.5621 C73.4306,178.7501 74.5246,178.1251 74.9306,177.8431 C75.3376,177.5621 77.7436,176.5311 79.4936,176.5311 C81.2436,176.5311 81.7436,177.5621 81.4616,178.0311 C81.1806,178.5001 79.6806,178.6871 78.4936,179.0311 C77.3056,179.3751 76.6186,179.4061 75.7746,179.8121" id="Fill-37" fill="#93BCE0"></path>
            <path d="M78.2121,188.9996 C78.2121,188.9996 77.4581,188.9376 77.5541,187.9376 C77.6501,186.9366 79.1491,187.0626 79.8061,187.0626 C80.4621,187.0626 81.5251,186.9056 82.3061,186.4056 C83.0871,185.9056 84.0241,185.5306 84.4931,185.8746 C84.9621,186.2186 85.1181,187.4686 84.1811,188.3436 C83.2431,189.2186 79.4931,189.4056 78.2121,188.9996" id="Fill-39" fill="#93BCE0"></path>
            <path d="M12.4206,129.7437 C12.4206,129.7437 18.8376,120.9997 20.7536,118.5827 C22.6706,116.1657 25.5036,111.8327 27.3376,109.4997 C29.1706,107.1657 30.0876,104.9987 30.6706,105.4157 C31.2536,105.8327 34.1706,114.1657 35.5036,120.4157 C36.8376,126.6657 37.9206,135.4987 37.2536,135.8327 C36.5876,136.1667 29.8376,133.4987 25.5876,133.0827 C21.3376,132.6667 16.4206,131.7497 13.6706,131.7497 C10.9206,131.7497 11.7626,130.6397 12.4206,129.7437" id="Fill-41" fill="#FEFEFE"></path>
            <path d="M14.0871,136.4996 C14.0871,136.4996 11.6701,135.2486 14.0871,134.8326 C16.5041,134.4166 27.8371,136.5006 31.5041,137.4166 C35.1701,138.3326 40.8371,139.9166 42.3371,140.4166 C43.8371,140.9166 49.4201,143.7756 49.4201,144.9296 C49.4201,146.0826 44.1701,144.8336 42.3371,144.4166 C40.5041,143.9996 35.2541,141.9166 28.3371,140.6666 C21.4201,139.4166 14.9401,137.1166 14.0871,136.4996" id="Fill-43" fill="#FEFEFE"></path>
        </g>
    </g>
</svg>