<?xml version="1.0" encoding="UTF-8"?>
<svg width="89px" height="59px" viewBox="0 0 89 59" version="1.1" xmlns="http://www.w3.org/2000/svg" xmlns:xlink="http://www.w3.org/1999/xlink">
    <!-- Generator: Sketch 46.2 (44496) - http://www.bohemiancoding.com/sketch -->
    <title>sb-1</title>
    <desc>Created with Sketch.</desc>
    <defs></defs>
    <g id="Page-1" stroke="none" stroke-width="1" fill="none" fill-rule="evenodd">
        <g id="sb-1">
            <path d="M8.8791,42.7505 C8.8791,42.7505 3.7541,44.1675 1.6291,41.1675 C-0.4959,38.1675 1.2951,31.5835 1.6291,30.3755 C1.9621,29.1675 4.4211,19.2095 15.1711,13.0425 C25.9211,6.8755 33.1711,9.4545 34.8791,7.6445 C36.5871,5.8335 35.6081,2.2925 42.2431,1.1675 C48.8791,0.0425 49.8541,2.1855 50.7681,4.0795 C51.7961,6.2085 50.5871,8.7925 51.5041,9.7925 C51.5041,9.7925 52.2121,11.0835 54.1711,11.6255 C56.1291,12.1675 59.5041,13.3765 64.0871,16.9595 C68.6711,20.5425 71.5871,24.0415 72.7541,24.5005 C73.9211,24.9595 75.1291,23.5425 75.7541,22.5005 C76.3791,21.4585 79.0041,18.4155 81.8371,18.5625 C84.6701,18.7085 84.7111,20.7095 84.7951,22.1675 C84.8791,23.6255 83.1291,26.1665 84.3371,29.4585 C85.5451,32.7505 86.5871,33.1255 87.2121,33.6255 C87.8371,34.1255 90.4201,36.2085 87.5451,38.3335 C84.6701,40.4585 80.3781,39.2085 78.3371,38.5835 C76.2961,37.9585 74.5041,37.2085 74.1291,37.5005 C73.7541,37.7925 72.5041,40.4175 68.0871,45.1255 C63.6711,49.8335 55.7121,54.1675 47.5871,56.5005 C39.4621,58.8335 28.2961,58.3755 23.7961,57.7085 C19.2961,57.0415 14.5921,54.0065 14.4211,52.7505 C14.2961,51.8335 15.5461,51.5415 16.1711,51.3335 C16.7961,51.1255 19.2541,49.5005 21.5041,47.6255 C23.7541,45.7505 27.9621,38.4995 26.2541,36.5415 C25.7121,35.5835 23.4211,37.5415 20.7541,38.6665 C18.0871,39.7915 11.3811,42.4195 8.8791,42.7505" id="Fill-6" fill="#EAA5BC"></path>
            <path d="M46.4465,4.9214 C46.4465,4.9214 47.0245,4.6874 47.3525,5.0154 C47.6805,5.3434 47.6495,5.6404 47.3525,5.8584 C47.0555,6.0774 47.0875,5.9054 46.2595,6.5304 C45.4305,7.1554 45.2595,7.3124 44.9625,7.0624 C44.6655,6.8124 44.9625,6.2814 45.2125,6.0074 C45.4625,5.7334 46.1965,5.0774 46.4465,4.9214" id="Fill-45" fill="#B55E4B"></path>
            <path d="M40.3059,7.5308 C40.3059,7.5308 40.0559,7.3748 40.3059,6.8438 C40.5559,6.3118 41.1969,5.2648 41.6029,5.5148 C42.0089,5.7648 41.9619,6.1488 41.6649,6.5038 C41.3679,6.8588 40.9309,7.6548 40.6179,7.6398 C40.3059,7.6248 40.5089,7.7028 40.3059,7.5308" id="Fill-47" fill="#B55E4B"></path>
            <path d="M32.7434,38.4683 C32.7434,38.4683 33.5554,37.4373 33.4624,35.8123 C33.3684,34.1873 33.3374,33.9993 32.9624,33.1243 C32.5874,32.2493 32.9454,32.0623 33.4694,32.0933 C33.9934,32.1243 35.6494,31.4993 36.5244,30.6243 C37.3994,29.7493 38.2124,29.0933 39.2744,29.5933 C40.3374,30.0933 39.3054,31.9373 39.5874,32.3433 C39.8684,32.7493 42.1814,32.4373 42.2434,34.4373 C42.1814,36.2183 40.5554,35.2803 40.4934,36.9993 C40.4934,36.9993 40.3684,37.4683 41.0244,38.3123 C41.6814,39.4373 41.2744,41.1713 40.1494,41.4683 C39.0244,41.7653 38.1144,41.4143 36.3524,40.8373 C33.6964,39.6093 34.0094,39.4373 32.7434,39.0623 C32.0244,38.9213 32.5774,38.7263 32.7434,38.4683" id="Fill-49" fill="#B55E4B"></path>
            <path d="M76.4778,28.2652 C76.4778,28.2652 76.1808,28.2652 76.0248,27.8122 C75.8688,27.3592 76.3838,27.3592 76.6338,27.2652 C76.8838,27.1712 77.6808,26.7342 78.0868,26.4682 C78.4938,26.2022 79.1658,25.4522 79.4468,25.5622 C79.7278,25.6712 80.4308,26.0772 79.8528,26.7492 C79.2748,27.4212 78.9618,27.9992 76.4778,28.2652" id="Fill-51" fill="#B55E4B"></path>
            <path d="M77.9153,31.5621 C77.5563,31.5621 77.5243,31.3751 77.5093,31.0781 C77.4933,30.7811 78.2123,30.6561 78.8373,30.6711 C79.4623,30.6871 80.3533,31.0781 80.1963,31.6711 C80.0403,32.2651 79.5713,32.2491 79.3523,32.0781 C79.1343,31.9061 78.2743,31.5621 77.9153,31.5621" id="Fill-53" fill="#B55E4B"></path>
            <path d="M78.384,35.7964 C78.384,35.7964 77.915,35.4054 77.9,35.0774 C77.884,34.7494 78.306,34.9684 78.493,35.0774 C78.681,35.1874 79.259,35.6244 79.884,35.8904 C80.509,36.1554 81.54,36.2964 81.478,36.5774 C81.415,36.8584 81.259,37.3584 80.618,37.2654 C79.978,37.1714 78.708,36.1434 78.384,35.7964" id="Fill-55" fill="#B55E4B"></path>
            <path d="M11.8996,29.563 C11.8996,30.279 11.3186,30.86 10.6026,30.86 C9.8866,30.86 9.3056,30.279 9.3056,29.563 C9.3056,28.847 9.8866,28.266 10.6026,28.266 C11.3186,28.266 11.8996,28.847 11.8996,29.563" id="Fill-81" fill="#231916"></path>
        </g>
    </g>
</svg>