<?xml version="1.0" encoding="UTF-8"?>
<svg width="46px" height="33px" viewBox="0 0 46 33" version="1.1" xmlns="http://www.w3.org/2000/svg" xmlns:xlink="http://www.w3.org/1999/xlink">
    <!-- Generator: Sketch 46.2 (44496) - http://www.bohemiancoding.com/sketch -->
    <title>sb-2</title>
    <desc>Created with Sketch.</desc>
    <defs></defs>
    <g id="Page-1" stroke="none" stroke-width="1" fill="none" fill-rule="evenodd">
        <g id="sb-2">
            <path d="M5.5456,27.2032 C4.6806,27.6872 3.2126,27.8432 2.5036,27.4912 C0.9626,27.1662 0.5456,23.6242 0.5876,21.4992 C0.6286,19.3742 2.4626,15.9582 5.0456,13.2492 C7.6286,10.5412 11.9206,8.8742 13.2126,7.7912 C14.5036,6.7082 15.1286,5.4582 15.1706,4.8332 C15.2126,4.2082 16.7536,1.3332 20.5876,0.7492 C24.4206,0.1662 24.1286,2.1662 24.2956,3.2082 C24.4626,4.2502 25.5456,4.2492 26.0876,4.5412 C26.0876,4.5412 29.0876,4.7912 32.1286,6.3332 C35.1706,7.8742 36.8376,10.6252 37.6286,10.3332 C38.4206,10.0412 39.7536,8.7082 41.3376,8.1242 C42.9206,7.5412 44.0036,7.9582 44.6286,8.5832 C45.2536,9.2082 45.1286,10.8332 44.2956,12.2492 C43.4626,13.6662 44.0036,14.3742 44.3376,14.9162 C44.6706,15.4582 46.0036,16.6242 45.7956,18.4162 C45.5876,20.2082 43.8366,20.3302 43.0456,20.3102 C42.2536,20.2912 40.7756,19.8122 40.2336,19.4372 C39.6916,19.0622 39.3376,18.8542 38.7956,19.2702 C38.7956,19.2702 38.3056,19.8742 37.3996,21.5312 C36.4936,23.1872 33.9626,27.1872 29.0246,29.5932 C24.0876,31.9992 17.2436,32.3122 13.6806,32.2812 C10.1186,32.2492 10.8686,30.9372 10.8686,30.6562 C10.8686,30.3742 12.7746,28.5932 13.4936,26.9062 C14.2126,25.2182 13.3056,23.1242 12.2126,22.8742 C11.1186,22.6242 6.4106,26.7192 5.5456,27.2032" id="Fill-4" fill="#A5C53E"></path>
            <path d="M17.0041,20.7706 C17.8161,20.5206 18.7121,20.5836 19.0251,20.4056 C19.3371,20.2286 19.7131,20.2706 20.0041,20.7706 C20.2951,21.2706 20.3581,21.7496 20.6501,22.0416 C20.9421,22.3326 21.6911,22.9996 21.7121,23.3956 C21.7331,23.7916 21.5251,23.9996 21.4621,24.4586 C21.4001,24.9166 20.7131,26.3956 19.3581,26.9376 C18.0041,27.4786 16.8581,27.0826 16.5041,26.7286 C16.1501,26.3746 16.1071,25.9996 15.7331,25.8746 C15.3581,25.7496 15.1291,24.9376 15.1291,24.4376 C15.1291,23.9376 14.4001,23.8956 14.8371,22.8126 C15.2751,21.7286 16.1921,21.0206 17.0041,20.7706" id="Fill-79" fill="#597F4B"></path>
            <path d="M9.112,19.0464 C9.112,19.7974 8.504,20.4054 7.753,20.4054 C7.002,20.4054 6.393,19.7974 6.393,19.0464 C6.393,18.2954 7.002,17.6874 7.753,17.6874 C8.504,17.6874 9.112,18.2954 9.112,19.0464" id="Fill-83" fill="#231916"></path>
        </g>
    </g>
</svg>