<?xml version="1.0" encoding="UTF-8"?>
<svg width="62px" height="42px" viewBox="0 0 62 42" version="1.1" xmlns="http://www.w3.org/2000/svg" xmlns:xlink="http://www.w3.org/1999/xlink">
    <!-- Generator: Sketch 46.2 (44496) - http://www.bohemiancoding.com/sketch -->
    <title>sb-3</title>
    <desc>Created with Sketch.</desc>
    <defs></defs>
    <g id="Page-1" stroke="none" stroke-width="1" fill="none" fill-rule="evenodd">
        <g id="sb-3">
            <path d="M5.7131,32.7496 C5.7131,32.7496 3.5451,33.5846 2.6291,32.4586 C1.7131,31.3326 0.7131,29.0416 0.9631,24.7496 C1.2131,20.4576 5.5871,16.4996 7.0041,15.2076 C8.4211,13.9166 11.9201,11.4576 13.5041,10.5416 C15.0881,9.6246 17.6291,9.1316 18.5041,6.8366 C19.3791,4.5416 20.5051,2.1246 24.2131,0.9576 C27.9211,-0.2084 32.0051,2.3326 31.4631,5.4576 C31.4631,5.4576 31.2541,6.1736 32.2961,6.8366 C33.3381,7.4996 37.3391,7.9576 40.5051,9.4996 C43.6711,11.0416 47.3791,15.3436 48.1711,15.4836 C48.9631,15.6246 49.3381,14.2076 52.9631,12.3326 C56.5881,10.4576 58.9221,11.7496 59.5051,12.8746 C60.0881,13.9996 60.1301,15.5426 58.3801,17.4586 C56.6301,19.3746 58.6721,20.9166 59.0051,21.2916 C59.3381,21.6666 62.4641,24.1656 61.1301,26.4996 C59.7961,28.8336 55.6301,28.1656 54.3381,27.9996 C53.0461,27.8336 50.3371,25.9996 49.6711,26.4996 C49.0051,26.9996 48.7971,27.4166 47.6301,29.0416 C46.4631,30.6666 39.9621,37.2076 34.1711,39.4166 C28.3801,41.6256 24.8371,41.6256 22.1711,41.7506 C19.5051,41.8756 15.6721,41.0416 13.8381,40.4586 C12.0041,39.8756 11.7541,38.9176 12.5461,38.1256 C13.3381,37.3336 15.2131,35.0426 15.8381,33.8756 C16.4631,32.7086 17.6721,29.5846 17.7131,28.2926 C17.7541,27.0006 17.2541,26.4176 16.6291,26.7506 C16.0041,27.0836 12.2541,30.0006 10.7961,30.6256 C9.3381,31.2506 6.7961,32.4886 5.7131,32.7496" id="Fill-10" fill="#93CAD8"></path>
            <path d="M25.0041,26.7291 C25.0041,26.7291 24.6501,25.7291 24.8171,25.3541 C24.9831,24.9791 26.4011,23.7911 27.2551,23.3541 C28.1081,22.9161 29.9631,22.1671 30.7131,23.0001 C31.4631,23.8331 31.1091,24.6041 31.0051,25.1671 C30.9001,25.7291 31.1911,26.1881 31.5461,26.4791 C31.9001,26.7701 32.5871,28.0201 31.5461,28.7501 C30.5051,29.4791 30.9001,29.7291 30.9831,29.8541 C31.0671,29.9791 31.9421,31.3541 30.0251,32.1871 C28.1081,33.0201 26.4421,31.7081 25.9631,31.2701 C25.4831,30.8331 25.1501,30.5421 25.4001,29.6251 C25.6501,28.7081 25.1371,27.1811 25.0041,26.7291" id="Fill-57" fill="#4FABC3"></path>
            <path d="M22.6506,6.5826 C22.6506,6.5826 22.7336,6.8746 23.0256,6.8326 C23.3176,6.7906 23.5246,6.3956 23.4836,6.0206 C23.4426,5.6456 23.3836,4.6246 23.0696,4.6246 C22.7546,4.6246 22.5886,4.9366 22.6506,5.3746 C22.7126,5.8116 22.4636,6.0616 22.6506,6.5826" id="Fill-59" fill="#4FABC3"></path>
            <path d="M25.9631,5.8951 C25.9631,5.8951 26.0051,6.2491 26.2131,6.3121 C26.4211,6.3741 26.6921,6.3161 26.9631,5.7301 C27.2341,5.1451 27.4211,4.7491 27.5251,4.5201 C27.6301,4.2911 27.6511,3.8121 27.1921,3.6871 C26.7341,3.5621 26.6511,3.8741 26.4421,4.0831 C26.2341,4.2911 26.0461,5.3951 25.9631,5.8951" id="Fill-61" fill="#4FABC3"></path>
            <path d="M53.0871,16.6871 C53.0871,16.6871 52.6911,16.8531 52.4621,16.6871 C52.2331,16.5211 52.6081,16.1871 52.7751,15.9161 C52.9411,15.6461 53.7751,14.4581 54.1291,14.3121 C54.4831,14.1661 54.9631,14.1041 55.1291,14.5831 C55.2951,15.0621 54.9831,15.2711 54.6701,15.3961 C54.3581,15.5211 53.3581,16.5201 53.0871,16.6871" id="Fill-63" fill="#4FABC3"></path>
            <path d="M51.5871,19.3541 C51.5871,19.3541 51.1501,19.8751 51.5871,19.9161 C52.0241,19.9581 52.8991,19.7911 53.2121,19.7291 C53.5241,19.6661 55.4621,19.2921 55.4621,18.7711 C55.4621,18.2501 55.0241,18.3751 54.5451,18.3751 C54.0661,18.3751 51.9411,19.0421 51.5871,19.3541" id="Fill-65" fill="#4FABC3"></path>
            <path d="M53.2951,23.7086 C53.2951,23.7086 53.1081,23.4166 53.2951,23.0416 C53.4821,22.6666 53.8791,23.0206 54.0041,23.1666 C54.1291,23.3126 54.9201,23.6466 55.2741,23.7086 C55.6291,23.7706 56.9411,23.9596 56.8371,24.7506 C56.7331,25.5416 55.7331,25.3956 54.8161,25.0416 C53.8991,24.6876 53.5861,24.0206 53.2951,23.7086" id="Fill-67" fill="#4FABC3"></path>
            <path d="M10.0871,23.3277 C10.0871,24.0097 9.5341,24.5617 8.8531,24.5617 C8.1711,24.5617 7.6181,24.0097 7.6181,23.3277 C7.6181,22.6457 8.1711,22.0937 8.8531,22.0937 C9.5341,22.0937 10.0871,22.6457 10.0871,23.3277" id="Fill-85" fill="#231916"></path>
        </g>
    </g>
</svg>