<?xml version="1.0" encoding="UTF-8"?>
<svg width="54px" height="40px" viewBox="0 0 54 40" version="1.1" xmlns="http://www.w3.org/2000/svg" xmlns:xlink="http://www.w3.org/1999/xlink">
    <!-- Generator: Sketch 46.2 (44496) - http://www.bohemiancoding.com/sketch -->
    <title>sb-4</title>
    <desc>Created with Sketch.</desc>
    <defs></defs>
    <g id="Page-1" stroke="none" stroke-width="1" fill="none" fill-rule="evenodd">
        <g id="sb-4">
            <path d="M3.2541,29.0836 C3.2541,29.0836 1.1291,29.7916 0.6711,28.0836 C0.2121,26.3756 -0.2879,24.2916 0.4621,21.9586 C1.2121,19.6256 3.7541,15.8336 6.3371,13.5836 C8.9201,11.3336 12.9201,9.5426 15.2951,8.6256 C17.6701,7.7086 17.9621,8.5836 19.2121,5.4586 C20.4621,2.3336 23.9621,-0.2504 27.9621,0.8336 C31.9621,1.9176 31.0881,5.4966 31.5461,5.9366 C32.0041,6.3756 36.0461,7.5836 38.2541,9.2086 C40.4621,10.8336 42.7951,14.1666 43.7121,14.2086 C44.6291,14.2506 44.5031,13.8766 45.0871,12.9176 C45.6711,11.9586 48.3371,9.9586 50.2121,10.3756 C52.0871,10.7926 52.6291,12.0426 52.3791,13.4176 C52.1291,14.7926 51.3371,16.2096 51.3371,17.2926 C51.3371,18.3756 51.8801,18.5426 53.0461,20.2506 C54.2121,21.9586 54.5051,23.8746 52.7961,24.4586 C51.0871,25.0426 49.1701,25.0836 47.2121,24.1256 C45.2541,23.1676 45.2531,24.7506 44.9621,25.3756 C44.6711,26.0006 43.3791,30.0836 40.0041,32.7086 C36.6291,35.3336 32.1301,37.3336 24.0461,38.7086 C15.9621,40.0836 11.2551,37.5426 9.4211,37.0006 C7.5871,36.4586 6.8371,35.5836 7.9211,34.5836 C9.0041,33.5836 11.7951,30.6666 12.4621,27.5836 C13.1291,24.5006 12.0861,25.7926 11.6701,25.9176 C11.2541,26.0426 4.7121,28.7086 3.2541,29.0836" id="Fill-8" fill="#E9CA2B"></path>
            <path d="M19.7541,28.2496 C19.7541,28.2496 18.5241,28.4996 18.5451,29.8116 C18.5671,31.1246 19.9621,31.0206 19.9001,31.2076 C19.8371,31.3956 19.5911,32.2286 19.9011,32.6866 C20.2121,33.1456 20.7131,33.0416 21.5041,33.3746 C22.2951,33.7076 21.5861,34.3326 22.8581,34.3116 C24.1291,34.2916 25.6291,32.5626 25.9001,32.1666 C26.1701,31.7706 26.4621,30.4166 26.2751,30.0416 C26.0871,29.6666 25.1291,28.0826 24.4621,27.3956 C23.7951,26.7076 23.3371,25.9786 23.0251,26.1036 C22.7121,26.2286 22.2541,26.7906 21.7541,27.0826 C21.2541,27.3746 20.2851,28.0146 19.7541,28.2496" id="Fill-69" fill="#E37832"></path>
            <path d="M24.2746,5.9166 C24.2746,5.9166 23.8996,5.8546 24.2746,5.3746 C24.6496,4.8956 24.6916,4.3736 25.2116,4.6456 C25.7326,4.9166 25.1086,5.2706 25.0246,5.4796 C24.9406,5.6876 24.6496,6.0206 24.2746,5.9166" id="Fill-71" fill="#E37832"></path>
            <path d="M27.5031,5.8326 C27.5031,5.8326 27.1491,5.3756 27.5031,4.9786 C27.8571,4.5826 28.1491,4.3956 28.3371,4.1666 C28.5241,3.9366 29.3991,4.2676 29.1901,4.5706 C28.9821,4.8746 28.7321,5.2916 28.4821,5.4996 C28.2321,5.7076 27.8991,6.0406 27.5031,5.8326" id="Fill-73" fill="#E37832"></path>
            <path d="M47.0451,16.9996 C47.0451,16.9996 46.7111,17.1866 46.3581,16.9996 C46.0041,16.8126 46.3791,16.4366 46.5661,16.2706 C46.7541,16.1036 48.1081,14.8126 48.5661,15.0416 C49.0241,15.2706 49.2541,15.5626 48.9411,15.9166 C48.6291,16.2706 47.4411,16.7496 47.0451,16.9996" id="Fill-75" fill="#E37832"></path>
            <path d="M47.2326,19.5826 C47.2326,19.5826 46.9406,19.3116 46.9826,18.9996 C47.0246,18.6866 47.5246,18.8956 47.8366,18.9996 C48.1496,19.1036 49.4616,19.8116 49.4206,20.3946 C49.3786,20.9786 48.8586,21.2286 48.5666,21.1866 C48.2746,21.1446 47.7116,19.9366 47.2326,19.5826" id="Fill-77" fill="#E37832"></path>
            <path d="M8.1154,21.3814 C8.1154,22.1374 7.5034,22.7494 6.7474,22.7494 C5.9914,22.7494 5.3794,22.1374 5.3794,21.3814 C5.3794,20.6254 5.9914,20.0134 6.7474,20.0134 C7.5034,20.0134 8.1154,20.6254 8.1154,21.3814" id="Fill-87" fill="#231916"></path>
        </g>
    </g>
</svg>