<?xml version="1.0" encoding="UTF-8"?>
<svg width="222px" height="67px" viewBox="0 0 222 67" version="1.1" xmlns="http://www.w3.org/2000/svg" xmlns:xlink="http://www.w3.org/1999/xlink">
    <!-- Generator: Sketch 46.2 (44496) - http://www.bohemiancoding.com/sketch -->
    <title>sb-bs</title>
    <desc>Created with Sketch.</desc>
    <defs></defs>
    <g id="Page-1" stroke="none" stroke-width="1" fill="none" fill-rule="evenodd">
        <g id="sb-bs" fill="#844C32">
            <path d="M83.6945,36.7349 C83.6945,36.7349 82.4445,34.7349 82.6945,33.4849 C82.9445,32.2349 84.1315,32.1099 85.0065,31.9229 C85.8825,31.7349 86.7575,32.5479 87.0695,34.3289 C87.3825,36.1099 87.9445,39.1729 88.6945,40.6729 C89.4445,42.1719 89.8815,45.1729 90.0695,46.1729 C90.2565,47.1729 91.2565,48.8599 91.9445,49.2349 C92.6325,49.6099 93.1945,49.4229 93.8195,48.5479 C94.4445,47.6729 95.4445,46.7979 95.8195,45.9849 C96.1945,45.1729 96.7575,44.4219 97.6945,43.5469 C98.6325,42.6719 100.8195,40.1099 101.5065,40.0479 C102.1945,39.9849 102.9445,41.1099 103.0065,41.7349 C103.0695,42.3599 101.8815,43.8599 101.5695,44.6099 C101.2565,45.3599 99.1325,47.1099 98.3825,47.9229 C97.6325,48.7349 97.2575,49.7349 97.3825,50.3599 C97.5075,50.9849 98.6945,52.7349 100.1945,54.2969 C101.6945,55.8599 104.1945,58.2969 105.1945,59.1719 C106.1945,60.0469 107.0065,60.9219 106.1945,62.1099 C105.3815,63.2969 104.0065,61.9849 102.8195,60.9219 C101.6315,59.8599 98.2575,56.6719 97.7575,56.1099 C97.2575,55.5469 95.3195,53.2599 94.8195,53.7159 C94.3195,54.1719 93.7575,55.0999 93.8825,56.9179 C94.0075,58.7349 94.7575,60.2969 95.1945,61.1099 C95.6325,61.9219 96.6325,63.0469 96.6325,63.9849 C96.6325,64.9219 96.1185,66.1719 94.5945,66.6719 C93.0695,67.1719 91.3815,66.4219 90.6945,64.6099 C90.0065,62.7969 89.5065,59.0589 89.1945,57.9909 C88.8815,56.9219 88.6945,54.4279 88.5065,53.6439 C88.3195,52.8599 87.8195,51.7979 87.5695,50.7979 C87.3195,49.7979 86.4445,48.2979 86.4445,47.8599 C86.4445,47.4229 86.1945,44.9849 86.0695,44.4849 C85.9445,43.9849 85.0695,41.6719 84.7565,40.9219 C84.4445,40.1729 84.0695,37.4189 83.6945,36.7349" id="Fill-89"></path>
            <path d="M142.6945,16.9849 C142.6945,16.9849 144.5065,17.8599 145.0695,18.9219 C145.6325,19.9849 147.0695,22.0469 147.6315,23.4219 C148.1945,24.7969 149.7565,24.5469 150.6315,24.2969 C151.5075,24.0469 152.6325,22.6099 151.8825,19.7349 C151.1325,16.8599 148.1315,14.1719 146.8195,13.2349 C145.5075,12.2979 141.6945,10.1729 138.8195,9.9229 C135.9445,9.6729 132.3815,11.1099 130.6315,12.6729 C128.8815,14.2349 126.4445,16.9229 125.8825,20.4229 C125.3195,23.9219 125.6325,27.4229 128.0695,31.4229 C130.5065,35.4219 132.8195,37.1719 135.0075,37.9219 C137.1945,38.6719 138.6325,39.6099 141.0075,39.5469 C143.3815,39.4849 145.5075,41.7349 146.1325,42.6719 C146.7565,43.6099 147.3815,46.4849 147.5065,48.4849 C147.6315,50.4849 147.2565,53.6729 144.7575,55.4849 C142.2575,57.2979 140.8195,58.0439 138.1945,58.1079 C135.5695,58.1729 134.6945,57.3599 132.8815,56.6729 C131.0695,55.9849 129.5695,56.1099 128.0065,54.5479 C126.4445,52.9849 124.6325,49.7979 124.0695,48.2969 C123.5075,46.7969 123.2575,45.9219 121.3825,46.1719 C119.5075,46.4219 119.1325,48.7509 119.1325,49.9619 C119.1325,51.1729 119.6945,53.7979 121.0075,55.4229 C122.3195,57.0479 124.0075,58.5479 125.3195,59.4229 C126.6325,60.2979 129.4445,61.8599 130.7565,62.1099 C132.0695,62.3599 134.6905,63.3599 135.6305,63.7349 C136.5695,64.1099 139.7565,64.4849 143.6945,64.4229 C147.6315,64.3599 149.4445,62.6729 150.1315,62.2349 C150.8195,61.7979 153.1325,59.3599 153.4445,58.3599 C153.7575,57.3599 155.1945,54.2979 155.3195,52.4229 C155.4445,50.5479 155.0695,46.4849 154.0695,42.9219 C153.0695,39.3599 151.0075,36.4219 148.5695,34.9849 C146.1325,33.5469 143.0695,33.9219 140.0695,33.5469 C137.0695,33.1719 135.4445,31.6729 135.5075,30.2979 C135.5695,28.9229 134.3195,29.2979 134.8825,25.1099 C135.4445,20.9229 134.5065,18.8599 136.8195,17.4849 C139.1315,16.1099 142.0015,16.5949 142.6945,16.9849" id="Fill-91"></path>
            <path d="M159.6945,31.3599 C159.6945,31.3599 158.7575,30.3599 158.7575,28.7969 C158.7575,27.2349 160.3195,27.7969 160.9445,28.1099 C161.5695,28.4219 162.6325,30.1729 163.0695,31.3599 C163.5075,32.5469 163.5075,34.1099 164.8195,34.2979 C166.1315,34.4849 167.3195,33.6099 168.2575,33.4229 C169.1945,33.2349 170.1945,32.9219 170.4445,33.7979 C170.6945,34.6729 169.5695,36.2349 168.6945,36.7349 C167.8195,37.2349 167.3195,36.2349 165.5065,37.7969 C163.6945,39.3599 165.1315,40.5479 165.2565,41.1099 C165.3815,41.6729 165.8195,43.5479 166.8195,43.6099 C167.8195,43.6729 168.4445,42.9229 169.5075,42.0479 C170.5695,41.1729 172.0075,40.6099 172.8195,39.5479 C173.6325,38.4849 174.6945,38.0469 175.6945,38.9219 C176.6945,39.7979 175.5695,41.2349 175.1325,41.6729 C175.1325,41.6729 174.4135,42.4539 174.1635,42.5479 C173.9135,42.6409 173.3195,43.0869 172.6945,43.6139 C172.0695,44.1409 170.3505,45.5479 168.4135,46.5789 C166.4755,47.6099 165.5385,47.6409 164.3815,46.5789 C163.2255,45.5159 162.1945,43.7659 162.1945,43.3289 C162.1945,42.8909 162.1945,41.6409 161.9755,41.1099 C161.7575,40.5789 160.9755,39.6409 160.3505,39.5479 C159.7255,39.4539 157.8505,39.5159 157.1635,39.5159 C156.4755,39.5159 155.8815,38.6099 155.7885,38.2349 C155.6945,37.8599 156.5065,37.1099 156.9755,36.7969 C157.4445,36.4849 158.4445,36.7969 158.8505,36.7659 C159.2575,36.7349 160.2565,35.7969 160.4135,35.0479 C160.5695,34.2979 160.3505,33.1099 160.2255,32.6409 C160.1005,32.1719 160.0185,31.8029 159.6945,31.3599" id="Fill-93"></path>
            <path d="M196.132,28.8912 C196.132,28.8912 193.913,26.3912 193.382,25.4532 C192.851,24.5162 192.288,23.1412 192.163,22.6722 C192.038,22.2042 190.851,20.7972 190.382,19.9222 C189.913,19.0472 189.882,18.6722 189.476,17.6102 C189.07,16.5472 188.913,15.6722 189.288,15.0782 C189.663,14.4852 190.632,14.3282 191.163,15.0782 C191.695,15.8282 192.694,17.8282 193.101,18.2352 C193.507,18.6412 194.538,18.7972 195.132,18.5162 C195.726,18.2352 197.351,16.6722 198.038,16.1412 C198.726,15.6102 199.601,15.0472 200.663,15.2032 C201.726,15.3602 202.976,16.5472 202.976,17.0162 C202.976,17.4852 202.226,18.2972 201.476,18.3282 C200.726,18.3602 199.32,18.7352 198.695,19.6102 C198.069,20.4852 197.882,20.6102 197.819,21.1102 C197.757,21.6102 197.726,22.9542 198.195,23.9852 C198.663,25.0162 199.226,26.1412 199.476,26.7662 C199.726,27.3912 200.382,28.2662 200.476,28.7042 C200.569,29.1412 200.382,30.3282 199.976,30.6412 C199.57,30.9542 198.726,30.9852 198.038,30.4532 C197.351,29.9222 196.591,29.4162 196.132,28.8912" id="Fill-95"></path>
            <path d="M208.7268,3.7037 C208.7268,3.7037 208.6328,4.1727 207.5078,4.1727 C206.3828,4.1727 205.8828,3.2347 205.5708,2.9847 C205.2578,2.7347 205.0708,1.9227 204.5398,1.3287 C204.0068,0.7347 203.6638,0.3597 202.6638,0.9227 C201.6638,1.4847 202.0698,2.2347 202.1638,3.0167 C202.2568,3.7977 203.2568,4.7347 203.4758,5.0787 C203.6948,5.4227 203.8508,5.8597 203.5068,6.4227 C203.1638,6.9847 201.6948,8.2347 200.9758,9.0787 C200.2568,9.9227 200.7258,10.6097 201.3198,10.6727 C201.9138,10.7347 202.3198,10.8907 202.9758,10.6727 C203.6318,10.4537 204.0188,10.0477 204.6688,10.3287 C205.3208,10.6097 206.0708,12.2037 206.4768,12.9847 C206.8828,13.7667 208.5398,16.6097 209.1958,17.4537 C209.8518,18.2977 210.7898,19.1417 212.0398,19.1417 C213.2888,19.1417 214.5708,19.1727 215.6958,18.6417 C216.8208,18.1097 217.9458,17.4227 218.4768,16.8287 C219.0078,16.2347 219.9768,15.2237 220.4768,14.5727 C220.9768,13.9227 221.5708,13.5167 221.6958,12.9847 C221.8208,12.4537 222.0078,12.2347 221.8828,11.6097 C221.7578,10.9847 221.3208,10.3597 220.6958,10.2977 C220.0708,10.2347 218.9768,11.2657 218.5708,11.7667 C218.1648,12.2667 218.2898,12.6417 218.0078,13.0167 C217.7268,13.3917 217.0398,13.9227 216.1958,14.7977 C215.3518,15.6727 214.7578,15.9537 213.6638,15.9847 C212.5708,16.0167 211.6648,15.6607 210.8208,14.5727 C209.9768,13.4847 208.4768,8.5157 208.5708,8.2347 C208.6648,7.9537 210.1638,6.5787 210.9148,5.8287 C211.6648,5.0787 213.3518,3.6727 213.3828,3.2347 C213.4138,2.7977 213.3518,2.2037 213.1018,1.6407 C212.8518,1.0787 212.1328,0.9537 211.5398,1.1727 C210.9458,1.3907 209.3828,3.0787 208.7268,3.7037" id="Fill-97"></path>
            <path d="M45.5075,25.1724 C44.6955,28.1724 43.6955,28.2974 42.6325,29.2344 C41.5695,30.1724 38.3825,32.9844 36.5695,33.1094 C34.7575,33.2354 32.1945,33.1724 29.0705,31.1094 C25.9455,29.0474 23.5705,26.7344 23.6325,25.6094 C23.6955,24.4854 24.5425,23.0924 24.9455,22.2974 C24.9455,22.2974 27.2575,17.4854 29.2575,15.9844 C31.2575,14.4844 33.3195,13.5474 35.6325,13.8594 C37.9455,14.1724 41.1325,15.7994 42.8825,18.0484 C44.6325,20.2974 46.3195,22.1724 45.5075,25.1724 M33.7575,48.2974 C33.2575,49.2974 31.3195,52.6724 29.9445,53.6724 C28.5705,54.6724 22.4455,57.9224 17.7575,56.6094 C13.0695,55.2974 10.5695,50.3594 10.3825,47.5474 C10.1945,44.7344 12.5075,43.9844 13.0075,42.4224 C13.5075,40.8604 14.2575,39.7974 14.8205,39.3604 C15.3825,38.9224 17.0705,38.0474 17.7575,35.4854 C17.7575,35.4854 18.3205,33.2504 19.5075,33.1494 C20.6955,33.0474 24.0075,33.7744 25.2575,34.3174 C26.5075,34.8604 30.3195,36.6724 32.1945,38.1104 C34.0695,39.5474 35.8195,40.6724 35.6945,43.6724 C35.5695,46.6724 34.2575,47.2974 33.7575,48.2974 M51.3195,18.5474 C50.4445,15.4224 47.0075,13.4224 45.6325,12.6094 C44.2575,11.7974 41.6945,9.9844 41.0075,9.2974 C40.3205,8.6104 37.7575,7.1724 36.6325,6.6104 C35.5075,6.0474 34.0695,4.6104 32.1945,4.6724 C30.3195,4.7354 28.8825,6.7354 28.1955,7.8604 C27.5075,8.9854 26.8205,10.1724 25.8825,10.9224 C24.9455,11.6724 23.8825,12.9844 23.3825,13.7974 C22.8825,14.6094 22.4455,15.6724 21.3825,17.1094 C20.3205,18.5474 18.7575,21.1724 18.7575,21.1724 C17.6495,22.9724 17.3205,24.6104 16.0705,27.1724 C14.8205,29.7344 11.6945,33.8604 10.3825,35.2974 C9.0695,36.7354 7.0695,39.1104 6.4445,40.8604 C5.8195,42.6094 4.0075,44.3594 2.8195,45.6094 C1.6325,46.8594 1.1325,48.4224 0.3825,49.6094 C-0.3675,50.7974 0.7575,53.3594 5.1325,56.5474 C9.5075,59.7354 13.5705,62.1104 18.0075,63.0474 C22.4455,63.9854 25.4455,63.2974 30.1325,60.9224 C34.8195,58.5474 37.0075,54.7974 37.8825,53.6094 C38.7575,52.4224 40.1325,49.6094 41.0075,47.9224 C41.8825,46.2344 42.1945,43.1724 41.9445,41.7974 C41.6945,40.4224 40.4455,38.0474 40.4455,37.2974 C40.4455,36.5474 41.8825,36.1724 43.0695,35.5474 C44.2575,34.9224 46.1945,33.6724 47.1325,32.6094 C48.0705,31.5474 51.3825,28.4224 52.0695,26.0474 C52.7575,23.6724 52.1945,21.6724 51.3195,18.5474" id="Fill-99"></path>
            <path d="M55.8825,57.4224 C54.1955,58.6094 51.6955,58.9844 50.1325,57.7344 C48.5705,56.4854 49.0575,55.2374 49.2575,54.4844 C49.2575,54.4844 49.7575,52.1104 50.8825,50.9224 C52.0075,49.7354 52.9445,48.9224 55.0705,48.9224 C57.1945,48.9224 59.5705,49.5474 59.6325,51.7034 C59.6955,53.8594 57.5695,56.2354 55.8825,57.4224 M62.8825,51.3604 C62.6325,48.3594 59.9445,46.4224 58.3205,45.6724 C56.6945,44.9224 52.7575,44.8594 50.8205,45.2974 C48.8825,45.7344 46.8195,47.6094 46.8195,47.6094 C45.9445,48.7974 44.8195,50.6724 44.8825,53.2594 C44.9445,55.8464 45.3825,57.4844 46.2575,58.5474 C47.1325,59.6104 48.7575,61.3604 51.9445,61.4224 C55.1325,61.4844 56.6945,61.9224 59.8825,59.5474 C63.0695,57.1724 63.1325,54.3594 62.8825,51.3604" id="Fill-101"></path>
            <path d="M81.1325,57.3599 C80.9455,59.9229 80.8825,60.0649 79.0695,61.4939 C77.2575,62.9219 75.3205,62.9399 74.4455,61.4939 C73.5705,60.0479 73.6955,58.5099 73.6955,58.5099 C73.6955,58.5099 73.3205,56.9849 74.3205,55.7979 C75.3205,54.6099 76.0075,53.3229 78.1325,53.7159 C80.2575,54.1099 81.3195,54.7969 81.1325,57.3599 M84.1945,54.6099 C84.0695,53.8599 82.8195,52.7349 81.1945,51.7349 C79.5705,50.7349 77.5695,50.2979 76.3205,50.0479 C75.0705,49.7979 73.7575,50.1099 72.3195,50.7979 C70.8825,51.4849 69.9445,52.9229 68.6945,54.2969 C67.4445,55.6729 68.0075,57.3599 68.0075,57.3599 C68.5075,61.0479 70.4445,63.9219 71.6945,64.8599 C72.9445,65.7979 75.3205,66.2979 77.5075,65.8599 C79.6955,65.4229 82.5075,63.1719 83.5695,61.8599 C84.6325,60.5479 84.3195,55.3599 84.1945,54.6099" id="Fill-103"></path>
            <path d="M184.132,33.1099 C183.695,33.7659 182.538,34.8909 181.569,34.6409 C180.601,34.3909 179.601,33.0789 179.288,32.6409 C178.976,32.2039 178.678,31.1389 178.601,30.5789 C178.601,30.5789 178.413,30.2349 178.601,29.6409 C178.788,29.0479 179.57,28.2349 180.132,28.2039 C180.694,28.1729 181.944,28.2979 182.851,29.5789 C183.757,30.8599 184.569,32.4539 184.132,33.1099 M194.382,32.3289 C194.101,31.9849 193.32,30.6099 192.101,30.4539 C190.882,30.2969 189.882,30.6719 188.351,29.9219 C186.82,29.1719 185.944,28.2349 185.476,27.1409 C185.476,27.1409 184.07,25.2979 183.726,25.1409 C183.382,24.9849 182.257,24.8599 181.819,24.7349 C181.382,24.6099 179.507,24.2349 178.195,25.2039 C176.882,26.1729 175.632,27.4849 175.319,29.0789 C175.007,30.6719 175.319,32.6409 175.944,33.6409 C176.57,34.6409 177.601,36.1729 179.195,37.0479 C180.788,37.9219 182.82,38.1719 183.695,37.7349 C184.569,37.2969 186.132,35.8909 186.257,35.5479 C186.382,35.2039 187.507,34.0789 187.913,33.7659 C188.319,33.4539 189.882,33.3599 190.632,33.3909 C191.382,33.4219 192.382,34.0469 193.226,33.8289 C194.07,33.6099 194.663,32.6729 194.382,32.3289" id="Fill-105"></path>
        </g>
    </g>
</svg>